<svg width="295" height="260" viewBox="0 0 295 260" fill="none" xmlns="http://www.w3.org/2000/svg">
<path d="M38.4454 202.473C41.1404 202.473 43.7805 203.305 46.0214 204.857C48.2622 206.414 50.014 208.627 51.0421 211.213C52.0752 213.799 52.3447 216.649 51.8206 219.395C51.2966 222.141 49.994 224.665 48.0875 226.646C46.1811 228.627 43.7506 229.977 41.1055 230.52C38.4604 231.068 35.7155 230.783 33.2251 229.713C30.7347 228.642 28.6036 226.827 27.1064 224.494C25.6092 222.167 24.8057 219.426 24.8057 216.628C24.8057 212.873 26.243 209.268 28.7983 206.615C31.3535 203.957 34.8271 202.467 38.4404 202.467L38.4454 202.473Z" fill="#8087E6"/>
<path d="M263.958 52.203C263.836 50.9173 263.358 49.6969 262.569 48.6623C245.853 26.7908 221.88 10.9056 195.068 3.93989C193.038 3.41759 190.972 2.94048 188.758 2.49351C187.781 2.29262 186.748 2.09676 185.69 1.91094C183.853 1.5845 181.853 1.28316 179.573 0.986857C169.111 -0.328952 158.501 -0.328952 148.034 0.986857C145.754 1.28819 143.754 1.58952 141.922 1.91094C140.849 2.09676 139.816 2.29262 138.854 2.49351C136.645 2.9455 134.579 3.41759 132.539 3.94492C105.727 10.9157 81.7542 26.8008 65.038 48.6724C64.2493 49.7019 63.771 50.9273 63.6488 52.213C63.5267 53.4987 63.771 54.7894 64.3511 55.9445C64.9312 57.0996 65.8268 58.0689 66.9361 58.7519C68.0454 59.4349 69.3227 59.7915 70.6305 59.7965H78.2482C79.2862 59.7915 80.3294 59.5504 81.2606 59.1085C82.1969 58.6665 83.0366 58.0086 83.6879 57.2201C93.3563 45.5938 105.737 36.0466 119.502 29.6183C133.261 23.1899 148.573 19.7949 163.788 19.7949H163.819C179.034 19.7949 194.346 23.1899 208.105 29.6183C221.87 36.0466 234.251 45.5938 243.914 57.2151C244.57 58.0136 245.41 58.6665 246.341 59.1085C247.278 59.5504 248.321 59.7865 249.364 59.7965H256.977C258.284 59.7965 259.557 59.4349 260.671 58.7519C261.78 58.0689 262.676 57.0996 263.256 55.9445C263.836 54.7894 264.08 53.4987 263.958 52.213V52.203Z" fill="#8087E6"/>
<path d="M262.217 191.692C261.634 190.518 260.732 189.526 259.611 188.837C258.489 188.144 257.199 187.78 255.882 187.78H248.109C247.084 187.785 246.055 188.018 245.128 188.448C244.201 188.878 243.366 189.516 242.711 190.285C232.986 201.596 220.649 210.863 207.027 217.093C193.42 223.313 178.312 226.602 163.328 226.602H163.282V227.614H163.271V227.609V226.597H163.22C148.236 226.597 133.128 223.313 119.526 217.093C105.909 210.868 93.5671 201.596 83.8471 190.295C83.1916 189.521 82.3518 188.883 81.4248 188.448C80.4979 188.018 79.4685 187.785 78.4341 187.78H70.6755C69.3542 187.78 68.0586 188.144 66.937 188.837C65.8155 189.531 64.9142 190.518 64.3355 191.697C63.7568 192.871 63.5212 194.182 63.6544 195.482C63.7875 196.783 64.2894 198.018 65.1037 199.055C81.8601 220.296 105.592 235.757 131.93 242.59C134.142 243.157 136.18 243.622 138.157 244.017C139.135 244.219 140.175 244.417 141.245 244.604C143.089 244.933 145.101 245.237 147.401 245.535C152.665 246.198 157.966 246.527 163.266 246.527C168.567 246.527 173.872 246.198 179.142 245.535C181.436 245.237 183.449 244.933 185.292 244.604C186.368 244.417 187.407 244.219 188.38 244.017C190.367 243.617 192.406 243.151 194.618 242.585C220.956 235.757 244.693 220.296 261.454 199.05C262.263 198.013 262.765 196.778 262.904 195.477C263.037 194.172 262.801 192.861 262.223 191.687L262.217 191.692Z" fill="#8087E6"/>
<path d="M147.104 151.795H117.304C116.982 151.795 116.664 151.896 116.403 152.083C116.142 152.27 115.942 152.534 115.84 152.837L111.42 165.759C111.318 166.062 111.118 166.326 110.857 166.513C110.596 166.7 110.278 166.801 109.95 166.801H91.3915C91.1405 166.801 90.8947 166.741 90.6745 166.629C90.4543 166.513 90.2648 166.351 90.1214 166.148C89.978 165.946 89.8859 165.713 89.8551 165.47C89.8193 165.227 89.85 164.974 89.9319 164.746L119.844 82.8397C119.952 82.541 120.151 82.2829 120.413 82.1058C120.674 81.9236 120.986 81.8274 121.304 81.8274H143.345C143.662 81.8274 143.975 81.9236 144.236 82.1058C144.497 82.288 144.697 82.5461 144.804 82.8397L174.722 164.746C174.809 164.979 174.834 165.227 174.799 165.47C174.763 165.713 174.676 165.946 174.532 166.148C174.389 166.351 174.199 166.518 173.979 166.629C173.759 166.746 173.513 166.801 173.262 166.801H154.468C154.145 166.801 153.828 166.7 153.561 166.513C153.295 166.326 153.101 166.062 152.998 165.759L148.579 152.837C148.476 152.534 148.277 152.27 148.015 152.083C147.749 151.896 147.437 151.795 147.109 151.795H147.104ZM142.147 133.782L133.687 109.037C133.584 108.728 133.389 108.46 133.123 108.273C132.857 108.08 132.539 107.979 132.212 107.979C131.884 107.979 131.566 108.08 131.3 108.273C131.034 108.465 130.839 108.728 130.737 109.037L122.374 133.782C122.297 134.014 122.272 134.257 122.313 134.5C122.348 134.743 122.446 134.971 122.589 135.168C122.733 135.366 122.922 135.528 123.142 135.639C123.362 135.75 123.603 135.806 123.849 135.806H140.677C140.923 135.806 141.168 135.745 141.384 135.634C141.604 135.523 141.793 135.361 141.937 135.163C142.08 134.966 142.172 134.733 142.213 134.495C142.249 134.252 142.229 134.009 142.147 133.776" fill="#A9CBF7"/>
<path d="M14.7878 173.212C14.7126 173.212 14.6356 173.204 14.5587 173.187C10.6828 172.33 5.10408 172.336 1.27341 173.183C0.848519 173.275 0.426978 173.109 0.186097 172.766C-0.0531109 172.423 -0.0531109 171.974 0.186097 171.63C0.855211 170.675 1.2065 169.541 1.20315 168.348C1.20315 167.147 0.850192 166.008 0.179406 165.053C-0.059802 164.71 -0.059802 164.261 0.179406 163.917C0.418614 163.574 0.846847 163.406 1.26672 163.501C3.1854 163.926 5.45369 164.148 7.83239 164.148C7.88425 164.148 7.93443 164.148 7.98461 164.148C10.3583 164.148 12.6266 163.927 14.5536 163.506C14.9685 163.415 15.3984 163.579 15.6376 163.924C15.8785 164.267 15.8768 164.716 15.6376 165.058C14.9718 166.007 14.6205 167.144 14.6222 168.343C14.6256 169.544 14.9785 170.685 15.646 171.637C15.8852 171.98 15.8852 172.429 15.646 172.773C15.4502 173.052 15.1257 173.213 14.7895 173.213L14.7878 173.212ZM7.91436 170.517C9.6758 170.517 11.3854 170.631 12.9578 170.852C12.6885 170.057 12.548 169.212 12.5463 168.345C12.5463 167.478 12.6818 166.633 12.9528 165.836C11.372 166.057 9.65071 166.179 7.90599 166.165C6.22484 166.176 4.44166 166.056 2.8659 165.834C3.13689 166.632 3.27573 167.476 3.27573 168.343C3.27907 169.207 3.14023 170.052 2.87091 170.849C4.43831 170.63 6.1479 170.517 7.91436 170.517Z" fill="#2A2A2A"/>
<path d="M149.443 253.254C148.873 253.254 148.409 252.79 148.409 252.22L148.401 241.028C148.401 240.457 148.863 239.994 149.433 239.994C150.004 239.994 150.468 240.457 150.468 241.028L150.476 252.22C150.476 252.79 150.014 253.254 149.443 253.254Z" fill="#2A2A2A"/>
<path d="M159.131 247.662L139.748 247.657C139.177 247.657 138.713 247.193 138.713 246.623C138.713 246.052 139.177 245.589 139.748 245.589L159.131 245.594C159.702 245.594 160.165 246.057 160.165 246.628C160.165 247.198 159.702 247.662 159.131 247.662Z" fill="#2A2A2A"/>
<path d="M281.501 197.608C280.714 197.608 279.864 197.335 279.001 196.803C276.196 195.059 274 190.973 274 187.498C274 185.619 274.637 184.185 275.797 183.466C276.959 182.743 278.438 182.864 279.955 183.808C282.76 185.547 284.956 189.633 284.956 193.111C284.956 194.99 284.316 196.424 283.156 197.142C282.656 197.454 282.097 197.608 281.501 197.608ZM277.453 185.055C277.188 185.055 276.951 185.115 276.753 185.239C276.214 185.573 275.907 186.397 275.908 187.496C275.908 190.215 277.762 193.662 279.957 195.023C280.843 195.575 281.66 195.704 282.203 195.365C282.74 195.031 283.049 194.209 283.049 193.11C283.049 190.391 281.195 186.941 279.001 185.581C278.438 185.232 277.904 185.054 277.453 185.054V185.055Z" fill="#8087E6"/>
<path d="M141.801 13.258C141.443 13.258 141.096 13.0729 140.905 12.7409C140.62 12.2454 140.79 11.6132 141.284 11.3296L150.977 5.74116C151.472 5.4559 152.104 5.62605 152.388 6.11984C152.673 6.61529 152.503 7.24753 152.009 7.53113L142.317 13.1196C142.153 13.213 141.976 13.258 141.801 13.258Z" fill="#2A2A2A"/>
<path d="M151.497 18.8512C151.139 18.8512 150.792 18.666 150.601 18.3341L140.905 1.55039C140.62 1.05661 140.79 0.424364 141.284 0.139103C141.781 -0.147826 142.412 0.0239975 142.695 0.517782L152.391 17.3015C152.676 17.7952 152.506 18.4275 152.013 18.7128C151.849 18.8062 151.672 18.8512 151.497 18.8512Z" fill="#2A2A2A"/>
<path d="M275.151 134.725L289.474 126.454C291.24 123.905 292.618 120.859 293.578 117.359C289.382 113.838 286.189 106.57 286.189 100.017C286.186 98.0401 286.51 96.3719 287.027 94.9939L293.578 91.2088C292.618 86.6046 291.242 81.9687 289.477 77.3828C285.832 77.935 280.246 73.4793 276.225 66.5196C272.203 59.5599 271.142 52.5034 273.439 49.6291C270.352 45.804 267.019 42.2924 263.506 39.1645L256.976 42.933C255.512 42.6928 253.897 42.1356 252.171 41.1397C246.491 37.86 241.794 31.4642 240.838 26.0692C237.326 25.1484 233.993 24.8114 230.901 25.0683L219.657 31.5626C219.657 31.5626 219.648 31.5526 219.643 31.5459L200.548 42.5727C198.782 45.12 197.404 48.1678 196.44 51.661C200.64 55.1875 203.834 62.4508 203.834 69.0035C203.834 70.982 203.517 72.6435 202.993 74.0264L196.442 77.8116C197.402 82.4158 198.778 87.0567 200.543 91.6409C204.186 91.0887 209.774 95.5444 213.795 102.499C217.817 109.461 218.878 116.517 216.581 119.395C219.672 123.215 223.001 126.728 226.51 129.862L233.041 126.094C234.51 126.328 236.12 126.891 237.848 127.884C243.527 131.165 248.229 137.563 249.18 142.958C252.693 143.875 256.025 144.209 259.118 143.954L275.131 134.709C275.131 134.709 275.144 134.719 275.147 134.725H275.151ZM260.441 111.2C257.859 110.802 255.083 109.823 252.171 108.143C238.879 100.464 228.103 81.8135 228.1 66.4795C228.103 63.1365 228.64 60.2505 229.581 57.8266C230.782 58.0101 232.03 58.3354 233.312 58.7858C233.309 58.7808 233.312 58.7758 233.314 58.7691C233.359 58.7875 233.406 58.8125 233.451 58.8292C233.978 59.0177 234.52 59.2496 235.055 59.4865C235.239 59.5665 235.414 59.6266 235.594 59.7133C236.336 60.0587 237.089 60.4423 237.849 60.8844C251.145 68.5598 261.92 87.2168 261.922 102.546C261.918 103.42 261.878 104.257 261.808 105.068C261.787 105.287 261.75 105.489 261.725 105.7C261.663 106.261 261.598 106.815 261.505 107.342C261.496 107.394 261.491 107.449 261.483 107.499C261.48 107.499 261.475 107.494 261.47 107.494C261.22 108.827 260.878 110.069 260.439 111.204L260.441 111.2Z" fill="#A9CBF7"/>
<path d="M257.071 145.076C254.481 145.076 251.745 144.704 248.913 143.963C248.521 143.862 248.226 143.541 248.157 143.143C247.237 137.918 242.681 131.881 237.325 128.786C235.926 127.982 234.548 127.445 233.226 127.185L227.021 130.765C226.634 130.988 226.148 130.938 225.816 130.641C222.28 127.485 218.899 123.922 215.77 120.053C215.465 119.676 215.463 119.137 215.767 118.759C217.513 116.568 217.101 110.309 212.893 103.024C208.679 95.741 203.472 92.2578 200.691 92.6715C200.211 92.7449 199.747 92.473 199.572 92.0209C197.791 87.3967 196.396 82.689 195.422 78.0314C195.331 77.5944 195.531 77.149 195.918 76.9254L202.141 73.3305C202.573 72.051 202.793 70.6013 202.793 69.0115C202.793 62.8392 199.839 55.8795 195.768 52.4597C195.457 52.1995 195.329 51.7824 195.437 51.3937C196.43 47.7938 197.861 44.6309 199.692 41.9901C199.779 41.865 199.893 41.7616 200.024 41.6849L219.119 30.6581C219.179 30.6231 219.243 30.5947 219.308 30.573L230.377 24.1805C230.508 24.1038 230.657 24.0587 230.809 24.0454C234.006 23.7818 237.471 24.1271 241.093 25.0763C241.484 25.1781 241.779 25.4984 241.849 25.8954C242.775 31.1252 247.332 37.1624 252.681 40.2519C254.064 41.0493 255.441 41.5881 256.781 41.855L262.982 38.2751C263.369 38.0515 263.853 38.1033 264.187 38.3969C267.738 41.5581 271.119 45.1213 274.236 48.9849C274.54 49.3619 274.542 49.9007 274.24 50.2777C272.492 52.4681 272.905 58.7238 277.114 66.0071C281.327 73.2954 286.548 76.7569 289.315 76.3649C289.802 76.2965 290.259 76.5634 290.434 77.0155C292.216 81.6481 293.613 86.354 294.584 91.0033C294.676 91.4404 294.476 91.8858 294.089 92.1093L287.867 95.7043C287.433 96.9921 287.215 98.4418 287.217 100.022C287.217 106.201 290.169 113.16 294.237 116.575C294.547 116.835 294.676 117.251 294.569 117.639C293.582 121.234 292.15 124.401 290.316 127.048C290.229 127.175 290.116 127.278 289.984 127.355L275.661 135.626C275.599 135.662 275.532 135.691 275.466 135.713L259.631 144.854C259.5 144.931 259.351 144.976 259.199 144.989C258.502 145.048 257.793 145.076 257.073 145.076H257.071ZM250.059 142.12C253.136 142.866 256.065 143.138 258.799 142.946L274.61 133.817C274.673 133.781 274.738 133.751 274.805 133.731L288.746 125.682C290.282 123.416 291.51 120.739 292.399 117.709C288.167 113.804 285.148 106.501 285.148 100.022C285.145 98.0531 285.45 96.2398 286.051 94.6349C286.134 94.4114 286.294 94.2229 286.501 94.1028L292.401 90.693C291.513 86.6276 290.294 82.5205 288.771 78.4652C284.666 78.4134 279.274 73.8826 275.321 67.0397C271.369 60.2018 270.14 53.2755 272.148 49.6939C269.397 46.3441 266.448 43.2363 263.363 40.4387L257.483 43.8318C257.278 43.9503 257.034 43.9953 256.799 43.9569C255.103 43.68 253.368 43.0328 251.645 42.0385C246.034 38.7989 241.214 32.5332 239.946 26.9147C236.863 26.1657 233.924 25.8871 231.206 26.0823L220.165 32.4581C220.105 32.4931 220.042 32.5215 219.977 32.5432L201.259 43.3514C199.726 45.6101 198.498 48.2859 197.604 51.3187C201.837 55.2273 204.858 62.5323 204.858 69.0048C204.858 70.9867 204.553 72.8 203.952 74.3931C203.867 74.6166 203.709 74.8035 203.502 74.9236L197.602 78.3334C198.491 82.4071 199.711 86.5142 201.232 90.5646C205.335 90.6163 210.728 95.1437 214.683 101.983C218.632 108.823 219.862 115.753 217.857 119.334C220.616 122.689 223.565 125.8 226.637 128.594L232.517 125.201C232.72 125.081 232.959 125.029 233.196 125.076C234.874 125.343 236.61 125.987 238.356 126.99C243.976 130.236 248.795 136.503 250.057 142.117L250.059 142.12ZM260.432 112.239C260.38 112.239 260.327 112.236 260.275 112.228C257.46 111.792 254.557 110.721 251.647 109.043C238.093 101.213 227.062 82.1218 227.059 66.4842C227.062 63.1411 227.584 60.1034 228.61 57.4576C228.787 57.0072 229.252 56.7403 229.729 56.8104C230.91 56.9905 232.168 57.3075 233.467 57.7529C233.547 57.7646 233.624 57.7863 233.701 57.8196C234.343 58.0582 234.909 58.2984 235.467 58.547C235.784 58.6754 235.908 58.7254 236.033 58.7855C236.793 59.1375 237.571 59.5362 238.361 59.9949C251.915 67.8204 262.947 86.9096 262.949 102.551C262.946 103.458 262.904 104.325 262.832 105.161L262.781 105.572C262.682 106.402 262.615 106.98 262.517 107.528C262.507 107.58 262.494 107.635 262.477 107.687H262.48C262.215 109.098 261.85 110.409 261.396 111.58C261.239 111.982 260.854 112.241 260.432 112.241V112.239ZM230.248 59.0024C229.506 61.2211 229.129 63.7334 229.126 66.4859C229.129 81.4629 239.694 99.753 252.679 107.253C255.074 108.636 257.45 109.57 259.753 110.036C260.032 109.193 260.265 108.277 260.447 107.307C260.457 107.256 260.47 107.21 260.485 107.163C260.582 106.568 260.637 106.082 260.692 105.592L260.774 104.971C260.841 104.2 260.879 103.393 260.882 102.547C260.879 87.5702 250.312 69.2818 237.327 61.7832C236.592 61.3579 235.868 60.9859 235.154 60.6555L234.899 60.5471C234.887 60.5438 234.645 60.442 234.633 60.4387C234.121 60.2118 233.604 59.9899 233.099 59.8081V59.8048C233.054 59.7964 233.009 59.7831 232.964 59.7681C232.026 59.4378 231.117 59.1842 230.25 59.004L230.248 59.0024Z" fill="#2A2A2A"/>
<path d="M279.259 99.4917C278.295 94.8875 276.92 90.2516 275.154 85.6624C271.509 86.2145 265.92 81.7621 261.905 74.8024C257.879 67.8461 256.821 60.7896 259.119 57.9153C256.029 54.0902 252.696 50.5769 249.183 47.4474C248.228 51.733 243.534 52.7022 237.851 49.4242C232.167 46.1429 227.471 39.7487 226.515 34.3538C223.003 33.4329 219.67 33.096 216.578 33.3529C218.879 38.8796 217.815 44.7133 213.797 47.0287C209.772 49.3442 204.193 47.3407 200.548 42.5863C198.782 45.1336 197.404 48.1814 196.44 51.6746C200.64 55.2012 203.834 62.4645 203.834 69.0171C203.834 75.5698 200.642 79.1481 196.443 77.8252C197.404 82.4294 198.78 87.0703 200.545 91.6545C204.188 91.1023 209.775 95.5581 213.797 102.513C217.819 109.474 218.879 116.531 216.583 119.408C219.673 123.228 223.003 126.742 226.512 129.876C227.469 125.591 232.168 124.616 237.849 127.898C243.529 131.179 248.231 137.577 249.182 142.971C252.694 143.889 256.027 144.223 259.119 143.967C256.818 138.441 257.88 132.609 261.9 130.295C265.922 127.983 271.504 129.98 275.149 134.739C276.917 132.19 278.293 129.144 279.257 125.644C275.06 122.121 271.866 114.854 271.866 108.301C271.866 101.749 275.059 98.1738 279.257 99.4933L279.259 99.4917ZM261.923 102.554C261.92 117.895 251.14 124.103 237.851 116.424C224.554 108.748 213.78 90.0947 213.78 74.7607C213.78 59.4267 224.552 53.2177 237.851 60.893C251.147 68.5684 261.922 87.2255 261.923 102.554Z" fill="white"/>
<path d="M257.073 145.073C254.482 145.073 251.747 144.701 248.915 143.961C248.523 143.859 248.227 143.538 248.159 143.14C247.238 137.915 242.683 131.878 237.327 128.783C234.32 127.045 231.514 126.52 229.631 127.345C228.527 127.829 227.815 128.755 227.514 130.093C227.434 130.45 227.171 130.738 226.822 130.85C226.477 130.964 226.092 130.882 225.818 130.638C222.282 127.482 218.901 123.919 215.772 120.05C215.467 119.673 215.465 119.134 215.768 118.756C217.515 116.565 217.103 110.306 212.894 103.021C208.681 95.7381 203.474 92.2549 200.693 92.6686C200.213 92.742 199.749 92.4701 199.574 92.018C197.793 87.3938 196.398 82.6862 195.424 78.0286C195.349 77.6699 195.469 77.2979 195.743 77.051C196.013 76.8041 196.395 76.724 196.747 76.8308C198.061 77.2495 199.22 77.091 200.193 76.3771C201.846 75.1643 202.793 72.4785 202.793 69.0087C202.793 62.8364 199.839 55.8767 195.768 52.4569C195.457 52.1966 195.329 51.7796 195.437 51.3909C196.43 47.7909 197.861 44.628 199.692 41.9873C199.881 41.717 200.186 41.5519 200.518 41.5435C200.892 41.5686 201.162 41.687 201.362 41.9489C204.761 46.3846 209.775 48.1362 213.276 46.1227C216.779 44.1042 217.765 38.8978 215.618 33.7397C215.492 33.4361 215.517 33.0875 215.69 32.8056C215.862 32.5236 216.159 32.3401 216.487 32.3134C219.69 32.0515 223.151 32.3969 226.772 33.3444C227.162 33.4461 227.458 33.7664 227.528 34.1635C228.453 39.3932 233.01 45.4304 238.363 48.5199C241.374 50.2565 244.179 50.782 246.061 49.9579C247.163 49.4741 247.872 48.55 248.169 47.2154C248.249 46.8567 248.513 46.5698 248.861 46.4564C249.217 46.3446 249.593 46.4263 249.867 46.6682C253.41 49.8228 256.791 53.386 259.918 57.2579C260.224 57.6366 260.225 58.1738 259.922 58.5541C258.169 60.7444 258.581 67.0002 262.796 74.2768C267.002 81.5651 272.21 85.0383 274.995 84.6329C275.481 84.5629 275.939 84.8315 276.114 85.2835C277.896 89.9144 279.292 94.6204 280.266 99.273C280.341 99.6317 280.221 100.004 279.949 100.251C279.679 100.496 279.29 100.578 278.945 100.471C277.632 100.057 276.468 100.209 275.496 100.928C273.844 102.141 272.897 104.825 272.897 108.293C272.897 114.465 275.849 121.427 279.919 124.845C280.229 125.105 280.358 125.52 280.251 125.911C279.259 129.514 277.829 132.68 275.996 135.319C275.808 135.59 275.501 135.755 275.17 135.763C274.865 135.78 274.527 135.621 274.325 135.358C270.93 130.924 265.921 129.164 262.412 131.181C258.909 133.199 257.923 138.405 260.07 143.56C260.197 143.864 260.172 144.212 259.998 144.494C259.827 144.776 259.53 144.96 259.201 144.986C258.504 145.045 257.795 145.073 257.074 145.073H257.073ZM250.061 142.117C252.714 142.761 255.256 143.061 257.66 142.998C255.825 137.319 257.288 131.744 261.379 129.387C265.468 127.033 271.037 128.561 275.042 132.989C276.29 130.944 277.309 128.593 278.079 125.977C273.846 122.069 270.827 114.764 270.827 108.29C270.827 104.096 272.05 100.888 274.27 99.258C275.347 98.4673 276.58 98.1053 277.909 98.1837C277.037 94.3685 275.878 90.5267 274.451 86.7315C270.343 86.6798 264.952 82.1523 261.003 75.3094C257.046 68.4748 255.817 61.5485 257.828 57.9669C255.246 54.824 252.496 51.898 249.629 49.2456C249.035 50.4267 248.106 51.3125 246.888 51.8496C244.361 52.9607 240.967 52.4085 237.325 50.3099C231.713 47.0703 226.892 40.8029 225.623 35.1861C222.967 34.5405 220.43 34.2302 218.024 34.3003C219.86 39.9805 218.395 45.5556 214.304 47.9127C210.219 50.2665 204.651 48.7418 200.641 44.3111C199.394 46.3579 198.375 48.7068 197.604 51.3208C201.839 55.2294 204.86 62.5344 204.86 69.007C204.86 73.2042 203.637 76.4121 201.415 78.0419C200.338 78.8326 199.097 79.1896 197.776 79.1146C198.648 82.9314 199.807 86.7749 201.232 90.565C205.335 90.6168 210.728 95.1442 214.683 101.984C218.632 108.823 219.862 115.753 217.857 119.335C220.439 122.476 223.189 125.402 226.052 128.056C226.647 126.875 227.578 125.987 228.797 125.452C231.326 124.346 234.72 124.891 238.358 126.992C243.976 130.236 248.795 136.504 250.057 142.117H250.061ZM248.604 120.753C245.123 120.753 241.285 119.598 237.327 117.311C223.77 109.486 212.739 90.3932 212.739 74.7522C212.739 66.9568 215.423 61.1131 220.294 58.3005C225.171 55.4813 231.589 56.0818 238.36 59.9904C251.915 67.8159 262.947 86.9067 262.949 102.546C262.949 110.345 260.262 116.19 255.386 119.003C253.361 120.172 251.071 120.753 248.603 120.753H248.604ZM227.087 58.6192C224.972 58.6192 223.032 59.1079 221.329 60.0905C217.123 62.5194 214.808 67.7275 214.808 74.7522C214.808 89.7359 225.373 108.024 238.361 115.521C244.463 119.044 250.141 119.647 254.354 117.213C258.562 114.784 260.881 109.576 260.882 102.546C260.879 87.5656 250.312 69.2772 237.327 61.7804C233.691 59.6818 230.203 58.6192 227.087 58.6192Z" fill="#2A2A2A"/>
<path d="M217.964 92.8136C215.324 86.8364 213.777 80.559 213.777 74.757C213.781 62.7794 220.361 56.4069 229.578 57.8349C228.639 60.2571 228.1 63.1431 228.097 66.4878C228.097 72.2915 229.645 78.5655 232.285 84.5443L217.962 92.8152L217.964 92.8136Z" fill="#2A2A2A"/>
<path d="M217.956 93.8455C217.848 93.8455 217.739 93.8288 217.636 93.7938C217.355 93.702 217.13 93.4969 217.012 93.2283C214.215 86.9008 212.737 80.5116 212.737 74.7547C212.737 68.0619 214.692 62.8505 218.386 59.6843C221.38 57.1169 225.308 56.1177 229.729 56.81C230.039 56.8583 230.311 57.0435 230.466 57.3154C230.623 57.5857 230.648 57.9143 230.534 58.2062C229.6 60.6134 229.126 63.3993 229.123 66.4855C229.123 71.9488 230.541 78.0477 233.225 84.1233C233.437 84.6054 233.253 85.1726 232.796 85.4361L218.473 93.707C218.315 93.7988 218.134 93.8455 217.956 93.8455ZM227.085 58.67C224.236 58.67 221.726 59.5458 219.732 61.254C216.555 63.9765 214.805 68.7726 214.803 74.7547C214.803 79.9094 216.061 85.6196 218.445 91.3349L230.965 84.1066C228.404 78.0527 227.056 71.9788 227.056 66.4855C227.06 63.6579 227.432 61.0505 228.167 58.71C227.802 58.6833 227.438 58.67 227.083 58.67H227.085Z" fill="#2A2A2A"/>
<path d="M279.244 100.522C278.885 100.522 278.538 100.337 278.348 100.005C278.063 99.511 278.233 98.8788 278.727 98.5935L293.048 90.3226C293.542 90.0373 294.174 90.2075 294.459 90.7013C294.745 91.1951 294.574 91.8273 294.081 92.1126L279.761 100.383C279.598 100.477 279.421 100.522 279.246 100.522H279.244Z" fill="#2A2A2A"/>
<path d="M275.136 86.6916C274.777 86.6916 274.43 86.5064 274.24 86.1745C273.955 85.6807 274.125 85.0484 274.619 84.7632L288.942 76.4956C289.439 76.2103 290.069 76.3805 290.353 76.8743C290.638 77.3681 290.468 78.0003 289.974 78.2856L275.651 86.5531C275.488 86.6482 275.311 86.6916 275.136 86.6916Z" fill="#2A2A2A"/>
<path d="M279.244 126.674C278.885 126.674 278.538 126.488 278.348 126.156C278.063 125.663 278.233 125.03 278.727 124.745L293.048 116.474C293.542 116.189 294.174 116.359 294.459 116.853C294.745 117.347 294.574 117.979 294.081 118.264L279.761 126.535C279.598 126.628 279.421 126.674 279.246 126.674H279.244Z" fill="#2A2A2A"/>
<path d="M259.102 58.9416C258.743 58.9416 258.396 58.7564 258.206 58.4245C257.921 57.9307 258.091 57.2984 258.585 57.0132L272.905 48.7406C273.402 48.4537 274.032 48.6255 274.316 49.1193C274.601 49.6131 274.431 50.2453 273.937 50.5306L259.617 58.8031C259.454 58.8966 259.277 58.9416 259.102 58.9416Z" fill="#2A2A2A"/>
<path d="M249.172 48.4777C248.813 48.4777 248.466 48.2926 248.276 47.9606C247.991 47.4668 248.161 46.8346 248.655 46.5493L262.978 38.2784C263.473 37.9915 264.104 38.1633 264.389 38.6571C264.674 39.1509 264.504 39.7831 264.01 40.0684L249.687 48.3393C249.524 48.4327 249.347 48.4777 249.172 48.4777Z" fill="#2A2A2A"/>
<path d="M226.502 35.387C226.144 35.387 225.797 35.2019 225.607 34.8699C225.321 34.3761 225.492 33.7439 225.985 33.4586L240.308 25.1877C240.804 24.8991 241.437 25.0726 241.719 25.5664C242.005 26.0602 241.834 26.6924 241.341 26.9777L227.018 35.2486C226.854 35.342 226.677 35.387 226.502 35.387Z" fill="#2A2A2A"/>
<path d="M261.882 130.292C265.904 127.98 271.487 129.977 275.131 134.736C275.128 134.731 275.123 134.726 275.114 134.72L259.102 143.965C256.8 138.438 257.862 132.606 261.882 130.292Z" fill="#2A2A2A"/>
<path d="M259.099 144.992C258.987 144.992 258.875 144.975 258.769 144.937C258.487 144.842 258.26 144.63 258.145 144.354C255.593 138.227 256.947 131.933 261.364 129.389C265.781 126.847 271.912 128.83 275.949 134.1C275.989 134.153 276.026 134.208 276.054 134.267C276.292 134.744 276.129 135.323 275.677 135.605C275.604 135.65 275.529 135.685 275.45 135.712L259.618 144.853C259.459 144.945 259.279 144.992 259.101 144.992H259.099ZM262.395 131.181C259.144 133.054 258.061 137.675 259.639 142.451L273.537 134.427C270.186 130.687 265.642 129.307 262.395 131.181Z" fill="#2A2A2A"/>
<path d="M271.871 108.302C271.871 101.749 275.064 98.174 279.262 99.4935L287.031 95.0078C286.514 96.3857 286.191 98.0555 286.194 100.031C286.194 106.583 289.387 113.852 293.583 117.373L279.264 125.644C275.067 122.121 271.873 114.854 271.873 108.302H271.871Z" fill="#A9CBF7"/>
<path d="M279.257 126.669C279.019 126.669 278.784 126.587 278.592 126.427C274.095 122.652 270.831 115.025 270.831 108.292C270.831 104.098 272.053 100.89 274.273 99.2605C275.671 98.2362 277.336 97.9326 279.115 98.3713L286.508 94.1041C286.888 93.8889 287.362 93.929 287.694 94.2109C288.026 94.4928 288.146 94.9532 287.992 95.3636C287.479 96.7332 287.219 98.3013 287.222 100.023C287.222 106.202 290.174 113.162 294.242 116.576C294.501 116.793 294.636 117.122 294.608 117.459C294.578 117.794 294.388 118.096 294.096 118.263L279.776 126.534C279.616 126.627 279.437 126.672 279.259 126.672L279.257 126.669ZM277.573 100.245C276.812 100.245 276.118 100.472 275.499 100.927C273.848 102.14 272.901 104.826 272.901 108.292C272.901 114.191 275.598 120.809 279.387 124.367L291.851 117.17C287.912 113.158 285.155 106.215 285.155 100.023C285.155 99.0186 285.232 98.0544 285.389 97.1386L279.774 100.38C279.524 100.523 279.224 100.558 278.949 100.472C278.47 100.321 278.011 100.245 277.573 100.245Z" fill="#2A2A2A"/>
<path d="M279.247 125.648L293.567 117.377C292.606 120.877 291.229 123.921 289.462 126.472L275.139 134.743C276.907 132.194 278.283 129.148 279.247 125.648Z" fill="#2A2A2A"/>
<path d="M275.133 135.77C274.851 135.77 274.572 135.655 274.372 135.436C274.044 135.081 274.007 134.545 274.284 134.146C275.982 131.699 277.313 128.747 278.245 125.367C278.317 125.105 278.489 124.883 278.724 124.746L293.045 116.475C293.406 116.263 293.863 116.297 294.193 116.552C294.525 116.809 294.67 117.239 294.558 117.643C293.571 121.238 292.14 124.404 290.305 127.052C290.218 127.178 290.105 127.282 289.973 127.359L275.65 135.63C275.488 135.723 275.311 135.768 275.133 135.768V135.77ZM280.122 126.328C279.546 128.325 278.836 130.185 277.995 131.889L288.735 125.689C289.945 123.904 290.962 121.864 291.776 119.597L280.122 126.328Z" fill="#2A2A2A"/>
<path d="M222.304 258.966L208.796 251.164V246.631L243.616 226.531L257.12 234.328V238.861L222.304 258.966Z" fill="white"/>
<path d="M222.297 259.993C222.119 259.993 221.94 259.948 221.78 259.856L208.273 252.054C207.953 251.869 207.756 251.527 207.756 251.158V246.624C207.756 246.255 207.953 245.913 208.273 245.728L243.092 225.628C243.412 225.445 243.806 225.445 244.126 225.628L257.632 233.425C257.952 233.61 258.149 233.952 258.149 234.321V238.855C258.149 239.224 257.952 239.566 257.632 239.751L222.816 259.856C222.656 259.948 222.477 259.993 222.299 259.993H222.297ZM209.824 250.559L222.297 257.766L256.079 238.256V234.918L243.608 227.717L209.822 247.221V250.559H209.824Z" fill="#2A2A2A"/>
<path d="M222.304 258.962L208.796 251.16V246.627L222.304 254.428V258.962Z" fill="#A9CBF7"/>
<path d="M222.297 259.989C222.119 259.989 221.94 259.944 221.78 259.852L208.273 252.05C207.953 251.865 207.756 251.523 207.756 251.154V246.62C207.756 246.251 207.953 245.909 208.273 245.724C208.593 245.541 208.987 245.541 209.307 245.724L222.814 253.526C223.135 253.711 223.332 254.053 223.332 254.422V258.956C223.332 259.325 223.135 259.667 222.814 259.852C222.654 259.944 222.476 259.989 222.297 259.989ZM209.824 250.555L221.265 257.165V255.019L209.824 248.41V250.555Z" fill="#2A2A2A"/>
<path d="M222.301 254.433L257.117 234.33V238.862L222.301 258.967V254.433Z" fill="#2A2A2A"/>
<path d="M222.294 259.994C222.116 259.994 221.937 259.949 221.777 259.857C221.457 259.672 221.26 259.33 221.26 258.962V254.427C221.26 254.059 221.457 253.717 221.777 253.532L256.593 233.427C256.913 233.243 257.307 233.243 257.627 233.427C257.948 233.612 258.144 233.954 258.144 234.322V238.857C258.144 239.225 257.948 239.567 257.627 239.752L222.811 259.857C222.651 259.949 222.473 259.994 222.294 259.994ZM223.329 255.025V257.17L256.078 238.258V236.112L223.329 255.025Z" fill="#2A2A2A"/>
<path d="M60.3926 48.9254C66.8511 42.4661 66.8511 31.9935 60.3926 25.5342C53.9341 19.0748 43.4628 19.0748 37.0042 25.5342C30.5457 31.9935 30.5457 42.4661 37.0042 48.9254C43.4628 55.3847 53.9341 55.3847 60.3926 48.9254Z" fill="white"/>
<path d="M48.7041 54.8033C39.0147 54.8033 31.1318 46.9195 31.1318 37.2289C31.1318 27.5384 39.0147 19.6545 48.7041 19.6545C58.3934 19.6545 66.2763 27.5384 66.2763 37.2289C66.2763 46.9195 58.3934 54.8033 48.7041 54.8033ZM48.7041 21.7214C40.154 21.7214 33.1985 28.6778 33.1985 37.2289C33.1985 45.7801 40.154 52.7365 48.7041 52.7365C57.2542 52.7365 64.2097 45.7801 64.2097 37.2289C64.2097 28.6778 57.2542 21.7214 48.7041 21.7214Z" fill="#2A2A2A"/>
<path d="M48.6922 20.6812C48.035 20.6812 47.3928 20.7296 46.754 20.8046C53.486 21.9357 58.6284 27.751 58.6284 34.8091C58.6284 42.6696 52.2516 49.0505 44.3854 49.0505C40.082 49.0505 36.2673 47.0953 33.6553 44.0759C36.264 49.7895 42.0085 53.7631 48.6922 53.7631C57.8277 53.7631 65.2302 46.3547 65.2302 37.223C65.2302 28.0913 57.8277 20.6828 48.6922 20.6828V20.6812Z" fill="#A9CBF7"/>
<path d="M48.6857 54.7876C41.8353 54.7876 35.5637 50.7472 32.7081 44.4965C32.4946 44.0277 32.658 43.4756 33.09 43.197C33.5204 42.9184 34.0908 42.9985 34.4311 43.3905C36.9681 46.3248 40.5943 48.008 44.379 48.008C51.6614 48.008 57.5877 42.0826 57.5877 34.801C57.5877 28.3484 52.9557 22.8867 46.5774 21.8158C46.0703 21.7307 45.7033 21.2853 45.715 20.7715C45.7284 20.2577 46.1153 19.8306 46.6274 19.7706C47.3063 19.6905 47.9885 19.6404 48.6874 19.6404C58.3767 19.6404 66.2596 27.5243 66.2596 37.2148C66.2596 46.9054 58.3767 54.7892 48.6874 54.7892L48.6857 54.7876ZM38.4726 48.8572C41.2515 51.2977 44.8677 52.7207 48.6857 52.7207C57.2341 52.7207 64.1913 45.7643 64.1913 37.2132C64.1913 30.2601 59.591 24.3614 53.2743 22.3996C57.1791 25.1788 59.656 29.7247 59.656 34.801C59.656 43.2237 52.8023 50.0766 44.3806 50.0766C42.334 50.0766 40.3291 49.6545 38.4743 48.8572H38.4726Z" fill="#2A2A2A"/>
<path d="M96.2287 58.2634L88.4009 62.7809V133.18C88.4059 139.409 92.7827 146.98 98.1836 150.097L211.989 215.808C214.691 217.369 217.133 217.519 218.907 216.508L226.792 211.954L226.784 211.944C228.52 210.91 229.594 208.751 229.594 205.677V135.272L96.2304 58.2651L96.2287 58.2634Z" fill="#2A2A2A"/>
<path d="M216.364 218.182C214.838 218.182 213.17 217.683 211.464 216.699L97.6585 150.987C91.9857 147.713 87.3654 139.722 87.3604 133.176V62.7749C87.3604 62.4062 87.5572 62.0642 87.8774 61.879L95.7053 57.3616C96.0255 57.1764 96.4192 57.1764 96.7394 57.3616L230.103 134.369C230.424 134.554 230.62 134.896 230.62 135.264V205.669C230.62 208.929 229.499 211.431 227.458 212.73C227.409 212.774 227.358 212.81 227.301 212.844L219.416 217.4C218.499 217.922 217.468 218.184 216.366 218.184L216.364 218.182ZM89.427 63.3721V133.174C89.432 139.061 93.5886 146.25 98.6926 149.197L212.498 214.906C214.778 216.225 216.871 216.477 218.386 215.603L226.123 211.134C226.162 211.102 226.204 211.075 226.245 211.047C227.733 210.161 228.55 208.253 228.55 205.669V135.86L96.2207 59.4518L89.427 63.3737V63.3721Z" fill="#2A2A2A"/>
<path d="M88.4009 62.778V133.177C88.4059 139.406 92.7827 146.977 98.1836 150.095L211.989 215.805C217.391 218.927 221.768 216.409 221.768 210.189V139.785L88.4025 62.778H88.4009Z" fill="white"/>
<path d="M216.361 218.179C214.838 218.179 213.172 217.68 211.464 216.693L97.6585 150.984C91.9857 147.71 87.3654 139.719 87.3604 133.173V62.772C87.3604 62.4033 87.5572 62.0613 87.8774 61.8762C88.1977 61.691 88.5913 61.691 88.9116 61.8762L222.277 138.883C222.597 139.068 222.794 139.41 222.794 139.779V210.183C222.794 213.573 221.597 216.131 219.42 217.385C218.502 217.916 217.47 218.179 216.361 218.179ZM89.4287 64.5619V133.171C89.4337 139.058 93.5903 146.247 98.6943 149.194L212.499 214.903C214.783 216.224 216.874 216.468 218.389 215.595C219.899 214.726 220.728 212.802 220.728 210.183V140.375L89.4287 64.5619Z" fill="#2A2A2A"/>
<path d="M219.808 96.4434L106.006 30.7333C103.313 29.1769 100.872 29.0268 99.1043 30.0394L99.101 30.0343L91.2381 34.5785C89.4884 35.6061 88.4059 37.7764 88.4059 40.8726L88.4009 62.781L221.766 139.788L229.591 135.271V113.362C229.594 107.138 225.211 99.5613 219.806 96.4451L219.808 96.4434Z" fill="#8087E6"/>
<path d="M221.76 140.818C221.582 140.818 221.403 140.773 221.243 140.68L87.8774 63.6728C87.5572 63.4876 87.3604 63.1457 87.3604 62.777L87.3654 40.8686C87.3654 37.5022 88.553 34.9499 90.708 33.6837L98.5776 29.1346C98.6143 29.1129 98.6509 29.0945 98.691 29.0778C100.858 27.9034 103.628 28.167 106.516 29.8335L220.317 95.5436C226 98.8216 230.622 106.812 230.619 113.357V135.265C230.619 135.634 230.422 135.976 230.102 136.161L222.277 140.678C222.117 140.772 221.938 140.817 221.76 140.817V140.818ZM89.427 62.1814L221.76 138.59L228.552 134.669V113.357C228.555 107.47 224.397 100.283 219.285 97.3336L105.481 31.6268C103.206 30.3123 101.123 30.0671 99.6084 30.9345C99.5767 30.9512 99.5467 30.9679 99.5133 30.9812L91.7472 35.4703C90.2576 36.3461 89.432 38.2646 89.432 40.8686L89.427 62.1814Z" fill="#2A2A2A"/>
<path d="M221.776 139.793L229.6 135.275V113.367C229.6 110.287 228.525 106.884 226.788 103.848L193.153 123.269L221.776 139.794V139.793Z" fill="#2A2A2A"/>
<path d="M221.77 140.822C221.591 140.822 221.413 140.777 221.253 140.684L192.63 124.159C192.31 123.974 192.113 123.632 192.113 123.263C192.113 122.894 192.31 122.552 192.63 122.367L226.265 102.946C226.502 102.808 226.784 102.771 227.05 102.844C227.316 102.916 227.542 103.09 227.679 103.328C229.581 106.655 230.628 110.218 230.628 113.361V135.269C230.628 135.638 230.431 135.98 230.111 136.165L222.287 140.682C222.127 140.776 221.948 140.821 221.77 140.821V140.822ZM195.215 123.265L221.77 138.595L228.562 134.675V113.362C228.562 110.853 227.791 108.012 226.38 105.268L195.215 123.265Z" fill="#2A2A2A"/>
<path d="M221.768 117.879C221.765 111.655 217.388 104.08 211.984 100.967L98.182 35.2518C92.7793 32.1289 88.4059 34.6495 88.4059 40.8736L88.4009 62.7819L221.766 139.789L221.77 117.881L221.768 117.879Z" fill="#8087E6"/>
<path d="M221.76 140.814C221.581 140.814 221.403 140.769 221.243 140.676L87.8774 63.6684C87.5572 63.4833 87.3604 63.1413 87.3604 62.7726L87.3654 40.8642C87.3654 37.4728 88.563 34.9121 90.7397 33.656C92.9181 32.3982 95.7436 32.6417 98.6926 34.3483L212.494 100.063C218.172 103.331 222.792 111.32 222.796 117.871L222.792 139.78C222.792 140.148 222.596 140.49 222.275 140.676C222.115 140.769 221.937 140.814 221.758 140.814H221.76ZM89.427 62.1771L220.726 137.99L220.729 117.871C220.726 111.981 216.569 104.796 211.462 101.855L97.6585 36.1399C95.375 34.822 93.2867 34.5735 91.7722 35.4493C90.2626 36.3184 89.432 38.2435 89.432 40.8659L89.427 62.1787V62.1771Z" fill="#2A2A2A"/>
<path d="M161.932 88.6417C161.932 93.4711 158.538 95.4263 154.345 93.0024L128.014 77.7968C123.821 75.3746 120.426 69.4942 120.426 64.6698C120.423 59.8404 123.817 57.8853 128.014 60.3041L154.345 75.5097C158.536 77.9319 161.931 83.8073 161.932 88.6417Z" fill="white"/>
<path d="M157.738 95.0781C156.515 95.0781 155.184 94.6827 153.821 93.8953L127.49 78.6897C122.945 76.064 119.386 69.905 119.386 64.6669C119.386 61.9511 120.353 59.8942 122.115 58.875C123.884 57.854 126.158 58.0425 128.525 59.4054L154.857 74.611C159.399 77.2367 162.96 83.3974 162.962 88.6388C162.962 91.3563 161.991 93.4149 160.228 94.4308C159.479 94.8645 158.638 95.0781 157.739 95.0781H157.738ZM124.617 60.2962C124.071 60.2962 123.576 60.418 123.149 60.6666C122.055 61.2988 121.451 62.7201 121.452 64.6686C121.452 69.161 124.625 74.6477 128.523 76.8998L154.854 92.1053C156.55 93.0846 158.091 93.2764 159.192 92.6408C160.29 92.0086 160.892 90.5873 160.892 88.6388C160.889 84.1447 157.718 78.6547 153.821 76.401L127.49 61.1954C126.453 60.5982 125.472 60.2946 124.617 60.2946V60.2962Z" fill="#2A2A2A"/>
<path d="M154.94 88.5108C154.357 88.5108 153.737 88.3323 153.126 87.977C151.227 86.8743 149.739 84.2936 149.739 82.1033C149.739 80.8571 150.231 79.8562 151.093 79.3558C151.957 78.8587 153.078 78.927 154.164 79.5543C156.07 80.652 157.562 83.2327 157.562 85.4297C157.562 86.6808 157.065 87.6851 156.201 88.1822C155.82 88.4007 155.392 88.5091 154.94 88.5091V88.5108ZM152.364 81.0924C152.271 81.0924 152.191 81.109 152.129 81.1457C151.931 81.2609 151.805 81.6262 151.807 82.1016C151.807 83.5763 152.886 85.448 154.166 86.1904C154.584 86.4323 154.97 86.5123 155.17 86.3922C155.37 86.2771 155.495 85.9084 155.495 85.4313C155.495 83.98 154.391 82.0716 153.133 81.3459C152.843 81.1808 152.573 81.0924 152.364 81.0924Z" fill="#2A2A2A"/>
<path d="M149.42 87.2367C149.062 87.2367 148.713 87.0516 148.523 86.7179C148.239 86.2225 148.408 85.5919 148.903 85.3066L151.095 84.0472C151.592 83.7652 152.222 83.9321 152.506 84.4275C152.79 84.923 152.621 85.5535 152.126 85.8388L149.934 87.0983C149.77 87.1917 149.595 87.2351 149.42 87.2351V87.2367Z" fill="#2A2A2A"/>
<path d="M104.155 62.1661C103.798 62.1661 103.452 61.9809 103.26 61.6506L98.1823 52.8743C98.0456 52.6357 98.0072 52.3538 98.0789 52.0886C98.1506 51.8233 98.3241 51.5965 98.5626 51.4597L103.637 48.542C104.132 48.2601 104.763 48.4269 105.048 48.9223C105.331 49.4178 105.163 50.0484 104.667 50.3336L100.491 52.7358L105.049 60.6147C105.335 61.1101 105.166 61.7407 104.672 62.0277C104.509 62.1211 104.331 62.1661 104.155 62.1661Z" fill="#2A2A2A"/>
<path d="M109.044 59.1406C108.869 59.1406 108.692 59.0956 108.528 59.0022L98.5604 53.2519C98.0667 52.9667 97.8966 52.3344 98.1818 51.8406C98.4654 51.3485 99.0959 51.1767 99.5929 51.4619L109.561 57.2122C110.055 57.4975 110.225 58.128 109.939 58.6235C109.748 58.9538 109.401 59.1406 109.044 59.1406Z" fill="#2A2A2A"/>
<path d="M183.756 102.296C183.581 102.296 183.405 102.251 183.241 102.157L173.278 96.4069C172.784 96.1217 172.614 95.4894 172.9 94.9956C173.183 94.5035 173.817 94.3317 174.311 94.617L184.274 100.367C184.767 100.652 184.937 101.285 184.652 101.779C184.46 102.109 184.113 102.296 183.756 102.296Z" fill="#2A2A2A"/>
<path d="M178.772 105.161C178.201 105.161 177.738 104.697 177.738 104.127L177.741 92.6414C177.741 92.0709 178.205 91.6071 178.775 91.6071C179.346 91.6071 179.809 92.0709 179.809 92.6414L179.806 104.127C179.806 104.697 179.342 105.161 178.772 105.161Z" fill="#2A2A2A"/>
<path d="M204.171 119.835C203.992 119.835 203.814 119.79 203.654 119.697L194.526 114.425C194.206 114.24 194.009 113.898 194.009 113.529L194.013 105.846C194.013 105.475 194.209 105.135 194.53 104.95C194.85 104.765 195.244 104.765 195.564 104.95L204.691 110.216C205.011 110.401 205.208 110.743 205.208 111.112L205.205 118.801C205.205 119.171 205.006 119.511 204.688 119.697C204.528 119.79 204.349 119.835 204.171 119.835ZM196.076 112.934L203.136 117.011L203.14 111.709L196.079 107.634L196.076 112.932V112.934Z" fill="#2A2A2A"/>
<path d="M207.512 117.966C207.336 117.966 207.156 117.921 206.995 117.828L203.653 115.901C203.159 115.618 202.989 114.985 203.274 114.49C203.559 113.998 204.192 113.824 204.685 114.111L206.477 115.144L206.473 109.842L199.411 105.765V107.762C199.411 108.334 198.951 108.798 198.38 108.798C197.81 108.798 197.346 108.336 197.346 107.765L197.343 103.975C197.343 103.605 197.54 103.263 197.86 103.079C198.18 102.894 198.574 102.894 198.894 103.079L208.025 108.351C208.343 108.536 208.542 108.876 208.542 109.245L208.547 116.934C208.547 117.304 208.35 117.644 208.03 117.83C207.871 117.923 207.691 117.968 207.512 117.968V117.966Z" fill="#2A2A2A"/>
<path d="M115.526 204.885L22.4374 151.131C18.481 148.849 15.2734 143.299 15.2768 138.737L15.2734 102.949C15.2734 100.664 16.0724 99.0637 17.3701 98.3164L24.5358 94.1793C25.8301 93.4369 27.6199 93.547 29.5964 94.688L122.69 148.439L122.687 200.753L115.524 204.885H115.526Z" fill="#A9CBF7"/>
<path d="M115.52 205.916C115.341 205.916 115.163 205.871 115.003 205.779L21.914 152.024C17.6056 149.538 14.2346 143.701 14.2362 138.733L14.2329 102.947C14.2329 100.355 15.162 98.3913 16.8466 97.4187L24.0123 93.2816C25.6986 92.3141 27.8637 92.4942 30.1071 93.7904L123.201 147.541C123.521 147.726 123.718 148.068 123.718 148.437L123.715 200.752C123.715 201.122 123.516 201.462 123.197 201.647L116.035 205.779C115.875 205.871 115.697 205.916 115.518 205.916H115.52ZM26.3925 94.7363C25.8938 94.7363 25.4384 94.8481 25.0448 95.0733L17.8825 99.2104C16.8633 99.7992 16.3029 101.125 16.3029 102.949L16.3062 138.735C16.3029 142.962 19.2836 148.12 22.9498 150.234L115.521 203.691L121.651 200.153L121.655 149.033L29.0746 95.5804C28.1039 95.0199 27.1898 94.7363 26.3925 94.7363Z" fill="#2A2A2A"/>
<path d="M22.4374 151.135C18.481 148.853 15.2734 143.303 15.2768 138.741L15.2734 102.953C15.2734 98.3839 18.4793 96.5439 22.4374 98.826L115.528 152.58L115.524 204.888L22.4374 151.135Z" fill="white"/>
<path d="M115.52 205.92C115.341 205.92 115.163 205.875 115.003 205.784L21.914 152.028C17.6056 149.542 14.2346 143.705 14.2362 138.737L14.2329 102.951C14.2329 100.36 15.1603 98.397 16.8433 97.4261C18.5263 96.4536 20.6964 96.6271 22.9465 97.9299L116.038 151.684C116.359 151.869 116.556 152.211 116.556 152.58L116.552 204.888C116.552 205.256 116.355 205.598 116.035 205.784C115.875 205.875 115.697 205.92 115.518 205.92H115.52ZM19.2319 98.8758C18.7281 98.8758 18.2728 98.9892 17.8775 99.2161C16.8617 99.8033 16.3012 101.129 16.3012 102.951L16.3045 138.737C16.3012 142.964 19.2819 148.122 22.9481 150.236L114.486 203.094L114.489 153.172L21.914 99.7199C20.9432 99.1594 20.0292 98.8758 19.2319 98.8758Z" fill="#2A2A2A"/>
<path d="M183.792 241.885C182.493 242.63 180.705 242.522 178.726 241.381L115.538 204.891L115.535 152.583L122.697 148.447L185.887 184.937C189.842 187.221 193.048 192.766 193.044 197.329V233.123C193.046 235.435 192.215 237.04 190.883 237.772L190.891 237.782L183.79 241.883L183.792 241.885Z" fill="#A9CBF7"/>
<path d="M181.921 243.39C180.758 243.39 179.492 243.013 178.203 242.271L115.015 205.78C114.694 205.595 114.497 205.253 114.497 204.885L114.494 152.577C114.494 152.208 114.691 151.866 115.011 151.681L122.174 147.546C122.494 147.36 122.887 147.36 123.208 147.546L186.398 184.036C190.704 186.521 194.075 192.358 194.072 197.323L194.075 233.117C194.075 235.661 193.175 237.591 191.535 238.579C191.493 238.614 191.448 238.644 191.402 238.672L184.301 242.773H184.298C183.58 243.185 182.778 243.39 181.919 243.39H181.921ZM116.566 204.286L179.237 240.477C180.818 241.393 182.249 241.565 183.27 240.981L190.229 236.964C190.276 236.924 190.327 236.891 190.381 236.859C191.43 236.283 192.009 234.952 192.009 233.117L192.005 197.323C192.009 193.099 189.028 187.942 185.365 185.826L122.692 149.636L116.562 153.174L116.566 204.289V204.286Z" fill="#2A2A2A"/>
<path d="M193.042 197.33V233.125C193.044 235.437 192.213 237.042 190.88 237.774L190.889 237.784L183.788 241.885C182.489 242.63 180.701 242.522 178.722 241.381L140.404 219.257L190.849 190.129C192.195 192.411 193.045 194.998 193.042 197.33Z" fill="#2A2A2A"/>
<path d="M181.917 243.389C180.753 243.389 179.488 243.012 178.199 242.269L139.88 220.146C139.56 219.96 139.363 219.618 139.363 219.25C139.363 218.881 139.56 218.539 139.88 218.354L190.325 189.226C190.817 188.944 191.444 189.109 191.733 189.596C193.243 192.158 194.072 194.901 194.07 197.323L194.073 233.116C194.073 235.66 193.173 237.59 191.533 238.577C191.491 238.612 191.446 238.643 191.399 238.671L184.299 242.771C183.58 243.183 182.776 243.389 181.919 243.389H181.917ZM142.464 219.248L179.231 240.476C180.813 241.392 182.247 241.564 183.266 240.98L190.223 236.963C190.27 236.923 190.322 236.889 190.375 236.858C191.424 236.282 192.003 234.951 192.003 233.116L192 197.321C192.003 195.535 191.453 193.513 190.444 191.543L142.462 219.25L142.464 219.248Z" fill="#2A2A2A"/>
<path d="M178.726 241.376L115.538 204.886L115.535 152.578L178.723 189.068C182.679 191.352 185.885 196.897 185.885 201.463V237.252C185.885 241.813 182.683 243.661 178.725 241.376H178.726Z" fill="#A9CBF7"/>
<path d="M181.924 243.388C180.762 243.388 179.496 243.011 178.203 242.266L115.015 205.776C114.694 205.59 114.497 205.248 114.497 204.88L114.494 152.572C114.494 152.203 114.691 151.861 115.011 151.676C115.331 151.491 115.725 151.491 116.045 151.676L179.234 188.166C183.54 190.652 186.913 196.487 186.913 201.457V237.246C186.913 239.835 185.986 241.798 184.303 242.771C183.587 243.183 182.783 243.39 181.924 243.39V243.388ZM116.566 204.283L179.237 240.474C180.817 241.391 182.248 241.565 183.269 240.979C184.286 240.392 184.846 239.066 184.846 237.246V201.457C184.846 197.229 181.866 192.071 178.201 189.958L116.564 154.364L116.567 204.284L116.566 204.283Z" fill="#2A2A2A"/>
<path d="M40.3413 127.969C36.8252 125.939 33.9746 127.575 33.9746 131.632C33.9746 135.689 36.8252 140.615 40.3413 142.649C43.8574 144.679 46.7047 143.039 46.708 138.986C46.708 134.932 43.8574 129.999 40.3413 127.969ZM66.6021 143.131C63.0843 141.101 60.2304 142.737 60.2337 146.798C60.2337 150.851 63.081 155.779 66.5971 157.808C70.1149 159.84 72.9655 158.201 72.9655 154.146C72.9655 150.091 70.1182 145.16 66.6021 143.129V143.131ZM92.8578 158.293C89.3417 156.263 86.4895 157.9 86.4911 161.96C86.4911 166.012 89.3417 170.943 92.8578 172.973C96.3706 175.003 99.2212 173.364 99.2212 169.31C99.2212 165.256 96.374 160.323 92.8578 158.293Z" fill="#2A2A2A"/>
<path d="M95.6987 174.879C94.6446 174.879 93.5003 174.54 92.3344 173.865C88.4747 171.638 85.4506 166.405 85.4506 161.956C85.4506 159.612 86.293 157.832 87.8258 156.948C89.362 156.059 91.3286 156.219 93.3669 157.395C97.2249 159.622 100.247 164.855 100.247 169.306C100.247 171.649 99.4017 173.428 97.8688 174.314C97.2133 174.692 96.481 174.879 95.6971 174.879H95.6987ZM90.0076 158.451C89.5806 158.451 89.1953 158.546 88.8617 158.739C87.9943 159.24 87.5189 160.382 87.5189 161.957C87.5189 165.614 90.1977 170.246 93.3685 172.076C94.738 172.867 95.9706 173.027 96.8363 172.524C97.7037 172.025 98.1807 170.882 98.1807 169.307C98.1807 165.651 95.5036 161.016 92.3344 159.186C91.4887 158.699 90.6964 158.451 90.0076 158.451ZM69.4413 159.717C68.3871 159.717 67.2412 159.377 66.072 158.701C62.2139 156.474 59.1915 151.244 59.1915 146.795C59.1915 144.451 60.0322 142.671 61.5651 141.787C63.1029 140.901 65.0712 141.058 67.1094 142.234C70.9675 144.461 73.9899 149.694 73.9899 154.145C73.9899 156.489 73.1459 158.266 71.613 159.151C70.9575 159.53 70.2236 159.719 69.4396 159.719L69.4413 159.717ZM63.7501 143.288C63.3215 143.288 62.9361 143.384 62.6025 143.577C61.7352 144.078 61.2598 145.22 61.2615 146.793C61.2615 150.448 63.9386 155.079 67.1078 156.911C68.4789 157.703 69.7098 157.86 70.5822 157.36C71.4479 156.859 71.9249 155.718 71.9249 154.143C71.9249 150.487 69.2478 145.853 66.0786 144.022C65.233 143.535 64.439 143.287 63.7501 143.287V143.288ZM43.1839 144.555C42.1297 144.555 40.9855 144.216 39.8179 143.54C35.9581 141.308 32.9341 136.077 32.9341 131.63C32.9341 129.286 33.7781 127.507 35.311 126.622C36.8505 125.736 38.8171 125.896 40.8503 127.07C44.7101 129.297 47.7341 134.53 47.7341 138.981C47.7341 141.327 46.8868 143.105 45.3539 143.989C44.6984 144.368 43.9645 144.555 43.1822 144.555H43.1839ZM37.4927 128.126C37.064 128.126 36.6804 128.22 36.3468 128.413C35.4794 128.914 35.0041 130.056 35.0041 131.631C35.0041 135.348 37.6278 139.889 40.8537 141.752C42.2231 142.543 43.4541 142.7 44.3231 142.201C45.1904 141.7 45.6675 140.558 45.6692 138.983C45.6692 135.328 42.9904 130.694 39.8195 128.864C38.9739 128.377 38.1816 128.128 37.4944 128.128L37.4927 128.126Z" fill="#2A2A2A"/>
<path d="M174.584 217.825L171.276 205.961L167.433 206.432L164.903 202.274L160.873 201.866L157.589 198.059L147.301 192.112C145.638 186.822 141.893 181.626 137.518 179.098C131.607 175.687 126.813 178.444 126.813 185.266C126.813 192.087 131.607 200.379 137.521 203.793C141.893 206.32 145.638 205.446 147.301 202.069L174.586 217.824L174.584 217.825ZM142.567 194.366C142.569 197.58 140.3 198.886 137.515 197.278C134.723 195.663 132.464 191.747 132.464 188.529C132.464 185.311 134.723 184.006 137.516 185.621C140.305 187.226 142.569 191.139 142.567 194.366Z" fill="white"/>
<path d="M174.578 218.857C174.399 218.857 174.221 218.812 174.061 218.72L147.666 203.478C146.819 204.714 145.663 205.578 144.275 205.998C142.124 206.651 139.608 206.2 136.998 204.687C130.808 201.116 125.772 192.403 125.772 185.266C125.772 181.586 127.067 178.812 129.419 177.454C131.777 176.089 134.831 176.358 138.029 178.203C142.364 180.709 146.305 185.865 148.155 191.417L158.098 197.164C158.2 197.222 158.288 197.295 158.363 197.384L161.379 200.88L165 201.247C165.322 201.279 165.611 201.463 165.777 201.738L167.961 205.326L171.143 204.936C171.644 204.882 172.126 205.191 172.264 205.685L175.572 217.549C175.685 217.953 175.54 218.386 175.21 218.642C175.025 218.787 174.801 218.86 174.576 218.86L174.578 218.857ZM147.293 201.036C147.473 201.036 147.651 201.082 147.81 201.172L172.901 215.662L170.513 207.093L167.551 207.456C167.145 207.508 166.753 207.313 166.543 206.969L164.281 203.251L160.762 202.892C160.5 202.866 160.256 202.739 160.085 202.54L156.914 198.865L146.777 193.007C146.552 192.878 146.385 192.668 146.307 192.421C144.662 187.19 141.006 182.312 136.995 179.993C134.463 178.532 132.136 178.268 130.453 179.244C128.768 180.216 127.839 182.357 127.839 185.266C127.839 191.745 132.411 199.654 138.03 202.897C140.134 204.113 142.087 204.507 143.673 204.02C144.833 203.67 145.762 202.839 146.365 201.613C146.492 201.358 146.719 201.164 146.993 201.081C147.091 201.051 147.191 201.036 147.293 201.036ZM139.764 199.004C138.891 199.004 137.949 198.727 136.991 198.173C133.869 196.366 131.425 192.131 131.425 188.529C131.425 186.587 132.132 185.109 133.419 184.369C134.71 183.626 136.347 183.753 138.029 184.727C141.153 186.524 143.598 190.759 143.595 194.366C143.595 196.303 142.888 197.779 141.602 198.525C141.046 198.847 140.426 199.005 139.765 199.005L139.764 199.004ZM135.247 185.963C134.946 185.963 134.678 186.028 134.451 186.159C133.841 186.511 133.492 187.375 133.492 188.529C133.492 191.365 135.569 194.962 138.025 196.383C139.026 196.96 139.95 197.085 140.566 196.733C141.176 196.38 141.528 195.517 141.527 194.366V194.363C141.53 191.523 139.453 187.932 136.995 186.517C136.361 186.15 135.757 185.963 135.247 185.963Z" fill="#2A2A2A"/>
</svg>
