<svg width="36" height="28" viewBox="0 0 36 28" fill="none" xmlns="http://www.w3.org/2000/svg">
<path d="M3.77506 23.0688C4.0841 23.0688 4.38685 23.1618 4.64382 23.3351C4.90078 23.5089 5.10166 23.7561 5.21956 24.0449C5.33803 24.3336 5.36893 24.6519 5.30884 24.9585C5.24875 25.2652 5.09938 25.547 4.88075 25.7682C4.66213 25.9894 4.38342 26.1402 4.0801 26.2008C3.77677 26.262 3.462 26.2303 3.17642 26.1107C2.89084 25.9912 2.64646 25.7885 2.47477 25.528C2.30308 25.2681 2.21094 24.962 2.21094 24.6495C2.21094 24.2302 2.37576 23.8277 2.66878 23.5314C2.96181 23.2346 3.36013 23.0682 3.77448 23.0682L3.77506 23.0688Z" fill="#2E3BE3"/>
<path d="M29.0611 6.00324C29.0473 5.85539 28.9935 5.71505 28.9048 5.59607C27.0248 3.08089 24.3287 1.25413 21.3132 0.45308C21.0848 0.393016 20.8525 0.33815 20.6035 0.286749C20.4936 0.263647 20.3774 0.241123 20.2584 0.219754C20.0518 0.182214 19.8269 0.147561 19.5705 0.113487C18.3938 -0.0378289 17.2006 -0.0378289 16.0233 0.113487C15.7669 0.148139 15.542 0.182791 15.336 0.219754C15.2152 0.241123 15.0991 0.263647 14.9909 0.286749C14.7425 0.338727 14.5101 0.393016 14.2807 0.453658C11.2652 1.25528 8.56902 3.08204 6.68899 5.59723C6.60028 5.71562 6.54648 5.85654 6.53275 6.00439C6.51901 6.15224 6.54648 6.30067 6.61173 6.43351C6.67697 6.56634 6.77769 6.67781 6.90246 6.75635C7.02722 6.8349 7.17087 6.8759 7.31795 6.87648H8.1747C8.29145 6.8759 8.40877 6.84818 8.5135 6.79736C8.61881 6.74653 8.71324 6.67088 8.78649 6.5802C9.87388 5.2432 11.2663 4.14529 12.8144 3.40604C14.3619 2.66679 16.084 2.27637 17.7952 2.27637H17.7986C19.5098 2.27637 21.2319 2.66679 22.7794 3.40604C24.3275 4.14529 25.7199 5.2432 26.8068 6.57962C26.8806 6.67145 26.975 6.74653 27.0797 6.79736C27.185 6.84818 27.3024 6.87532 27.4197 6.87648H28.2759C28.423 6.87648 28.566 6.8349 28.6914 6.75635C28.8161 6.67781 28.9169 6.56634 28.9821 6.43351C29.0473 6.30067 29.0748 6.15224 29.0611 6.00439V6.00324Z" fill="#2E3BE3"/>
<path d="M28.8533 21.7423C28.7881 21.6083 28.6874 21.4951 28.562 21.4166C28.4367 21.3375 28.2925 21.2959 28.1454 21.2959H27.2766C27.1622 21.2965 27.0471 21.323 26.9435 21.3721C26.8399 21.4212 26.7467 21.494 26.6734 21.5818C25.5866 22.8726 24.2079 23.9301 22.6856 24.641C21.1649 25.3508 19.4766 25.7262 17.8021 25.7262H17.7969V25.8417H17.7958V25.8411V25.7256H17.79C16.1155 25.7256 14.4272 25.3508 12.9071 24.641C11.3853 23.9306 10.0061 22.8726 8.91984 21.5829C8.84658 21.4946 8.75272 21.4218 8.64914 21.3721C8.54555 21.323 8.43051 21.2965 8.31491 21.2959H7.44786C7.30021 21.2959 7.15541 21.3375 7.03008 21.4166C6.90474 21.4957 6.80401 21.6083 6.73934 21.7429C6.67467 21.8769 6.64835 22.0265 6.66323 22.1749C6.67811 22.3233 6.73419 22.4643 6.82519 22.5827C8.69778 25.0066 11.3499 26.771 14.2932 27.5507C14.5405 27.6153 14.7683 27.6685 14.9892 27.7135C15.0985 27.7366 15.2147 27.7591 15.3343 27.7805C15.5403 27.8181 15.7652 27.8527 16.0222 27.8868C16.6105 27.9624 17.2029 28 17.7952 28C18.3875 28 18.9804 27.9624 19.5693 27.8868C19.8257 27.8527 20.0507 27.8181 20.2567 27.7805C20.3769 27.7591 20.493 27.7366 20.6018 27.7135C20.8238 27.6679 21.0516 27.6148 21.2989 27.5501C24.2422 26.771 26.8949 25.0066 28.7681 22.5821C28.8585 22.4637 28.9146 22.3228 28.93 22.1743C28.9449 22.0253 28.9186 21.8757 28.8539 21.7418L28.8533 21.7423Z" fill="#2E3BE3"/>
<path d="M0 9.23872H1.98877C2.03455 9.23872 2.07862 9.2572 2.11124 9.29012C2.14387 9.32304 2.16218 9.36751 2.16218 9.41429V12.8622C2.16218 12.909 2.18049 12.9535 2.21311 12.9864C2.24574 13.0193 2.2898 13.0378 2.33559 13.0378H5.62235C5.66814 13.0378 5.7122 13.0193 5.74483 12.9864C5.77745 12.9535 5.79576 12.909 5.79576 12.8622V9.41429C5.79576 9.36751 5.81408 9.32304 5.8467 9.29012C5.87932 9.2572 5.92339 9.23872 5.96917 9.23872H7.95794C8.00373 9.23872 8.04837 9.2572 8.08042 9.29012C8.11304 9.32304 8.13135 9.36751 8.13135 9.41429V18.7612C8.13135 18.8074 8.11304 18.8524 8.08042 18.8854C8.04779 18.9183 8.00373 18.9368 7.95794 18.9368H5.96917C5.92339 18.9368 5.87875 18.9183 5.8467 18.8854C5.81408 18.8524 5.79576 18.808 5.79576 18.7612V15.1198C5.79576 15.0736 5.77745 15.0286 5.74483 14.9956C5.7122 14.9627 5.66814 14.9442 5.62235 14.9442H2.33559C2.2898 14.9442 2.24574 14.9627 2.21311 14.9956C2.18049 15.0286 2.16218 15.073 2.16218 15.1198V18.7612C2.16218 18.8074 2.14387 18.8524 2.11124 18.8854C2.07862 18.9183 2.03455 18.9368 1.98877 18.9368H0" fill="#2A2A2A"/>
<path d="M15.9425 17.2226H12.6122C12.5761 17.2226 12.5407 17.2342 12.5115 17.2555C12.4823 17.2769 12.46 17.3069 12.4485 17.3416L11.9546 18.8161C11.9432 18.8507 11.9208 18.8807 11.8917 18.9021C11.8625 18.9235 11.827 18.935 11.7904 18.935H9.71631C9.68827 18.935 9.6608 18.9281 9.63619 18.9154C9.61158 18.9021 9.59041 18.8836 9.57438 18.8605C9.55836 18.8374 9.54806 18.8109 9.54462 18.7831C9.54062 18.7554 9.54405 18.7265 9.55321 18.7005L12.8961 9.35422C12.9081 9.32014 12.9304 9.29069 12.9596 9.27047C12.9888 9.24968 13.0237 9.23871 13.0592 9.23871H15.5224C15.5579 9.23871 15.5928 9.24968 15.622 9.27047C15.6511 9.29126 15.6735 9.32072 15.6855 9.35422L19.0289 18.7005C19.0386 18.7271 19.0415 18.7554 19.0375 18.7831C19.0335 18.8109 19.0238 18.8374 19.0077 18.8605C18.9917 18.8836 18.9705 18.9027 18.9459 18.9154C18.9213 18.9287 18.8938 18.935 18.8658 18.935H16.7654C16.7294 18.935 16.6939 18.9235 16.6641 18.9021C16.6344 18.8807 16.6126 18.8507 16.6012 18.8161L16.1073 17.3416C16.0958 17.3069 16.0735 17.2769 16.0443 17.2555C16.0146 17.2342 15.9797 17.2226 15.943 17.2226H15.9425ZM15.3885 15.1672L14.443 12.3436C14.4316 12.3083 14.4098 12.2777 14.3801 12.2564C14.3503 12.2344 14.3148 12.2229 14.2782 12.2229C14.2416 12.2229 14.2061 12.2344 14.1763 12.2564C14.1465 12.2783 14.1248 12.3083 14.1134 12.3436L13.1788 15.1672C13.1702 15.1937 13.1673 15.2214 13.1719 15.2492C13.1759 15.2769 13.1868 15.3029 13.2028 15.3254C13.2188 15.3479 13.24 15.3664 13.2646 15.3791C13.2892 15.3918 13.3161 15.3982 13.3436 15.3982H15.2242C15.2517 15.3982 15.2791 15.3912 15.3032 15.3785C15.3278 15.3658 15.349 15.3473 15.365 15.3248C15.381 15.3023 15.3913 15.2757 15.3959 15.2486C15.3999 15.2209 15.3976 15.1931 15.3885 15.1666" fill="#2E3BE3"/>
<path d="M27.0905 13.8999C26.8164 14.3833 26.4078 14.7749 25.9156 15.0255C25.3049 15.3299 24.629 15.4772 23.9486 15.4535H22.674C22.6283 15.4535 22.5842 15.472 22.5516 15.5049C22.5189 15.5378 22.5006 15.5823 22.5006 15.6291V18.7599C22.5006 18.8061 22.4823 18.8511 22.4497 18.8841C22.4171 18.917 22.373 18.9355 22.3272 18.9355H20.3384C20.2927 18.9355 20.2486 18.917 20.216 18.8841C20.1834 18.8511 20.165 18.8067 20.165 18.7599V9.41299C20.165 9.36621 20.1834 9.32174 20.216 9.28882C20.2486 9.2559 20.2927 9.23742 20.3384 9.23742H23.9486C24.617 9.21721 25.2815 9.35466 25.8881 9.63881C26.3855 9.87733 26.7998 10.2626 27.0768 10.7436C27.3469 11.238 27.4837 11.7953 27.4728 12.3602C27.4791 12.8984 27.3475 13.4286 27.0911 13.9005M24.7681 13.2577C24.8814 13.1393 24.969 12.9984 25.0257 12.8436C25.0823 12.6888 25.1058 12.5242 25.096 12.3596C25.1063 12.195 25.0823 12.0304 25.0257 11.8756C24.969 11.7208 24.8814 11.5799 24.7681 11.4615C24.5495 11.2496 24.217 11.1439 23.7712 11.1439H22.674C22.6283 11.1439 22.5836 11.1624 22.5516 11.1953C22.5189 11.2282 22.5006 11.2727 22.5006 11.3195V13.3998C22.5006 13.4465 22.5189 13.491 22.5516 13.5239C22.5842 13.5568 22.6283 13.5753 22.674 13.5753H23.77C24.2164 13.5753 24.5483 13.4696 24.767 13.2577" fill="#2A2A2A"/>
<path d="M35.6163 13.8999C35.3422 14.3833 34.9336 14.7749 34.4414 15.0255C33.8307 15.3299 33.1548 15.4772 32.4744 15.4535H31.1998C31.154 15.4535 31.11 15.472 31.0774 15.5049C31.0447 15.5378 31.0264 15.5823 31.0264 15.6291V18.7599C31.0264 18.8061 31.0081 18.8511 30.9755 18.8841C30.9429 18.917 30.8988 18.9355 30.853 18.9355H28.8648C28.819 18.9355 28.7744 18.917 28.7423 18.8841C28.7097 18.8511 28.6914 18.8067 28.6914 18.7599V9.41299C28.6914 9.36621 28.7097 9.32174 28.7423 9.28882C28.775 9.2559 28.819 9.23742 28.8648 9.23742H32.4749C33.1434 9.21721 33.8078 9.35466 34.4151 9.63881C34.9124 9.87733 35.3267 10.2626 35.6037 10.7436C35.8739 11.238 36.0107 11.7953 35.9998 12.3602C36.0061 12.8984 35.8744 13.4286 35.618 13.9005M33.295 13.2577C33.4084 13.1393 33.4959 12.9984 33.5526 12.8436C33.6092 12.6888 33.6327 12.5242 33.623 12.3596C33.6333 12.195 33.6092 12.0304 33.5526 11.8756C33.4959 11.7208 33.4084 11.5799 33.295 11.4615C33.0764 11.2501 32.7439 11.1439 32.2981 11.1439H31.201C31.1552 11.1439 31.1111 11.1624 31.0785 11.1953C31.0459 11.2282 31.0276 11.2727 31.0276 11.3195V13.3998C31.0276 13.4465 31.0459 13.491 31.0785 13.5239C31.1111 13.5568 31.1552 13.5753 31.201 13.5753H32.2981C32.7439 13.5753 33.0764 13.4691 33.295 13.2577Z" fill="#2A2A2A"/>
</svg>
