<svg width="89" height="69" viewBox="0 0 89 69" fill="none" xmlns="http://www.w3.org/2000/svg">
<path d="M9.33579 56.8452C10.0999 56.8452 10.8484 57.0743 11.4837 57.5012C12.119 57.9296 12.6156 58.5387 12.9071 59.2503C13.2 59.9619 13.2764 60.746 13.1278 61.5017C12.9793 62.2574 12.61 62.9519 12.0695 63.497C11.529 64.042 10.8399 64.4135 10.09 64.5629C9.34004 64.7138 8.56182 64.6355 7.85576 64.3409C7.1497 64.0463 6.54552 63.5468 6.12104 62.9049C5.69656 62.2645 5.46875 61.5103 5.46875 60.7403C5.46875 59.7071 5.87625 58.7152 6.60071 57.9851C7.32516 57.2536 8.30996 56.8438 9.33438 56.8438L9.33579 56.8452Z" fill="#272830"/>
<path d="M71.847 14.7929C71.8131 14.4286 71.6801 14.0828 71.4608 13.7896C66.8127 7.59179 60.1469 3.09037 52.6915 1.11646C52.1269 0.968453 51.5525 0.833254 50.937 0.706594C50.6653 0.649668 50.3781 0.594165 50.0838 0.541508C49.573 0.449004 49.0169 0.363615 48.383 0.279649C45.4739 -0.0932163 42.5237 -0.0932163 39.6132 0.279649C38.9793 0.365038 38.4232 0.450427 37.9138 0.541508C37.6153 0.594165 37.328 0.649668 37.0606 0.706594C36.4465 0.834677 35.8721 0.968453 35.3047 1.11788C27.8493 3.09322 21.1835 7.59464 16.5354 13.7925C16.3161 14.0842 16.1831 14.4315 16.1492 14.7958C16.1152 15.1601 16.1831 15.5259 16.3444 15.8532C16.5057 16.1805 16.7548 16.4552 17.0632 16.6487C17.3717 16.8423 17.7268 16.9433 18.0905 16.9447H20.2086C20.4973 16.9433 20.7873 16.875 21.0463 16.7498C21.3066 16.6245 21.5401 16.4381 21.7212 16.2147C24.4096 12.9201 27.8522 10.2147 31.6796 8.39303C35.5056 6.57139 39.7632 5.60934 43.9938 5.60934H44.0023C48.233 5.60934 52.4906 6.57139 56.3166 8.39303C60.144 10.2147 63.5866 12.9201 66.2736 16.2132C66.4561 16.4395 66.6896 16.6245 66.9485 16.7498C67.2088 16.875 67.4989 16.9419 67.789 16.9447H69.9057C70.2694 16.9447 70.6231 16.8423 70.933 16.6487C71.2414 16.4552 71.4905 16.1805 71.6518 15.8532C71.8131 15.5259 71.881 15.1601 71.847 14.7958V14.7929Z" fill="#2E3BE3"/>
<path d="M71.3326 53.5767C71.1713 53.2465 70.9222 52.9675 70.6124 52.774C70.3025 52.579 69.9459 52.4766 69.5823 52.4766H67.4344C67.1514 52.478 66.867 52.5435 66.6109 52.6644C66.3548 52.7854 66.1242 52.9647 65.9431 53.181C63.2561 56.3618 59.8475 58.9676 56.0837 60.7194C52.3242 62.4685 48.1501 63.3935 44.01 63.3935H43.9973V63.6782H43.9944V63.6768V63.3921H43.9803C39.8402 63.3921 35.6661 62.4685 31.908 60.7194C28.1457 58.969 24.7356 56.3618 22.0501 53.1839C21.869 52.9661 21.6369 52.7868 21.3808 52.6644C21.1247 52.5435 20.8403 52.478 20.5545 52.4766H18.4108C18.0458 52.4766 17.6878 52.579 17.3779 52.774C17.0681 52.969 16.819 53.2465 16.6591 53.5781C16.4992 53.9082 16.4342 54.2768 16.4709 54.6426C16.5077 55.0083 16.6464 55.3556 16.8714 55.6473C21.5011 61.6203 28.0579 65.968 35.335 67.8893C35.9462 68.0487 36.5094 68.1796 37.0556 68.2906C37.3258 68.3475 37.613 68.403 37.9088 68.4557C38.4181 68.5482 38.9742 68.6336 39.6095 68.7175C41.0641 68.904 42.5286 68.9965 43.993 68.9965C45.4575 68.9965 46.9234 68.904 48.3794 68.7175C49.0132 68.6336 49.5693 68.5482 50.0787 68.4557C50.3758 68.403 50.6631 68.3475 50.9319 68.2906C51.4809 68.1782 52.0441 68.0472 52.6553 67.8879C59.9324 65.968 66.4906 61.6203 71.1218 55.6459C71.3453 55.3542 71.484 55.0069 71.5222 54.6412C71.559 54.274 71.4939 53.9054 71.334 53.5752L71.3326 53.5767Z" fill="#2E3BE3"/>
<path d="M0 22.7656H4.91693C5.03013 22.7656 5.13908 22.8112 5.21973 22.8923C5.30038 22.9734 5.34566 23.083 5.34566 23.1983V31.6945C5.34566 31.8097 5.39094 31.9193 5.47159 32.0004C5.55224 32.0816 5.66119 32.1271 5.77439 32.1271H13.9004C14.0136 32.1271 14.1226 32.0816 14.2032 32.0004C14.2839 31.9193 14.3291 31.8097 14.3291 31.6945V23.1983C14.3291 23.083 14.3744 22.9734 14.4551 22.8923C14.5357 22.8112 14.6447 22.7656 14.7579 22.7656H19.6748C19.788 22.7656 19.8984 22.8112 19.9776 22.8923C20.0583 22.9734 20.1035 23.083 20.1035 23.1983V46.2305C20.1035 46.3444 20.0583 46.4554 19.9776 46.5365C19.8969 46.6176 19.788 46.6632 19.6748 46.6632H14.7579C14.6447 46.6632 14.5343 46.6176 14.4551 46.5365C14.3744 46.4554 14.3291 46.3458 14.3291 46.2305V37.2576C14.3291 37.1437 14.2839 37.0327 14.2032 36.9516C14.1226 36.8705 14.0136 36.8249 13.9004 36.8249H5.77439C5.66119 36.8249 5.55224 36.8705 5.47159 36.9516C5.39094 37.0327 5.34566 37.1423 5.34566 37.2576V46.2305C5.34566 46.3444 5.30038 46.4554 5.21973 46.5365C5.13908 46.6176 5.03013 46.6632 4.91693 46.6632H0" fill="#272830"/>
<path d="M39.4155 42.4392H31.1819C31.0928 42.4392 31.0051 42.4677 30.9329 42.5204C30.8607 42.573 30.8056 42.647 30.7773 42.7324L29.5562 46.3657C29.5279 46.4511 29.4727 46.5251 29.4005 46.5778C29.3284 46.6304 29.2406 46.6589 29.1501 46.6589H24.0223C23.953 46.6589 23.8851 46.6418 23.8242 46.6105C23.7634 46.5778 23.711 46.5322 23.6714 46.4753C23.6318 46.4184 23.6063 46.3529 23.5978 46.2846C23.5879 46.2163 23.5964 46.1451 23.6191 46.0811L31.8838 23.0503C31.9135 22.9663 31.9686 22.8937 32.0408 22.8439C32.113 22.7927 32.1993 22.7656 32.287 22.7656H38.3769C38.4647 22.7656 38.551 22.7927 38.6231 22.8439C38.6953 22.8951 38.7505 22.9677 38.7802 23.0503L47.0463 46.0811C47.0703 46.1466 47.0774 46.2163 47.0675 46.2846C47.0576 46.3529 47.0336 46.4184 46.9939 46.4753C46.9543 46.5322 46.902 46.5792 46.8411 46.6105C46.7803 46.6432 46.7124 46.6589 46.643 46.6589H41.4502C41.3611 46.6589 41.2733 46.6304 41.1997 46.5778C41.1262 46.5251 41.0724 46.4511 41.0441 46.3657L39.823 42.7324C39.7947 42.647 39.7395 42.573 39.6674 42.5204C39.5938 42.4677 39.5075 42.4392 39.4169 42.4392H39.4155ZM38.0458 37.3743L35.7083 30.4165C35.68 30.3297 35.6263 30.2542 35.5527 30.2016C35.4791 30.1475 35.3914 30.119 35.3008 30.119C35.2103 30.119 35.1226 30.1475 35.049 30.2016C34.9754 30.2557 34.9216 30.3297 34.8933 30.4165L32.5827 37.3743C32.5615 37.4397 32.5544 37.508 32.5658 37.5763C32.5757 37.6447 32.6025 37.7087 32.6422 37.7642C32.6818 37.8197 32.7341 37.8652 32.795 37.8966C32.8558 37.9279 32.9223 37.9435 32.9902 37.9435H37.6397C37.7077 37.9435 37.7756 37.9264 37.835 37.8951C37.8958 37.8638 37.9482 37.8183 37.9878 37.7628C38.0274 37.7073 38.0529 37.6418 38.0642 37.5749C38.0741 37.5066 38.0685 37.4383 38.0458 37.3728" fill="#2E3BE3"/>
<path d="M66.9816 34.2517C66.3039 35.4429 65.2936 36.4078 64.0767 37.0254C62.567 37.7754 60.8959 38.1383 59.2136 38.08H56.0625C55.9493 38.08 55.8403 38.1255 55.7597 38.2066C55.679 38.2878 55.6338 38.3973 55.6338 38.5126V46.2275C55.6338 46.3414 55.5885 46.4524 55.5078 46.5335C55.4272 46.6146 55.3182 46.6601 55.205 46.6601H50.2881C50.1749 46.6601 50.066 46.6146 49.9853 46.5335C49.9047 46.4524 49.8594 46.3428 49.8594 46.2275V23.1952C49.8594 23.08 49.9047 22.9704 49.9853 22.8893C50.066 22.8081 50.1749 22.7626 50.2881 22.7626H59.2136C60.8662 22.7128 62.509 23.0515 64.0088 23.7517C65.2384 24.3395 66.2628 25.2887 66.9477 26.4742C67.6155 27.6924 67.9537 29.0657 67.9268 30.4576C67.9424 31.784 67.6169 33.0904 66.983 34.2531M61.2398 32.6692C61.5199 32.3774 61.7364 32.0302 61.8765 31.6488C62.0166 31.2674 62.0746 30.8618 62.0505 30.4562C62.076 30.0506 62.0166 29.645 61.8765 29.2636C61.7364 28.8822 61.5199 28.5349 61.2398 28.2432C60.6993 27.7209 59.8772 27.4604 58.7749 27.4604H56.0625C55.9493 27.4604 55.8389 27.506 55.7597 27.5871C55.679 27.6682 55.6338 27.7778 55.6338 27.8931V33.0193C55.6338 33.1345 55.679 33.2441 55.7597 33.3252C55.8403 33.4063 55.9493 33.4519 56.0625 33.4519H58.7721C59.8758 33.4519 60.6964 33.1915 61.2369 32.6692" fill="#272830"/>
<path d="M88.0505 34.2517C87.3728 35.4429 86.3625 36.4078 85.1456 37.0254C83.6359 37.7754 81.9648 38.1383 80.2825 38.08H77.1314C77.0182 38.08 76.9092 38.1255 76.8286 38.2066C76.7479 38.2878 76.7027 38.3973 76.7027 38.5126V46.2275C76.7027 46.3414 76.6574 46.4524 76.5767 46.5335C76.4961 46.6146 76.3871 46.6601 76.2739 46.6601H71.3584C71.2452 46.6601 71.1349 46.6146 71.0556 46.5335C70.975 46.4524 70.9297 46.3428 70.9297 46.2275V23.1952C70.9297 23.08 70.975 22.9704 71.0556 22.8893C71.1363 22.8081 71.2452 22.7626 71.3584 22.7626H80.2839C81.9365 22.7128 83.5793 23.0515 85.0805 23.7517C86.3101 24.3395 87.3346 25.2887 88.0194 26.4742C88.6872 27.6924 89.0254 29.0657 88.9985 30.4576C89.0141 31.784 88.6887 33.0904 88.0548 34.2531M82.3115 32.6692C82.5917 32.3774 82.8081 32.0302 82.9482 31.6488C83.0883 31.2674 83.1463 30.8618 83.1223 30.4562C83.1477 30.0506 83.0883 29.645 82.9482 29.2636C82.8081 28.8822 82.5917 28.5349 82.3115 28.2432C81.771 27.7223 80.9489 27.4604 79.8467 27.4604H77.1342C77.021 27.4604 76.9121 27.506 76.8314 27.5871C76.7508 27.6682 76.7055 27.7778 76.7055 27.8931V33.0193C76.7055 33.1345 76.7508 33.2441 76.8314 33.3252C76.9121 33.4063 77.021 33.4519 77.1342 33.4519H79.8467C80.9489 33.4519 81.771 33.19 82.3115 32.6692Z" fill="#272830"/>
</svg>
