<svg width="206" height="159" viewBox="0 0 206 159" fill="none" xmlns="http://www.w3.org/2000/svg">
<path d="M21.5128 130.995C23.2736 130.995 24.9984 131.523 26.4625 132.507C27.9265 133.494 29.0709 134.897 29.7426 136.537C30.4176 138.177 30.5937 139.984 30.2513 141.725C29.9089 143.467 29.0579 145.067 27.8123 146.323C26.5668 147.579 24.9789 148.435 23.2507 148.78C21.5226 149.127 19.7293 148.947 18.1022 148.268C16.4752 147.589 15.0829 146.438 14.1047 144.959C13.1265 143.483 12.6016 141.745 12.6016 139.971C12.6016 137.59 13.5406 135.304 15.2101 133.622C16.8795 131.936 19.1489 130.992 21.5096 130.992L21.5128 130.995Z" fill="#272830"/>
<path d="M165.566 34.089C165.488 33.2495 165.181 32.4526 164.676 31.777C153.965 17.4946 138.604 7.12149 121.424 2.57279C120.123 2.23172 118.799 1.92016 117.381 1.62828C116.754 1.4971 116.093 1.3692 115.414 1.24786C114.237 1.03469 112.956 0.837919 111.495 0.644427C104.791 -0.214809 97.9929 -0.214809 91.2858 0.644427C89.825 0.841199 88.5436 1.03797 87.3698 1.24786C86.6818 1.3692 86.0199 1.4971 85.4036 1.62828C83.9885 1.92344 82.6647 2.23172 81.3572 2.57607C64.177 7.12805 48.8162 17.5012 38.1051 31.7835C37.5997 32.4558 37.2932 33.256 37.215 34.0956C37.1367 34.9352 37.2932 35.778 37.6649 36.5323C38.0366 37.2866 38.6105 37.9195 39.3213 38.3655C40.0321 38.8116 40.8506 39.0444 41.6885 39.0477H46.5697C47.2348 39.0444 47.9033 38.887 48.5 38.5984C49.0999 38.3098 49.6379 37.8802 50.0553 37.3653C56.2505 29.7732 64.1835 23.5388 73.0035 19.341C81.8202 15.1432 91.6314 12.9263 101.381 12.9263H101.4C111.149 12.9263 120.961 15.1432 129.777 19.341C138.597 23.5388 146.53 29.7732 152.722 37.362C153.143 37.8835 153.681 38.3098 154.278 38.5984C154.878 38.887 155.546 39.0411 156.214 39.0477H161.092C161.93 39.0477 162.745 38.8116 163.46 38.3655C164.17 37.9195 164.744 37.2866 165.116 36.5323C165.488 35.778 165.644 34.9352 165.566 34.0956V34.089Z" fill="#2E3BE3"/>
<path d="M164.381 123.463C164.009 122.702 163.435 122.059 162.721 121.613C162.007 121.164 161.185 120.928 160.347 120.928H155.398C154.745 120.931 154.09 121.082 153.5 121.361C152.91 121.639 152.378 122.053 151.961 122.551C145.769 129.881 137.914 135.886 129.241 139.923C120.577 143.953 110.959 146.085 101.418 146.085H101.389V146.741H101.382V146.738V146.082H101.35C91.809 146.082 82.1902 143.953 73.53 139.923C64.86 135.889 57.0019 129.881 50.8133 122.558C50.3959 122.056 49.8612 121.643 49.271 121.361C48.6808 121.082 48.0254 120.931 47.3668 120.928H42.427C41.5857 120.928 40.7608 121.164 40.0467 121.613C39.3326 122.062 38.7588 122.702 38.3903 123.466C38.0219 124.227 37.8719 125.076 37.9567 125.919C38.0414 126.762 38.361 127.562 38.8794 128.235C49.5482 141.999 64.6579 152.018 81.4272 156.445C82.8358 156.812 84.1335 157.114 85.3921 157.37C86.0149 157.501 86.6768 157.629 87.3583 157.75C88.5321 157.963 89.8135 158.16 91.2775 158.354C94.6295 158.783 98.0042 158.996 101.379 158.996C104.754 158.996 108.132 158.783 111.487 158.354C112.948 158.16 114.229 157.963 115.403 157.75C116.088 157.629 116.749 157.501 117.369 157.37C118.634 157.111 119.932 156.809 121.34 156.442C138.11 152.018 153.223 141.999 163.895 128.231C164.41 127.559 164.729 126.759 164.818 125.916C164.902 125.07 164.752 124.22 164.384 123.46L164.381 123.463Z" fill="#2E3BE3"/>
<path d="M0 52.4614H11.3306C11.5915 52.4614 11.8426 52.5664 12.0284 52.7533C12.2143 52.9402 12.3186 53.1928 12.3186 53.4584V73.0372C12.3186 73.3028 12.423 73.5553 12.6088 73.7423C12.7947 73.9292 13.0457 74.0342 13.3066 74.0342H32.0323C32.2932 74.0342 32.5442 73.9292 32.7301 73.7423C32.9159 73.5553 33.0203 73.3028 33.0203 73.0372V53.4584C33.0203 53.1928 33.1246 52.9402 33.3105 52.7533C33.4963 52.5664 33.7474 52.4614 34.0082 52.4614H45.3389C45.5997 52.4614 45.8541 52.5664 46.0367 52.7533C46.2225 52.9402 46.3269 53.1928 46.3269 53.4584V106.534C46.3269 106.797 46.2225 107.052 46.0367 107.239C45.8508 107.426 45.5997 107.531 45.3389 107.531H34.0082C33.7474 107.531 33.4931 107.426 33.3105 107.239C33.1246 107.052 33.0203 106.8 33.0203 106.534V85.8568C33.0203 85.5945 32.9159 85.3387 32.7301 85.1518C32.5442 84.9648 32.2932 84.8599 32.0323 84.8599H13.3066C13.0457 84.8599 12.7947 84.9648 12.6088 85.1518C12.423 85.3387 12.3186 85.5912 12.3186 85.8568V106.534C12.3186 106.797 12.2143 107.052 12.0284 107.239C11.8426 107.426 11.5915 107.531 11.3306 107.531H0" fill="#272830"/>
<path d="M90.829 97.7976H71.8555C71.6501 97.7976 71.4479 97.8632 71.2816 97.9845C71.1153 98.1059 70.9881 98.2764 70.9229 98.4732L68.109 106.846C68.0438 107.043 67.9166 107.213 67.7504 107.334C67.5841 107.456 67.3819 107.521 67.1732 107.521H55.3567C55.197 107.521 55.0405 107.482 54.9003 107.41C54.7601 107.334 54.6394 107.23 54.5481 107.098C54.4568 106.967 54.3981 106.816 54.3786 106.659C54.3557 106.501 54.3753 106.337 54.4275 106.19L73.4727 53.1173C73.5412 52.9238 73.6684 52.7566 73.8347 52.6418C74.001 52.5237 74.1999 52.4614 74.402 52.4614H88.4357C88.6379 52.4614 88.8368 52.5237 89.0031 52.6418C89.1694 52.7599 89.2965 52.9271 89.365 53.1173L108.414 106.19C108.469 106.341 108.485 106.501 108.462 106.659C108.44 106.816 108.384 106.967 108.293 107.098C108.202 107.23 108.081 107.338 107.941 107.41C107.801 107.485 107.644 107.521 107.484 107.521H95.5178C95.3124 107.521 95.1102 107.456 94.9406 107.334C94.7711 107.213 94.6472 107.043 94.582 106.846L91.7681 98.4732C91.7029 98.2764 91.5757 98.1059 91.4094 97.9845C91.2398 97.8632 91.0409 97.7976 90.8323 97.7976H90.829ZM87.6727 86.1258L82.2862 70.0922C82.221 69.8921 82.0971 69.7183 81.9275 69.597C81.758 69.4723 81.5558 69.4067 81.3471 69.4067C81.1385 69.4067 80.9363 69.4723 80.7667 69.597C80.5972 69.7216 80.4733 69.8921 80.4081 70.0922L75.0835 86.1258C75.0346 86.2766 75.0183 86.434 75.0444 86.5915C75.0672 86.7489 75.1291 86.8965 75.2204 87.0244C75.3117 87.1523 75.4324 87.2572 75.5726 87.3294C75.7128 87.4015 75.866 87.4376 76.0225 87.4376H86.7369C86.8934 87.4376 87.0499 87.3982 87.1869 87.3261C87.3271 87.2539 87.4478 87.149 87.5391 87.0211C87.6303 86.8932 87.689 86.7423 87.7151 86.5882C87.7379 86.4308 87.7249 86.2733 87.6727 86.1225" fill="#2E3BE3"/>
<path d="M154.353 78.9301C152.791 81.6751 150.463 83.8986 147.659 85.3219C144.18 87.0502 140.329 87.8865 136.452 87.752H129.191C128.93 87.752 128.679 87.857 128.493 88.0439C128.307 88.2308 128.203 88.4834 128.203 88.749V106.527C128.203 106.79 128.099 107.045 127.913 107.232C127.727 107.419 127.476 107.524 127.215 107.524H115.884C115.624 107.524 115.373 107.419 115.187 107.232C115.001 107.045 114.896 106.793 114.896 106.527V53.4514C114.896 53.1858 115.001 52.9333 115.187 52.7464C115.373 52.5594 115.624 52.4545 115.884 52.4545H136.452C140.261 52.3397 144.046 53.1202 147.503 54.7337C150.336 56.0882 152.697 58.2756 154.275 61.0075C155.814 63.8148 156.593 66.9795 156.531 70.1869C156.567 73.2434 155.817 76.254 154.356 78.9334M141.122 75.2833C141.767 74.611 142.266 73.8107 142.589 72.9318C142.912 72.0529 143.045 71.1183 142.99 70.1836C143.049 69.2489 142.912 68.3143 142.589 67.4354C142.266 66.5564 141.767 65.7562 141.122 65.0839C139.876 63.8803 137.982 63.2802 135.442 63.2802H129.191C128.93 63.2802 128.676 63.3851 128.493 63.5721C128.307 63.759 128.203 64.0115 128.203 64.2772V76.09C128.203 76.3557 128.307 76.6082 128.493 76.7951C128.679 76.9821 128.93 77.087 129.191 77.087H135.435C137.978 77.087 139.87 76.4868 141.115 75.2833" fill="#272830"/>
<path d="M202.905 78.9301C201.343 81.6751 199.015 83.8986 196.211 85.3219C192.732 87.0502 188.881 87.8865 185.004 87.752H177.742C177.482 87.752 177.231 87.857 177.045 88.0439C176.859 88.2308 176.754 88.4834 176.754 88.749V106.527C176.754 106.79 176.65 107.045 176.464 107.232C176.278 107.419 176.027 107.524 175.767 107.524H164.439C164.178 107.524 163.924 107.419 163.741 107.232C163.556 107.045 163.451 106.793 163.451 106.527V53.4514C163.451 53.1858 163.556 52.9333 163.741 52.7464C163.927 52.5594 164.178 52.4545 164.439 52.4545H185.007C188.816 52.3397 192.601 53.1202 196.061 54.7337C198.894 56.0882 201.255 58.2756 202.833 61.0075C204.372 63.8148 205.151 66.9795 205.089 70.1869C205.125 73.2434 204.375 76.254 202.914 78.9334M189.68 75.2833C190.325 74.611 190.824 73.8107 191.147 72.9318C191.47 72.0529 191.603 71.1183 191.548 70.1836C191.607 69.2489 191.47 68.3143 191.147 67.4354C190.824 66.5564 190.325 65.7562 189.68 65.0839C188.434 63.8836 186.54 63.2802 184 63.2802H177.749C177.488 63.2802 177.237 63.3851 177.051 63.5721C176.865 63.759 176.761 64.0115 176.761 64.2772V76.09C176.761 76.3557 176.865 76.6082 177.051 76.7951C177.237 76.9821 177.488 77.087 177.749 77.087H184C186.54 77.087 188.434 76.4836 189.68 75.2833Z" fill="#272830"/>
</svg>
