<svg width="309" height="265" viewBox="0 0 309 265" fill="none" xmlns="http://www.w3.org/2000/svg">
<path d="M37.0018 223.005C39.5708 223.005 42.0875 223.799 44.2235 225.278C46.3596 226.762 48.0294 228.872 49.0094 231.337C49.9942 233.802 50.2511 236.518 49.7516 239.136C49.252 241.754 48.0104 244.16 46.1931 246.048C44.3757 247.936 42.0589 249.223 39.5375 249.74C37.0161 250.263 34.3996 249.992 32.0257 248.971C29.6517 247.951 27.6203 246.22 26.1931 243.997C24.7659 241.778 24 239.165 24 236.498C24 232.919 25.3701 229.483 27.8059 226.954C30.2416 224.42 33.5528 223 36.9971 223L37.0018 223.005Z" fill="#8087E6"/>
<path d="M251.971 79.7616C251.854 78.536 251.398 77.3727 250.647 76.3866C234.712 55.5379 211.861 40.3956 186.302 33.7556C184.367 33.2578 182.398 32.803 180.288 32.3769C179.356 32.1854 178.372 31.9987 177.363 31.8216C175.612 31.5104 173.705 31.2232 171.532 30.9407C161.559 29.6864 151.446 29.6864 141.468 30.9407C139.295 31.2279 137.388 31.5152 135.642 31.8216C134.619 31.9987 133.634 32.1854 132.717 32.3769C130.612 32.8078 128.643 33.2578 126.698 33.7604C101.139 40.4052 78.2879 55.5474 62.3535 76.3961C61.6016 77.3775 61.1457 78.5456 61.0292 79.7712C60.9128 80.9967 61.1457 82.2271 61.6986 83.3281C62.2516 84.4292 63.1053 85.3532 64.1628 86.0042C65.2202 86.6553 66.4377 86.9952 67.6844 87H74.9458C75.9353 86.9952 76.9297 86.7654 77.8174 86.3441C78.7099 85.9229 79.5103 85.2957 80.1312 84.5441C89.3474 73.4615 101.149 64.3609 114.27 58.2331C127.386 52.1054 141.982 48.8691 156.485 48.8691H156.515C171.018 48.8691 185.614 52.1054 198.73 58.2331C211.851 64.3609 223.653 73.4615 232.864 84.5393C233.49 85.3005 234.29 85.9229 235.178 86.3441C236.07 86.7654 237.065 86.9904 238.059 87H245.316C246.562 87 247.775 86.6553 248.837 86.0042C249.895 85.3532 250.748 84.4292 251.301 83.3281C251.854 82.2271 252.087 80.9967 251.971 79.7712V79.7616Z" fill="#8087E6"/>
<path d="M250.311 212.729C249.755 211.61 248.896 210.664 247.827 210.008C246.757 209.347 245.527 209 244.273 209H236.862C235.886 209.005 234.905 209.227 234.021 209.637C233.138 210.047 232.342 210.655 231.717 211.388C222.447 222.17 210.687 231.003 197.702 236.942C184.731 242.871 170.33 246.007 156.046 246.007H156.002V246.972H155.993V246.967V246.002H155.944C141.66 246.002 127.259 242.871 114.293 236.942C101.313 231.008 89.5483 222.17 80.2829 211.398C79.6581 210.66 78.8575 210.052 77.9739 209.637C77.0903 209.227 76.1091 209.005 75.123 209H67.7273C66.4678 209 65.2328 209.347 64.1637 210.008C63.0946 210.669 62.2354 211.61 61.6838 212.734C61.1322 213.853 60.9076 215.103 61.0345 216.343C61.1614 217.582 61.6398 218.759 62.416 219.748C78.3888 239.996 101.01 254.734 126.117 261.247C128.226 261.787 130.169 262.231 132.053 262.607C132.985 262.8 133.976 262.988 134.997 263.167C136.754 263.48 138.673 263.77 140.864 264.054C145.883 264.686 150.935 265 155.988 265C161.04 265 166.098 264.686 171.121 264.054C173.308 263.77 175.226 263.48 176.984 263.167C178.009 262.988 179 262.8 179.927 262.607C181.822 262.226 183.764 261.782 185.873 261.242C210.98 254.734 233.606 239.996 249.584 219.744C250.355 218.755 250.834 217.578 250.965 216.338C251.092 215.093 250.868 213.844 250.316 212.724L250.311 212.729Z" fill="#8087E6"/>
<path d="M140.585 174.695H112.179C111.872 174.695 111.569 174.792 111.32 174.97C111.071 175.149 110.881 175.399 110.783 175.689L106.57 188.006C106.473 188.296 106.282 188.547 106.034 188.725C105.785 188.904 105.482 189 105.169 189H87.4786C87.2394 189 87.0051 188.942 86.7952 188.836C86.5852 188.725 86.4046 188.571 86.2679 188.378C86.1313 188.185 86.0434 187.963 86.0141 187.731C85.9799 187.5 86.0092 187.258 86.0873 187.041L114.601 108.965C114.703 108.68 114.894 108.434 115.143 108.265C115.392 108.092 115.689 108 115.992 108H137.002C137.305 108 137.603 108.092 137.852 108.265C138.101 108.439 138.291 108.685 138.394 108.965L166.912 187.041C166.995 187.263 167.019 187.5 166.985 187.731C166.951 187.963 166.868 188.185 166.731 188.378C166.595 188.571 166.414 188.73 166.204 188.836C165.994 188.947 165.76 189 165.521 189H147.605C147.298 189 146.995 188.904 146.741 188.725C146.487 188.547 146.302 188.296 146.204 188.006L141.991 175.689C141.894 175.399 141.703 175.149 141.454 174.97C141.2 174.792 140.903 174.695 140.59 174.695H140.585ZM135.86 157.524L127.796 133.937C127.698 133.643 127.513 133.387 127.259 133.208C127.005 133.025 126.702 132.929 126.39 132.929C126.077 132.929 125.775 133.025 125.521 133.208C125.267 133.392 125.081 133.643 124.984 133.937L117.012 157.524C116.939 157.746 116.915 157.978 116.954 158.209C116.988 158.441 117.081 158.658 117.217 158.846C117.354 159.034 117.535 159.189 117.744 159.295C117.954 159.401 118.184 159.454 118.418 159.454H134.459C134.693 159.454 134.928 159.396 135.133 159.29C135.343 159.184 135.523 159.03 135.66 158.842C135.797 158.653 135.884 158.431 135.923 158.205C135.958 157.973 135.938 157.741 135.86 157.52" fill="#8087E6"/>
<path d="M235.752 146.95C233.426 150.987 229.96 154.257 225.784 156.35C220.604 158.892 214.87 160.121 209.097 159.924H198.285C197.896 159.924 197.523 160.078 197.246 160.353C196.969 160.628 196.814 160.999 196.814 161.39V187.534C196.814 187.92 196.658 188.296 196.382 188.571C196.105 188.846 195.731 189 195.343 189H178.471C178.083 189 177.709 188.846 177.432 188.571C177.155 188.296 177 187.925 177 187.534V109.482C177 109.092 177.155 108.72 177.432 108.445C177.709 108.171 178.083 108.016 178.471 108.016H209.097C214.768 107.847 220.405 108.995 225.551 111.368C229.77 113.36 233.285 116.577 235.635 120.594C237.927 124.722 239.087 129.376 238.995 134.093C239.048 138.588 237.932 143.015 235.757 146.955M216.05 141.587C217.011 140.599 217.754 139.422 218.234 138.13C218.715 136.837 218.914 135.463 218.832 134.088C218.919 132.714 218.715 131.339 218.234 130.047C217.754 128.754 217.011 127.577 216.05 126.589C214.195 124.819 211.374 123.936 207.592 123.936H198.285C197.896 123.936 197.518 124.091 197.246 124.365C196.969 124.64 196.814 125.012 196.814 125.402V142.774C196.814 143.165 196.969 143.536 197.246 143.811C197.523 144.086 197.896 144.24 198.285 144.24H207.582C211.369 144.24 214.185 143.357 216.04 141.587" fill="#2A2A2A"/>
<path d="M274.436 93.5015C268.244 85.0547 260.847 76.9154 250.736 72.9296C243.015 69.8885 234.238 69.5084 225.702 70.3078C195.057 73.1868 167.332 90.2983 137.413 98.1805C113.032 104.604 87.0828 104.922 63.8856 114.845C36.9646 126.361 16.263 150.974 10.747 178.025C6.10198 200.8 12.3549 224.692 26.9432 242.301H297.421C313.399 191.615 305.175 135.411 274.436 93.4959V93.5015Z" fill="#8087E6"/>
<path d="M229.894 12.0546C220.023 20.3153 220.051 35.5028 229.585 44.1526C240.103 53.7016 254.608 58.9604 268.781 57.5357C278.374 56.5733 288.683 51.7275 291.584 42.5232C293.8 35.4926 290.969 27.5906 285.954 22.196C280.94 16.8015 274.056 13.5411 267.109 11.0984C256.686 7.42762 245.052 5.35859 234.682 9.1928C232.953 9.83104 231.359 10.8327 229.898 12.055L229.894 12.0546Z" fill="#8087E6"/>
<path d="M20.5494 65.1864C11.2147 59.6018 9.23274 46.9177 16.0439 38.4318C23.5586 29.0626 34.9758 22.7457 46.9903 22.0525C55.1247 21.5829 64.37 24.255 68.0101 31.5558C70.7904 37.1292 69.4729 44.1058 66.0003 49.2711C62.5277 54.4365 57.2127 58.0757 51.7358 61.0385C43.5177 65.4883 34.0825 68.7585 24.9209 66.9361C23.3967 66.6343 21.9284 66.0082 20.5494 65.1808V65.1864Z" fill="#8087E6"/>
<path d="M11.5172 217.587L11.3832 216.76L12.9967 216.503C-0.731829 187.327 3.96902 153.814 25.6309 126.752C37.7348 111.631 53.9198 100.042 72.4496 93.2388C92.297 85.9492 113.881 84.6634 134.861 89.5213L134.672 90.3375C113.847 85.5187 92.431 86.7877 72.7343 94.0214C54.3496 100.774 38.2875 112.268 26.2841 127.272C4.71156 154.239 0.11678 187.646 13.996 216.648L14.2361 217.157L11.5172 217.587Z" fill="#8087E6"/>
<path d="M63.7176 226.151C62.2772 218.498 58.6204 211.617 54.1652 206.032C52.2446 203.628 50.1231 201.392 47.6555 200.09C46.3323 199.391 44.8919 198.944 43.7976 197.742C41.7878 195.545 41.6817 191.783 41.2016 188.512C40.6433 184.705 39.281 180.926 36.9473 178.355C35.4623 176.723 33.1788 174.794 31.1634 175.42C25.6586 177.131 26.764 187.73 27.4954 193.152C28.4668 200.364 29.6951 210.392 35.8252 213.333C36.484 213.646 37.1762 213.914 37.7066 214.512C38.2761 215.155 38.5776 216.094 38.7451 217.028C39.4876 221.226 38.0025 226.235 40.325 229.433C41.503 231.059 43.3398 231.613 44.6183 233.117C46.6394 235.498 46.7119 239.478 48.1133 242.491L63.8628 242.536C65.0687 237.896 64.6388 231.059 63.7176 226.146V226.151Z" fill="#A9CBF7"/>
<path d="M48.9396 226.872C43.9261 226.157 38.5162 227.571 33.927 225.43C30.6386 223.893 28.3775 220.785 25.4018 218.705C22.4373 216.631 18.7413 215.619 15.1347 215.904C13.8172 216.005 12.4493 216.307 11.4556 217.173C9.71927 218.683 9.65227 221.344 9.98725 223.624C10.1771 224.938 10.473 226.274 11.2099 227.37C13.3147 230.484 18.0323 230.506 20.7512 233.111C23.1686 235.425 23.4031 239.115 24.4415 242.312H63.9131C63.6116 239.719 62.7574 237.186 61.3728 234.972C58.6651 230.646 53.9921 227.599 48.9451 226.878L48.9396 226.872Z" fill="white"/>
<path d="M64.5332 242.866H24.0288L23.906 242.48C23.6212 241.602 23.3923 240.686 23.1746 239.797C22.5772 237.376 22.0133 235.09 20.3608 233.508C19.2219 232.412 17.6251 231.78 16.0842 231.166C14.0744 230.366 12.0031 229.539 10.7469 227.683C9.92066 226.459 9.61918 224.983 9.42936 223.703C8.9548 220.455 9.5131 218.118 11.0875 216.748C12.0143 215.943 13.3263 215.485 15.0905 215.345C18.8534 215.049 22.6275 216.078 25.7204 218.247C26.9431 219.102 28.0485 220.131 29.1205 221.126C30.7395 222.629 32.2692 224.044 34.1619 224.927C36.9143 226.213 39.9626 226.162 43.1895 226.112C45.11 226.084 47.0976 226.051 49.0237 226.324C54.2493 227.074 59.0451 230.193 61.8478 234.676C63.2491 236.918 64.1535 239.534 64.4662 242.245L64.5387 242.871L64.5332 242.866ZM24.8439 241.748H63.2658C62.9141 239.422 62.099 237.192 60.8931 235.263C58.2635 231.059 53.7636 228.13 48.8562 227.426C47.0194 227.163 45.0765 227.191 43.2007 227.224C39.9905 227.275 36.6742 227.331 33.6873 225.939C31.6328 224.983 29.9691 223.434 28.3556 221.942C27.3116 220.975 26.2341 219.974 25.0728 219.163C22.2367 217.173 18.6245 216.195 15.1742 216.463C13.6333 216.586 12.567 216.944 11.8133 217.598C10.5459 218.699 10.1161 220.695 10.5292 223.541C10.6967 224.698 10.9647 226.017 11.6625 227.057C12.7233 228.628 14.5545 229.36 16.4862 230.131C18.1276 230.785 19.8248 231.462 21.1201 232.708C23.0071 234.514 23.6324 237.069 24.2465 239.534C24.4308 240.272 24.615 241.027 24.8327 241.753L24.8439 241.748Z" fill="#2C1B42"/>
<path d="M45.0713 242.173C45.0713 242.173 42.0956 235.28 33.9054 233.413C25.7152 231.551 18.0889 222.232 18.0889 222.232" fill="white"/>
<path d="M44.5576 242.391C44.5297 242.324 41.5819 235.727 33.7825 233.955C25.503 232.071 17.9715 222.97 17.6533 222.585L18.5187 221.875C18.5913 221.964 26.1227 231.065 34.0281 232.865C42.397 234.771 45.4565 241.653 45.5849 241.949L44.5576 242.391Z" fill="#2C1B42"/>
<path d="M269.411 242.1C269.545 242.15 270.17 237.147 270.193 236.862C270.913 227.867 268.283 219.432 262.276 214.333C260.78 213.064 254.119 207.703 252.88 211.41C250.702 217.906 260.3 238.64 269.411 242.106V242.1Z" fill="#A9CBF7"/>
<path d="M269.155 241.966C264.761 239.607 267.061 229.243 268.033 225.905C270.154 218.655 274.799 212.215 281.27 208.274C283.676 206.809 292.598 201.04 294.546 205.585C297.148 211.667 291.453 220.762 288.343 225.587C285.814 229.511 282.855 233.206 279.433 236.392C277.283 238.399 274.057 242.721 270.757 242.424C270.143 242.368 269.613 242.212 269.155 241.966Z" fill="white"/>
<path d="M271.092 243C270.963 243 270.841 243 270.712 242.983C270.042 242.922 269.434 242.748 268.898 242.458C263.622 239.623 267.094 227.163 267.507 225.749C269.746 218.101 274.531 211.728 280.99 207.799L281.376 207.564C283.866 206.032 289.705 202.443 293.055 203.511C293.987 203.807 294.669 204.433 295.065 205.367C297.856 211.885 291.749 221.344 288.818 225.888C286.11 230.087 283.078 233.759 279.818 236.8C279.394 237.197 278.913 237.7 278.405 238.226C276.362 240.361 273.844 242.994 271.092 242.994V243ZM269.422 241.474C269.824 241.692 270.293 241.82 270.813 241.871C273.169 242.078 275.631 239.517 277.601 237.46C278.121 236.918 278.612 236.404 279.059 235.984C282.252 233.01 285.222 229.41 287.88 225.285C290.487 221.243 296.595 211.779 294.038 205.808C293.77 205.177 293.334 204.774 292.715 204.579C289.845 203.667 284.117 207.189 281.956 208.514L281.565 208.754C275.346 212.539 270.729 218.688 268.574 226.062C267.267 230.534 265.76 239.506 269.422 241.468V241.474Z" fill="#2C1B42"/>
<path d="M269.411 242.1C269.411 242.1 273.783 219.437 287.556 210.868L269.411 242.1Z" fill="white"/>
<path d="M269.959 242.206L268.864 241.994C268.875 241.938 270.003 236.197 272.806 229.483C275.408 223.261 280.025 214.898 287.26 210.392L287.852 211.343C274.442 219.689 270.003 241.983 269.959 242.206Z" fill="#2C1B42"/>
<path d="M275.832 224.284C275.832 224.284 281.041 221.673 286.998 220.371L275.832 224.284Z" fill="white"/>
<path d="M276.083 224.782L275.586 223.781C275.636 223.753 280.929 221.126 286.88 219.823L287.12 220.913C281.303 222.188 276.139 224.754 276.083 224.782Z" fill="#2C1B42"/>
<path d="M163.793 242.307C208.937 242.307 245.533 206.336 245.533 161.965C245.533 117.593 208.937 81.6224 163.793 81.6224C118.649 81.6224 82.0527 117.593 82.0527 161.965C82.0527 206.336 118.649 242.307 163.793 242.307Z" fill="#A9CBF7"/>
<path d="M163.793 242.866C118.414 242.866 81.4941 206.574 81.4941 161.965C81.4941 117.355 118.414 81.0634 163.793 81.0634C209.171 81.0634 246.091 117.355 246.091 161.965C246.091 206.574 209.171 242.866 163.793 242.866ZM163.793 82.1814C119.028 82.1814 82.6107 117.97 82.6107 161.965C82.6107 205.959 119.028 241.748 163.793 241.748C208.557 241.748 244.974 205.959 244.974 161.965C244.974 117.97 208.557 82.1814 163.793 82.1814Z" fill="#2C1B42"/>
<path d="M149.947 242.307C195.091 242.307 231.687 205.663 231.687 160.461C231.687 115.259 195.091 78.6149 149.947 78.6149C104.803 78.6149 68.207 115.259 68.207 160.461C68.207 205.663 104.803 242.307 149.947 242.307Z" fill="white"/>
<path d="M149.947 242.866C104.569 242.866 67.6484 205.898 67.6484 160.461C67.6484 115.024 104.569 78.0558 149.947 78.0558C195.325 78.0558 232.245 115.024 232.245 160.461C232.245 205.898 195.325 242.866 149.947 242.866ZM149.947 79.1739C105.183 79.1739 68.765 115.639 68.765 160.461C68.765 205.283 105.183 241.748 149.947 241.748C194.711 241.748 231.129 205.283 231.129 160.461C231.129 115.639 194.711 79.1739 149.947 79.1739Z" fill="#2C1B42"/>
<path d="M146.033 197.054C142.773 201.772 135.867 201.951 132.372 197.401L107.79 165.403C105.534 162.468 106.082 158.253 109.018 155.994C111.949 153.736 116.159 154.284 118.414 157.224L138.87 183.85L181.29 122.464C183.394 119.418 187.57 118.657 190.613 120.765C193.656 122.872 194.415 127.054 192.31 130.101L146.044 197.06L146.033 197.054Z" fill="#A9CBF7"/>
<path d="M309 241.748H0V242.866H309V241.748Z" fill="#2C1B42"/>
</svg>
