<svg width="377" height="235" viewBox="0 0 377 235" fill="none" xmlns="http://www.w3.org/2000/svg">
<path d="M67.0018 193.005C69.5708 193.005 72.0875 193.799 74.2235 195.278C76.3596 196.762 78.0294 198.872 79.0094 201.337C79.9942 203.802 80.2511 206.518 79.7516 209.136C79.252 211.754 78.0104 214.16 76.1931 216.048C74.3757 217.936 72.0589 219.223 69.5375 219.74C67.0161 220.263 64.3996 219.992 62.0257 218.971C59.6517 217.951 57.6203 216.22 56.1931 213.997C54.7659 211.778 54 209.165 54 206.498C54 202.919 55.3701 199.483 57.8059 196.954C60.2416 194.42 63.5528 193 66.9971 193L67.0018 193.005Z" fill="#8087E6"/>
<path d="M281.971 49.7616C281.854 48.536 281.398 47.3727 280.647 46.3866C264.712 25.5379 241.861 10.3956 216.302 3.75564C214.367 3.25776 212.398 2.80296 210.288 2.37689C209.356 2.1854 208.372 1.9987 207.363 1.82157C205.612 1.51039 203.705 1.22316 201.532 0.940705C191.559 -0.313568 181.446 -0.313568 171.468 0.940705C169.295 1.22794 167.388 1.51518 165.642 1.82157C164.619 1.9987 163.634 2.1854 162.717 2.37689C160.612 2.80775 158.643 3.25776 156.698 3.76042C131.139 10.4052 108.288 25.5474 92.3535 46.3961C91.6016 47.3775 91.1457 48.5456 91.0292 49.7712C90.9128 50.9967 91.1457 52.2271 91.6986 53.3281C92.2516 54.4292 93.1053 55.3532 94.1628 56.0042C95.2202 56.6553 96.4377 56.9952 97.6844 57H104.946C105.935 56.9952 106.93 56.7654 107.817 56.3441C108.71 55.9229 109.51 55.2957 110.131 54.5441C119.347 43.4615 131.149 34.3609 144.27 28.2331C157.386 22.1054 171.982 18.8691 186.485 18.8691H186.515C201.018 18.8691 215.614 22.1054 228.73 28.2331C241.851 34.3609 253.653 43.4615 262.864 54.5393C263.49 55.3005 264.29 55.9229 265.178 56.3441C266.07 56.7654 267.065 56.9904 268.059 57H275.316C276.562 57 277.775 56.6553 278.837 56.0042C279.895 55.3532 280.748 54.4292 281.301 53.3281C281.854 52.2271 282.087 50.9967 281.971 49.7712V49.7616Z" fill="#8087E6"/>
<path d="M280.311 182.729C279.755 181.61 278.896 180.664 277.827 180.008C276.757 179.347 275.527 179 274.273 179H266.862C265.886 179.005 264.905 179.227 264.021 179.637C263.138 180.047 262.342 180.655 261.717 181.388C252.447 192.17 240.687 201.003 227.702 206.942C214.731 212.871 200.33 216.007 186.046 216.007H186.002V216.972H185.993V216.967V216.002H185.944C171.66 216.002 157.259 212.871 144.293 206.942C131.313 201.008 119.548 192.17 110.283 181.398C109.658 180.66 108.857 180.052 107.974 179.637C107.09 179.227 106.109 179.005 105.123 179H97.7273C96.4678 179 95.2328 179.347 94.1637 180.008C93.0946 180.669 92.2354 181.61 91.6838 182.734C91.1322 183.853 90.9076 185.103 91.0345 186.343C91.1614 187.582 91.6398 188.759 92.416 189.748C108.389 209.996 131.01 224.734 156.117 231.247C158.226 231.787 160.169 232.231 162.053 232.607C162.985 232.8 163.976 232.988 164.997 233.167C166.754 233.48 168.673 233.77 170.864 234.054C175.883 234.686 180.935 235 185.988 235C191.04 235 196.098 234.686 201.121 234.054C203.308 233.77 205.226 233.48 206.984 233.167C208.009 232.988 209 232.8 209.927 232.607C211.822 232.226 213.764 231.782 215.873 231.242C240.98 224.734 263.606 209.996 279.584 189.744C280.355 188.755 280.834 187.578 280.965 186.338C281.092 185.093 280.868 183.844 280.316 182.724L280.311 182.729Z" fill="#8087E6"/>
<path d="M35 78H52.1206C52.5148 78 52.8941 78.1544 53.175 78.4293C53.4558 78.7043 53.6135 79.0757 53.6135 79.4664V108.264C53.6135 108.655 53.7711 109.026 54.0519 109.301C54.3328 109.576 54.7121 109.73 55.1063 109.73H83.4009C83.795 109.73 84.1744 109.576 84.4552 109.301C84.7361 109.026 84.8937 108.655 84.8937 108.264V79.4664C84.8937 79.0757 85.0514 78.7043 85.3322 78.4293C85.613 78.1544 85.9924 78 86.3865 78H103.507C103.901 78 104.286 78.1544 104.562 78.4293C104.842 78.7043 105 79.0757 105 79.4664V157.534C105 157.919 104.842 158.296 104.562 158.571C104.281 158.846 103.901 159 103.507 159H86.3865C85.9924 159 85.6081 158.846 85.3322 158.571C85.0514 158.296 84.8937 157.924 84.8937 157.534V127.12C84.8937 126.734 84.7361 126.358 84.4552 126.083C84.1744 125.808 83.795 125.654 83.4009 125.654H55.1063C54.7121 125.654 54.3328 125.808 54.0519 126.083C53.7711 126.358 53.6135 126.729 53.6135 127.12V157.534C53.6135 157.919 53.4558 158.296 53.175 158.571C52.8941 158.846 52.5148 159 52.1206 159H35" fill="#2A2A2A"/>
<path d="M170.585 144.695H142.179C141.872 144.695 141.569 144.792 141.32 144.97C141.071 145.149 140.881 145.399 140.783 145.689L136.57 158.006C136.473 158.296 136.282 158.547 136.034 158.725C135.785 158.904 135.482 159 135.169 159H117.479C117.239 159 117.005 158.942 116.795 158.836C116.585 158.725 116.405 158.571 116.268 158.378C116.131 158.185 116.043 157.963 116.014 157.731C115.98 157.5 116.009 157.258 116.087 157.041L144.601 78.9649C144.703 78.6803 144.894 78.4342 145.143 78.2654C145.392 78.0917 145.689 78 145.992 78H167.002C167.305 78 167.603 78.0917 167.852 78.2654C168.101 78.439 168.291 78.6851 168.394 78.9649L196.912 157.041C196.995 157.263 197.019 157.5 196.985 157.731C196.951 157.963 196.868 158.185 196.731 158.378C196.595 158.571 196.414 158.73 196.204 158.836C195.994 158.947 195.76 159 195.521 159H177.605C177.298 159 176.995 158.904 176.741 158.725C176.487 158.547 176.302 158.296 176.204 158.006L171.991 145.689C171.894 145.399 171.703 145.149 171.454 144.97C171.2 144.792 170.903 144.695 170.59 144.695H170.585ZM165.86 127.524L157.796 103.937C157.698 103.643 157.513 103.387 157.259 103.208C157.005 103.025 156.702 102.929 156.39 102.929C156.077 102.929 155.775 103.025 155.521 103.208C155.267 103.392 155.081 103.643 154.984 103.937L147.012 127.524C146.939 127.746 146.915 127.978 146.954 128.209C146.988 128.441 147.081 128.658 147.217 128.846C147.354 129.034 147.535 129.189 147.744 129.295C147.954 129.401 148.184 129.454 148.418 129.454H164.459C164.693 129.454 164.928 129.396 165.133 129.29C165.343 129.184 165.523 129.03 165.66 128.842C165.797 128.653 165.884 128.431 165.923 128.205C165.958 127.973 165.938 127.741 165.86 127.52" fill="#8087E6"/>
<path d="M265.752 116.95C263.426 120.987 259.96 124.257 255.784 126.35C250.604 128.892 244.87 130.121 239.097 129.924H228.285C227.896 129.924 227.523 130.078 227.246 130.353C226.969 130.628 226.814 130.999 226.814 131.39V157.534C226.814 157.92 226.658 158.296 226.382 158.571C226.105 158.846 225.731 159 225.343 159H208.471C208.083 159 207.709 158.846 207.432 158.571C207.155 158.296 207 157.925 207 157.534V79.4824C207 79.0917 207.155 78.7204 207.432 78.4455C207.709 78.1706 208.083 78.0163 208.471 78.0163H239.097C244.768 77.8475 250.405 78.9953 255.551 81.3681C259.77 83.3599 263.285 86.5766 265.635 90.594C267.927 94.7223 269.087 99.3762 268.995 104.093C269.048 108.588 267.932 113.015 265.757 116.955M246.05 111.587C247.011 110.599 247.754 109.422 248.234 108.13C248.715 106.837 248.914 105.463 248.832 104.088C248.919 102.714 248.715 101.339 248.234 100.047C247.754 98.7541 247.011 97.5774 246.05 96.5887C244.195 94.8187 241.374 93.9362 237.592 93.9362H228.285C227.896 93.9362 227.518 94.0905 227.246 94.3654C226.969 94.6403 226.814 95.0116 226.814 95.4023V112.774C226.814 113.165 226.969 113.536 227.246 113.811C227.523 114.086 227.896 114.24 228.285 114.24H237.582C241.369 114.24 244.185 113.357 246.04 111.587" fill="#2A2A2A"/>
<path d="M338.742 116.95C336.417 120.987 332.951 124.257 328.775 126.35C323.595 128.892 317.862 130.121 312.09 129.924H301.278C300.89 129.924 300.516 130.078 300.239 130.353C299.963 130.628 299.807 130.999 299.807 131.39V157.534C299.807 157.92 299.652 158.296 299.375 158.571C299.099 158.846 298.725 159 298.336 159H281.471C281.083 159 280.704 158.846 280.432 158.571C280.155 158.296 280 157.925 280 157.534V79.4824C280 79.0917 280.155 78.7204 280.432 78.4455C280.709 78.1706 281.083 78.0163 281.471 78.0163H312.095C317.765 77.8475 323.401 78.9953 328.552 81.3681C332.771 83.3599 336.286 86.5766 338.635 90.594C340.927 94.7223 342.087 99.3762 341.995 104.093C342.048 108.588 340.932 113.015 338.757 116.955M319.051 111.587C320.013 110.599 320.755 109.422 321.236 108.13C321.717 106.837 321.916 105.463 321.833 104.088C321.921 102.714 321.717 101.339 321.236 100.047C320.755 98.7541 320.013 97.5774 319.051 96.5887C317.197 94.8236 314.376 93.9362 310.595 93.9362H301.288C300.9 93.9362 300.526 94.0905 300.249 94.3654C299.972 94.6403 299.817 95.0116 299.817 95.4023V112.774C299.817 113.165 299.972 113.536 300.249 113.811C300.526 114.086 300.9 114.24 301.288 114.24H310.595C314.376 114.24 317.197 113.353 319.051 111.587Z" fill="#2A2A2A"/>
<path d="M333.299 179.587H315.521V226.367H333.299V179.587Z" fill="#2C1B42"/>
<path d="M368.11 116.879H285.022C280.112 116.879 276.133 120.876 276.133 125.805V192.842C276.133 197.772 280.112 201.768 285.022 201.768H368.11C373.019 201.768 376.999 197.772 376.999 192.842V125.805C376.999 120.876 373.019 116.879 368.11 116.879Z" fill="#2C1B42"/>
<path d="M86.5938 132.806C86.5938 134.25 86.5938 225.405 86.5938 225.405" stroke="#2C1B42" stroke-miterlimit="10"/>
<path d="M259.023 96.6227C259.023 98.066 259.023 214.783 259.023 214.783" stroke="#2C1B42" stroke-miterlimit="10"/>
<path d="M311.387 120.26H72.6621" stroke="#2C1B42" stroke-miterlimit="10"/>
<path d="M53.7105 155.468H51.5293" stroke="#2C1B42" stroke-miterlimit="10"/>
<path d="M338.28 155.468H84.9668" stroke="#2C1B42" stroke-miterlimit="10"/>
<path d="M332.996 190.677H51.5293" stroke="#2C1B42" stroke-miterlimit="10"/>
<path d="M19.3535 225.886H366.144" stroke="#2C1B42" stroke-miterlimit="10"/>
<path d="M41.835 169.585C43.7263 168.813 45.3023 167.344 46.3236 165.027C47.6096 162.103 47.9879 158.773 48.3157 155.62C48.7065 151.949 48.82 148.252 48.6561 144.568C48.3157 137.161 46.8405 129.793 44.2432 122.842C43.928 121.994 43.6002 121.159 43.2471 120.336C36.6152 104.523 24.0195 91.28 8.5744 83.8989L2.29548 107.169C8.43571 110.866 12.8108 117.398 13.8951 124.514L4.24976 121.716L0.820312 133.249C3.3924 133.553 6.02753 133.895 8.29702 135.11C10.5665 136.326 12.4577 138.668 12.3695 141.263C12.3065 143.264 10.9826 145.176 9.12916 145.948C7.27575 146.72 5.00626 146.29 3.5437 144.91C4.03542 145.365 4.33802 146.568 4.65323 147.176C5.05669 147.936 5.48537 148.682 5.92666 149.417C6.83446 150.898 7.83051 152.329 8.91482 153.696C11.0456 156.393 13.5042 158.836 16.1772 160.988C21.5483 165.28 27.9407 168.471 34.6609 169.927C36.5017 170.332 38.4686 170.471 40.322 170.053C41.1668 169.863 41.8098 169.901 41.8855 169.053C41.9611 168.281 41.9737 167.496 41.9989 166.724C42.0494 165.166 42.0494 163.622 41.9989 162.065C41.9107 158.963 41.6207 155.861 41.1668 152.797C40.2338 146.657 38.5821 140.63 36.2496 134.87C33.917 129.109 30.9163 123.64 27.2851 118.614C26.1377 117.031 24.9399 115.487 23.6791 114.005" stroke="#2C1B42" stroke-miterlimit="10"/>
<path d="M49.1601 212.833C50.6227 199.058 50.0931 182.473 43.0703 168.281" stroke="#2C1B42" stroke-miterlimit="10"/>
<path d="M54.2537 177.194C53.0811 176.523 52.1859 175.459 51.7447 173.877C51.1899 171.889 51.2908 169.737 51.3916 167.686C51.5051 165.306 51.8203 162.938 52.312 160.596C53.3081 155.886 55.048 151.316 57.494 147.113C57.7966 146.606 58.0992 146.1 58.4144 145.606C64.4664 136.085 74.2126 128.768 85.2448 125.451L87.01 140.884C82.5467 142.694 78.9533 146.467 77.5034 150.911L84.211 149.987L85.2953 157.671C83.5553 157.633 81.765 157.608 80.1259 158.19C78.4868 158.773 76.9864 160.09 76.7721 161.761C76.6082 163.052 77.289 164.394 78.4364 165.04C79.5837 165.685 81.1472 165.635 82.2567 164.875C81.891 165.128 81.5632 165.863 81.2858 166.217C80.9328 166.66 80.5798 167.103 80.2015 167.534C79.445 168.395 78.6255 169.218 77.7681 170.003C76.066 171.535 74.1874 172.877 72.1827 174.003C68.1732 176.257 63.5838 177.726 58.9692 178.042C57.6958 178.131 56.3845 178.042 55.1867 177.612C54.6446 177.422 54.2159 177.384 54.2537 176.839C54.2915 176.346 54.3546 175.839 54.4176 175.345C54.5437 174.345 54.7076 173.358 54.8967 172.37C55.275 170.395 55.7919 168.445 56.4097 166.521C57.6579 162.685 59.3853 158.975 61.5413 155.519C63.6973 152.063 66.2568 148.834 69.1819 145.948C70.1023 145.036 71.0605 144.163 72.0566 143.327" stroke="#2C1B42" stroke-miterlimit="10"/>
<path d="M46.0723 222.885C46.0723 222.885 40.222 194.589 53.5616 176.257" stroke="#2C1B42" stroke-miterlimit="10"/>
<path d="M46.4745 190.601H52.9929H76.3435L68.2742 226.848H52.9929H46.4745H31.1932L23.1113 190.601H46.4745Z" fill="#2C1B42"/>
<path d="M47.9249 191.88H54.0147H75.7892L68.262 226.367H54.0147H47.9249H33.6901L26.1504 191.88H47.9249Z" fill="white" stroke="#2C1B42" stroke-miterlimit="10"/>
<path d="M329.643 179.587H311.865V226.367H329.643V179.587Z" fill="white" stroke="#2C1B42" stroke-miterlimit="10"/>
<path d="M364.454 116.879H281.365C276.456 116.879 272.477 120.876 272.477 125.805V192.842C272.477 197.772 276.456 201.768 281.365 201.768H364.454C369.363 201.768 373.343 197.772 373.343 192.842V125.805C373.343 120.876 369.363 116.879 364.454 116.879Z" fill="white" stroke="#2C1B42" stroke-miterlimit="10"/>
<path d="M264.872 65.3984H259.702H241.172L247.582 94.0384H259.702H264.872H276.992L283.402 65.3984H264.872Z" fill="#2C1B42"/>
<path d="M258.938 82.7781C263.188 77.0381 261.318 67.9481 254.918 63.2681C253.518 62.2481 251.908 61.3781 250.978 59.9981C249.238 57.4281 250.518 54.3181 250.618 51.4181C250.768 47.1081 247.888 42.6081 243.588 40.4381C241.098 39.1881 238.208 38.7581 235.528 39.1281C233.558 39.3981 232.798 41.6181 234.268 42.9981C235.098 43.7781 235.768 44.7381 236.188 45.7281C237.188 48.0381 237.178 50.5181 237.268 52.9381C237.358 55.3581 237.598 57.8881 238.998 60.0481C240.348 62.1381 242.608 63.5981 244.598 65.2181C249.528 69.2281 253.088 74.6381 254.608 80.3581" stroke="#2C1B42" stroke-miterlimit="10"/>
<path d="M255.93 74.54C256.94 72.18 255.52 69.31 253.5 67.32C251.48 65.33 248.89 63.9 246.74 62.02C244.59 60.14 242.8 57.53 243.25 55" stroke="#2C1B42" stroke-miterlimit="10"/>
<path d="M255.911 63.732C253.811 60.952 252.511 57.372 253.241 53.962C253.791 51.402 255.411 49.172 255.961 46.612C256.671 43.362 255.591 40.022 254.461 36.902C253.331 33.782 252.141 30.512 252.601 27.222C253.061 23.932 255.841 20.702 259.151 21.022C261.741 21.272 263.731 23.602 264.481 26.092C265.231 28.582 265.011 31.252 264.911 33.852C264.811 36.452 264.861 39.172 266.061 41.482C267.571 44.372 270.701 46.222 271.971 49.222C273.601 53.042 271.751 57.422 269.451 60.882C267.831 63.312 265.981 65.612 264.761 68.282C264.271 69.342 263.631 69.982 262.411 69.532C261.191 69.082 260.151 68.022 259.191 67.182C257.991 66.132 256.871 64.992 255.901 63.712L255.911 63.732Z" stroke="#2C1B42" stroke-miterlimit="10"/>
<path d="M266.879 73.291C265.149 66.421 269.529 58.581 276.289 56.451C277.759 55.991 279.369 55.741 280.569 54.771C282.809 52.971 282.719 49.621 283.539 46.861C284.759 42.771 288.549 39.571 292.789 39.071C295.249 38.781 297.769 39.391 299.879 40.681C301.429 41.631 301.359 43.971 299.719 44.741C298.789 45.181 297.939 45.841 297.279 46.611C295.729 48.421 294.969 50.751 294.139 52.981C293.309 55.211 292.319 57.501 290.489 59.021C288.719 60.491 286.389 61.061 284.239 61.881C278.909 63.901 274.269 67.701 271.229 72.521" stroke="#2C1B42" stroke-miterlimit="10"/>
<path d="M271.941 66.6459C271.841 64.0859 273.911 61.8959 276.201 60.7459C278.491 59.5959 281.081 59.1659 283.451 58.1759C285.821 57.1859 288.111 55.3659 288.531 52.8359" stroke="#2C1B42" stroke-miterlimit="10"/>
<path d="M263.369 60.32C262.139 59.38 261.619 57.76 261.599 56.22C261.579 54.68 261.989 53.17 262.309 51.66C262.559 50.45 262.759 49.22 262.819 47.99C263.039 43.15 261.149 38.48 259.289 34" stroke="#2C1B42" stroke-miterlimit="10"/>
<path d="M294.38 93.6562H230V98.6062H294.38V93.6562Z" fill="white" stroke="#2C1B42" stroke-miterlimit="10"/>
<path d="M263.707 66.4219H258.887H241.617L247.587 93.6619H258.887H263.707H275.007L280.977 66.4219H263.707Z" fill="white" stroke="#2C1B42" stroke-miterlimit="10"/>
<path d="M237.242 98.7969V105.847H238.572C245.092 105.847 250.382 111.137 250.382 117.657" stroke="#2C1B42" stroke-miterlimit="10"/>
</svg>
