<svg width="24" height="24" viewBox="0 0 24 24" fill="none" xmlns="http://www.w3.org/2000/svg">
<path d="M3 9.00001H16.5C17.0913 8.99869 17.6771 9.11419 18.2236 9.33987C18.7702 9.56555 19.2668 9.89696 19.6849 10.3151C20.103 10.7332 20.4345 11.2298 20.6601 11.7764C20.8858 12.3229 21.0013 12.9087 21 13.5V13.5C21.0013 14.0913 20.8858 14.6771 20.6601 15.2236C20.4345 15.7702 20.103 16.2668 19.6849 16.6849C19.2668 17.1031 18.7702 17.4345 18.2236 17.6602C17.6771 17.8858 17.0913 18.0013 16.5 18H13" stroke="white" stroke-width="2" stroke-linecap="round" stroke-linejoin="round"/>
<path d="M6 12L3 9L6 6" stroke="white" stroke-width="2" stroke-linecap="round" stroke-linejoin="round"/>
</svg>
