<svg width="20" height="20" viewBox="0 0 20 20" fill="none" xmlns="http://www.w3.org/2000/svg">
<path fill-rule="evenodd" clip-rule="evenodd" d="M5 5.83333C5 5.3731 5.3731 5 5.83333 5H9.16667C9.6269 5 10 5.3731 10 5.83333C10 6.29357 9.6269 6.66667 9.16667 6.66667H5.83333C5.3731 6.66667 5 6.29357 5 5.83333ZM5 9.16667C5 8.70643 5.3731 8.33333 5.83333 8.33333H9.16667C9.6269 8.33333 10 8.70643 10 9.16667C10 9.6269 9.6269 10 9.16667 10H5.83333C5.3731 10 5 9.6269 5 9.16667ZM5 12.5C5 12.0398 5.3731 11.6667 5.83333 11.6667H9.16667C9.6269 11.6667 10 12.0398 10 12.5V17.5C10 17.9602 9.6269 18.3333 9.16667 18.3333H5.83333C5.3731 18.3333 5 17.9602 5 17.5V12.5ZM6.66667 13.3333V16.6667H8.33333V13.3333H6.66667Z" fill="#2E3BE3"/>
<path fill-rule="evenodd" clip-rule="evenodd" d="M2.15417 2.15482C2.46673 1.84226 2.89066 1.66666 3.33268 1.66666H11.666C12.108 1.66666 12.532 1.84226 12.8445 2.15482C13.1571 2.46738 13.3327 2.8913 13.3327 3.33333V4.39362L17.1982 5.64338C17.5432 5.75935 17.8407 5.9851 18.0454 6.28604C18.2452 6.57997 18.3458 6.9299 18.3327 7.28466V17.5C18.3327 17.9602 17.9596 18.3333 17.4993 18.3333H2.49935C2.03911 18.3333 1.66602 17.9602 1.66602 17.5V3.33333C1.66602 2.8913 1.84161 2.46738 2.15417 2.15482ZM13.3327 16.6667H16.666V7.26666C16.666 7.2522 16.6664 7.23773 16.6671 7.22329L13.3327 6.14523V16.6667ZM11.666 3.33333H3.33268V16.6667H11.666V3.33333Z" fill="#151948"/>
</svg>
