<svg width="24" height="24" viewBox="0 0 24 24" fill="none" xmlns="http://www.w3.org/2000/svg">
<path fill-rule="evenodd" clip-rule="evenodd" d="M5 9C5.55228 9 6 9.44772 6 10V20H8.7V14.1C8.7 13.5477 9.14772 13.1 9.7 13.1H14.3C14.8523 13.1 15.3 13.5477 15.3 14.1V20H18V10C18 9.44772 18.4477 9 19 9C19.5523 9 20 9.44772 20 10V20.3C20 20.3292 19.9987 20.3584 19.9962 20.3876C19.9552 20.8534 19.7316 21.2841 19.3741 21.5856C19.0292 21.8765 18.5867 22.0243 18.1374 22H14.3C13.7477 22 13.3 21.5523 13.3 21V15.1H10.7V21C10.7 21.5523 10.2523 22 9.7 22H5.86255C5.41326 22.0243 4.97082 21.8765 4.62592 21.5856C4.26843 21.2841 4.04479 20.8534 4.00384 20.3876C4.00128 20.3584 4 20.3292 4 20.3V10C4 9.44772 4.44772 9 5 9Z" fill="#151948"/>
<path fill-rule="evenodd" clip-rule="evenodd" d="M11.2929 2.29289C11.6834 1.90237 12.3166 1.90237 12.7071 2.29289L21.7071 11.2929C22.0976 11.6834 22.0976 12.3166 21.7071 12.7071C21.3166 13.0976 20.6834 13.0976 20.2929 12.7071L12 4.41421L3.70711 12.7071C3.31658 13.0976 2.68342 13.0976 2.29289 12.7071C1.90237 12.3166 1.90237 11.6834 2.29289 11.2929L11.2929 2.29289Z" fill="#2E3BE3"/>
</svg>
