<svg width="22" height="22" viewBox="0 0 22 22" fill="none" xmlns="http://www.w3.org/2000/svg">
<path d="M11 12.0312C11.5695 12.0312 12.0312 11.5695 12.0312 11C12.0312 10.4305 11.5695 9.96875 11 9.96875C10.4305 9.96875 9.96875 10.4305 9.96875 11C9.96875 11.5695 10.4305 12.0312 11 12.0312Z" fill="#2E3BE3" stroke="#2E3BE3"/>
<path d="M11 6.53125C11.5695 6.53125 12.0312 6.06954 12.0312 5.5C12.0312 4.93046 11.5695 4.46875 11 4.46875C10.4305 4.46875 9.96875 4.93046 9.96875 5.5C9.96875 6.06954 10.4305 6.53125 11 6.53125Z" fill="black" stroke="black"/>
<path d="M11 17.5312C11.5695 17.5312 12.0312 17.0695 12.0312 16.5C12.0312 15.9305 11.5695 15.4688 11 15.4688C10.4305 15.4688 9.96875 15.9305 9.96875 16.5C9.96875 17.0695 10.4305 17.5312 11 17.5312Z" fill="black" stroke="black"/>
</svg>
