<svg width="13" height="13" viewBox="0 0 13 13" fill="none" xmlns="http://www.w3.org/2000/svg">
<path d="M0.975 2.4375C0.975 1.62978 1.62978 0.975 2.4375 0.975H7.3125C7.58174 0.975 7.8 0.756739 7.8 0.4875C7.8 0.218261 7.58174 0 7.3125 0H2.4375C1.09131 0 0 1.09131 0 2.4375V10.5625C0 11.9087 1.09131 13 2.4375 13H10.5625C11.9087 13 13 11.9087 13 10.5625V5.6875C13 5.41826 12.7817 5.2 12.5125 5.2C12.2433 5.2 12.025 5.41826 12.025 5.6875V10.5625C12.025 11.3702 11.3702 12.025 10.5625 12.025H2.4375C1.62978 12.025 0.975 11.3702 0.975 10.5625V2.4375ZM12.6644 2.39498L11.786 3.27143L9.71771 1.20314L10.5961 0.326696C11.0298 -0.106961 11.7329 -0.106962 12.1665 0.326696L12.6644 0.824568C13.0981 1.25823 13.0981 1.96133 12.6644 2.39498ZM3.37092 7.53578L9.02751 1.8918L11.0958 3.96009L5.43893 9.60435C5.39106 9.6521 5.3295 9.68374 5.2628 9.69486L3.33221 10.0166C3.11224 10.0533 2.92154 9.86259 2.9582 9.64262L3.2799 7.71241C3.29105 7.64548 3.32288 7.58371 3.37092 7.53578Z" fill="#151948"/>
</svg>
