<svg width="24" height="24" viewBox="0 0 24 24" fill="none" xmlns="http://www.w3.org/2000/svg">
<path d="M8 5.75C8 3.67893 9.67893 2 11.75 2H12.25C14.3211 2 16 3.67893 16 5.75V6H20C21.1046 6 22 6.89543 22 8V11.9384C22 12.6665 21.607 13.3204 21 13.6707V19.75C21 20.9926 19.9926 22 18.75 22H5.25C4.00736 22 3 20.9926 3 19.75V13.6707C2.39305 13.3204 2 12.6665 2 11.9384V8C2 6.89543 2.89543 6 4 6H8V5.75ZM4.5 14.125V19.75C4.5 20.1642 4.83579 20.5 5.25 20.5H18.75C19.1642 20.5 19.5 20.1642 19.5 19.75V14.125L12.2425 15.9394C12.0833 15.9792 11.9167 15.9792 11.7575 15.9394L4.5 14.125ZM14.5 5.75C14.5 4.50736 13.4926 3.5 12.25 3.5H11.75C10.5074 3.5 9.5 4.50736 9.5 5.75V6H14.5V5.75ZM4 7.5C3.72386 7.5 3.5 7.72386 3.5 8V11.9384C3.5 12.1679 3.65615 12.3679 3.87873 12.4235L11.2502 14.2664L11.25 14.25V12.25C11.25 11.8358 11.5858 11.5 12 11.5C12.4142 11.5 12.75 11.8358 12.75 12.25V14.25L12.7498 14.2664L20.1213 12.4235C20.3439 12.3679 20.5 12.1679 20.5 11.9384V8C20.5 7.72386 20.2761 7.5 20 7.5H4Z" fill="#151948"/>
<rect x="11.2031" y="11" width="1.6" height="4" rx="0.8" fill="#2E3BE3"/>
</svg>
