<svg width="16" height="16" viewBox="0 0 16 16" fill="none" xmlns="http://www.w3.org/2000/svg">
<g clip-path="url(#clip0_1468_15908)">
<path fill-rule="evenodd" clip-rule="evenodd" d="M8 16H4C2.93915 16 1.92176 15.5785 1.17162 14.8284C0.421489 14.0782 4.64092e-05 13.0609 0 12L0 4C4.64092e-05 2.93915 0.421489 1.92176 1.17162 1.17162C1.92176 0.421489 2.93915 4.64092e-05 4 0L12 0C13.0609 0 14.0783 0.421427 14.8284 1.17157C15.5786 1.92172 16 2.93913 16 4V12C16 13.0609 15.5786 14.0783 14.8284 14.8284C14.0783 15.5786 13.0609 16 12 16H10.5C10.5 15.6685 10.3683 15.3505 10.1339 15.1161C9.89946 14.8817 9.58152 14.75 9.25 14.75C8.91848 14.75 8.60054 14.8817 8.36612 15.1161C8.1317 15.3505 8 15.6685 8 16Z" fill="#5D77D3"/>
<path fill-rule="evenodd" clip-rule="evenodd" d="M7.5 4.5H12C12.5768 4.49996 13.1316 4.27841 13.5498 3.8811C13.9679 3.48379 14.2175 2.94106 14.2471 2.365C14.2766 1.78894 14.0837 1.22354 13.7084 0.785566C13.333 0.347592 12.8038 0.0704955 12.23 0.0115C12.1535 0.00725 12.0778 0 12 0H4C2.93915 4.64092e-05 1.92176 0.421489 1.17162 1.17162C0.421489 1.92176 4.64092e-05 2.93915 0 4L0 12C4.64109e-05 10.0109 0.790238 8.10326 2.19675 6.69675C3.60326 5.29024 5.51089 4.50005 7.5 4.5Z" fill="#465EB5"/>
<path fill-rule="evenodd" clip-rule="evenodd" d="M12 8C11.2089 8 10.4355 8.2346 9.77772 8.67412C9.11993 9.11365 8.60723 9.73836 8.30448 10.4693C8.00173 11.2002 7.92252 12.0044 8.07686 12.7804C8.2312 13.5563 8.61216 14.269 9.17157 14.8284C9.73099 15.3878 10.4437 15.7688 11.2196 15.9231C11.9956 16.0775 12.7998 15.9983 13.5307 15.6955C14.2616 15.3928 14.8864 14.8801 15.3259 14.2223C15.7654 13.5645 16 12.7911 16 12V4C16 5.06087 15.5786 6.07828 14.8284 6.82843C14.0783 7.57857 13.0609 8 12 8Z" fill="#465EB5"/>
<path fill-rule="evenodd" clip-rule="evenodd" d="M13 4.5C13 4.63261 12.9473 4.75979 12.8536 4.85355C12.7598 4.94732 12.6326 5 12.5 5H11C10.8674 5 10.7402 5.05268 10.6464 5.14645C10.5527 5.24021 10.5 5.36739 10.5 5.5V7.5H12.39C12.464 7.5 12.537 7.51641 12.6039 7.54806C12.6707 7.5797 12.7298 7.62578 12.7767 7.68298C12.8236 7.74019 12.8572 7.80708 12.8751 7.87885C12.893 7.95061 12.8948 8.02546 12.8803 8.098C12.7875 8.56225 12.6614 9.19275 12.5803 9.598C12.5576 9.71136 12.4964 9.81336 12.407 9.88665C12.3176 9.95995 12.2056 10 12.09 10H10.5V16H8V10H6.5C6.36739 10 6.24021 9.94732 6.14645 9.85355C6.05268 9.75979 6 9.63261 6 9.5V8C6 7.86739 6.05268 7.74021 6.14645 7.64645C6.24021 7.55268 6.36739 7.5 6.5 7.5H8V5.5C8 4.70435 8.31607 3.94129 8.87868 3.37868C9.44129 2.81607 10.2044 2.5 11 2.5H12.5C12.6326 2.5 12.7598 2.55268 12.8536 2.64645C12.9473 2.74021 13 2.86739 13 3V4.5Z" fill="white"/>
</g>
<defs>
<clipPath id="clip0_1468_15908">
<rect width="16" height="16" fill="white"/>
</clipPath>
</defs>
</svg>
