<svg width="28" height="28" viewBox="0 0 28 28" fill="none" xmlns="http://www.w3.org/2000/svg">
<g clip-path="url(#clip0_1323_13016)">
<path fill-rule="evenodd" clip-rule="evenodd" d="M14 28H7C5.14351 27.9999 3.36308 27.2624 2.05034 25.9497C0.737605 24.6369 8.12161e-05 22.8565 0 21L0 7C8.12161e-05 5.14351 0.737605 3.36308 2.05034 2.05034C3.36308 0.737605 5.14351 8.12161e-05 7 0L21 0C22.8565 0 24.637 0.737498 25.9497 2.05025C27.2625 3.36301 28 5.14348 28 7V21C28 22.8565 27.2625 24.637 25.9497 25.9497C24.637 27.2625 22.8565 28 21 28H18.375C18.375 27.4198 18.1445 26.8634 17.7343 26.4532C17.3241 26.043 16.7677 25.8125 16.1875 25.8125C15.6073 25.8125 15.0509 26.043 14.6407 26.4532C14.2305 26.8634 14 27.4198 14 28Z" fill="#5D77D3"/>
<path fill-rule="evenodd" clip-rule="evenodd" d="M13.125 7.875H21C22.0094 7.87494 22.9803 7.48722 23.7121 6.79193C24.4439 6.09663 24.8807 5.14686 24.9324 4.13875C24.984 3.13064 24.6466 2.14119 23.9897 1.37474C23.3328 0.608287 22.4066 0.123367 21.4025 0.020125C21.2686 0.0126875 21.1361 0 21 0H7C5.14351 8.12161e-05 3.36308 0.737605 2.05034 2.05034C0.737605 3.36308 8.12161e-05 5.14351 0 7L0 21C8.12191e-05 17.5191 1.38292 14.1807 3.84431 11.7193C6.30571 9.25791 9.64406 7.87508 13.125 7.875Z" fill="#465EB5"/>
<path fill-rule="evenodd" clip-rule="evenodd" d="M21 14C19.6155 14 18.2622 14.4105 17.111 15.1797C15.9599 15.9489 15.0627 17.0421 14.5328 18.3212C14.003 19.6003 13.8644 21.0078 14.1345 22.3656C14.4046 23.7235 15.0713 24.9708 16.0503 25.9497C17.0292 26.9287 18.2765 27.5954 19.6344 27.8655C20.9922 28.1356 22.3997 27.997 23.6788 27.4672C24.9579 26.9373 26.0511 26.0401 26.8203 24.889C27.5895 23.7378 28 22.3845 28 21V7C28 8.85652 27.2625 10.637 25.9498 11.9497C24.637 13.2625 22.8565 14 21 14Z" fill="#465EB5"/>
<path fill-rule="evenodd" clip-rule="evenodd" d="M22.75 7.875C22.75 8.10706 22.6578 8.32962 22.4937 8.49372C22.3296 8.65781 22.1071 8.75 21.875 8.75H19.25C19.0179 8.75 18.7954 8.84219 18.6313 9.00628C18.4672 9.17038 18.375 9.39294 18.375 9.625V13.125H21.6825C21.8119 13.125 21.9398 13.1537 22.0568 13.2091C22.1738 13.2645 22.2771 13.3451 22.3591 13.4452C22.4412 13.5453 22.5001 13.6624 22.5314 13.788C22.5628 13.9136 22.5659 14.0446 22.5405 14.1715C22.3781 14.9839 22.1574 16.0873 22.0155 16.7965C21.9759 16.9949 21.8687 17.1734 21.7123 17.3016C21.5558 17.4299 21.3598 17.5 21.1575 17.5H18.375V28H14V17.5H11.375C11.1429 17.5 10.9204 17.4078 10.7563 17.2437C10.5922 17.0796 10.5 16.8571 10.5 16.625V14C10.5 13.7679 10.5922 13.5454 10.7563 13.3813C10.9204 13.2172 11.1429 13.125 11.375 13.125H14V9.625C14 8.23261 14.5531 6.89726 15.5377 5.91269C16.5223 4.92812 17.8576 4.375 19.25 4.375H21.875C22.1071 4.375 22.3296 4.46719 22.4937 4.63128C22.6578 4.79538 22.75 5.01794 22.75 5.25V7.875Z" fill="white"/>
</g>
<defs>
<clipPath id="clip0_1323_13016">
<rect width="28" height="28" fill="white"/>
</clipPath>
</defs>
</svg>
