<svg width="28" height="28" viewBox="0 0 28 28" fill="none" xmlns="http://www.w3.org/2000/svg">
<g clip-path="url(#clip0_1323_12987)">
<path d="M27.7746 11.4085C27.8991 11.4085 28 11.5094 28 11.6338V14C28 14.8856 27.9177 15.7515 27.76 16.5915C26.5395 23.1162 20.7913 28.0471 13.9013 27.9996C6.17015 27.9464 -0.0170818 21.6997 3.54307e-05 13.9684C0.0170432 6.25111 6.27865 0 14 0C17.7829 0 21.2152 1.50073 23.7351 3.93848C23.8261 4.02648 23.8285 4.17151 23.7389 4.26098L20.3915 7.60845C20.3053 7.69464 20.166 7.69688 20.0777 7.61283C18.4961 6.10734 16.3562 5.18306 14 5.18306C9.13438 5.18306 5.21629 9.07331 5.18326 13.9388C5.15007 18.8362 9.11032 22.8169 14 22.8169C17.9673 22.8169 21.3228 20.196 22.4293 16.5915H14.2253C14.1009 16.5915 14 16.4906 14 16.3662V11.6338C14 11.5093 14.1009 11.4084 14.2253 11.4084H27.7746V11.4085Z" fill="#F4F4F4"/>
<path d="M27.7749 11.4085H26.0848C26.2092 11.4085 26.3101 11.5094 26.3101 11.6338V14C26.3101 14.8856 26.2279 15.7515 26.0701 16.5915C24.9058 22.8162 19.6205 27.5901 13.1543 27.9747C13.4017 27.9893 13.6508 27.9979 13.9015 27.9996C20.7916 28.0472 26.5398 23.1162 27.7602 16.5915C27.918 15.7515 28.0003 14.8856 28.0003 14V11.6338C28.0003 11.5094 27.8994 11.4085 27.7749 11.4085Z" fill="#E3E3E3"/>
<path d="M5.99208 10.3076L1.74023 7.23548C4.12559 2.92113 8.72219 0 14.0005 0C17.7834 0 21.2157 1.50073 23.7357 3.93848C23.8267 4.02648 23.829 4.17151 23.7395 4.26098L20.392 7.60845C20.306 7.69448 20.1667 7.69716 20.0786 7.61327C18.497 6.1075 16.3569 5.18312 14.0005 5.18312C10.4495 5.18312 7.38869 7.28224 5.99208 10.3076Z" fill="#F2F2F2"/>
<path d="M4.76367 9.42073L5.99113 10.3076C7.2659 7.54621 9.92743 5.55744 13.0824 5.23123C13.1061 5.22866 13.1289 5.22554 13.1531 5.22325C12.8754 5.19689 12.594 5.18311 12.3095 5.18311C9.10165 5.18311 6.30602 6.87421 4.76367 9.42073Z" fill="#E2E2E2"/>
<path d="M22.0445 3.93848C22.1355 4.02648 22.1379 4.17151 22.0483 4.26103L19.3313 6.97807C19.5916 7.17604 19.8408 7.38779 20.0772 7.61288C20.1655 7.69694 20.3048 7.6947 20.391 7.60851L23.7385 4.26103C23.828 4.17151 23.8256 4.02653 23.7346 3.93848C21.2147 1.50073 17.7824 0 13.9995 0C13.7156 0 13.434 0.00946094 13.1543 0.0261406C16.6018 0.231492 19.7136 1.68361 22.0445 3.93848Z" fill="#E2E2E2"/>
<path d="M24.269 23.5144C21.7124 26.2732 18.0572 28 13.9991 28C8.51803 28 3.77269 24.8502 1.47461 20.2614L5.81543 17.2867C7.11803 20.5279 10.2915 22.8169 13.9991 22.8169C16.3259 22.8169 18.442 21.9155 20.0172 20.4428L24.269 23.5144Z" fill="#B1B1B1"/>
<path d="M5.81713 17.2868L4.53711 18.1639C6.02379 20.9335 8.94733 22.8169 12.3107 22.8169C12.5951 22.8169 12.8762 22.8029 13.1538 22.7766C9.81516 22.4584 7.01927 20.2781 5.81713 17.2868Z" fill="#9A9A9A"/>
<path d="M13.9992 28C18.0572 28 21.7124 26.2732 24.2691 23.5144L23.2277 22.762C20.8271 25.7496 17.2259 27.7315 13.1562 27.9745C13.4352 27.9911 13.7161 28 13.9992 28Z" fill="#9A9A9A"/>
<path d="M5.18312 14C5.18312 15.1617 5.40788 16.271 5.81634 17.2868L1.47547 20.2614C0.531289 18.3774 0 16.2507 0 14C0 11.5465 0.630984 9.24054 1.73972 7.23547L5.99156 10.3076C5.47269 11.4304 5.18312 12.6817 5.18312 14Z" fill="#FFFBF0"/>
<path d="M4.53556 18.1639L5.81558 17.2868C5.40711 16.271 5.18235 15.1617 5.18235 14C5.18235 12.6817 5.47192 11.4304 5.99079 10.3076L4.76333 9.42075C3.96626 10.7368 3.50366 12.2811 3.4924 13.9389C3.48201 15.4676 3.86083 16.907 4.53556 18.1639Z" fill="white"/>
<g clip-path="url(#clip1_1323_12987)">
<path d="M27.7746 11.4085C27.8991 11.4085 28 11.5094 28 11.6338V14C28 14.8856 27.9177 15.7515 27.76 16.5915C26.5395 23.1162 20.7913 28.0471 13.9013 27.9996C6.17015 27.9464 -0.0170818 21.6997 3.54307e-05 13.9684C0.0170432 6.25111 6.27865 0 14 0C17.7829 0 21.2152 1.50073 23.7351 3.93848C23.8261 4.02648 23.8285 4.17151 23.739 4.26098L20.3915 7.60845C20.3053 7.69464 20.1661 7.69688 20.0777 7.61283C18.4961 6.10734 16.3562 5.18306 14 5.18306C9.13438 5.18306 5.21629 9.07331 5.18326 13.9388C5.15007 18.8362 9.11032 22.8169 14 22.8169C17.9673 22.8169 21.3228 20.196 22.4293 16.5915H14.2253C14.1009 16.5915 14 16.4906 14 16.3662V11.6338C14 11.5093 14.1009 11.4084 14.2253 11.4084H27.7746V11.4085Z" fill="#2196F3"/>
<path d="M27.7749 11.4085H26.0848C26.2092 11.4085 26.3101 11.5094 26.3101 11.6338V14C26.3101 14.8856 26.2279 15.7515 26.0701 16.5915C24.9058 22.8162 19.6205 27.5901 13.1543 27.9747C13.4017 27.9893 13.6508 27.9979 13.9015 27.9996C20.7916 28.0471 26.5398 23.1162 27.7602 16.5915C27.918 15.7515 28.0003 14.8856 28.0003 14V11.6338C28.0003 11.5094 27.8994 11.4085 27.7749 11.4085Z" fill="#1E88E5"/>
<path d="M5.99208 10.3076L1.74023 7.23549C4.12559 2.92113 8.72219 0 14.0005 0C17.7834 0 21.2157 1.50073 23.7357 3.93848C23.8267 4.02648 23.829 4.17151 23.7395 4.26098L20.392 7.60845C20.306 7.69448 20.1667 7.69716 20.0786 7.61327C18.497 6.1075 16.3569 5.18312 14.0005 5.18312C10.4495 5.18312 7.38869 7.28224 5.99208 10.3076Z" fill="#F44336"/>
<path d="M4.76367 9.42073L5.99113 10.3076C7.2659 7.54621 9.92743 5.55744 13.0824 5.23123C13.1061 5.22866 13.1289 5.22554 13.1531 5.22325C12.8754 5.19689 12.594 5.18311 12.3095 5.18311C9.10165 5.18311 6.30602 6.87421 4.76367 9.42073Z" fill="#E53935"/>
<path d="M22.0445 3.93848C22.1355 4.02648 22.1379 4.17151 22.0483 4.26103L19.3313 6.97807C19.5916 7.17604 19.8408 7.38779 20.0772 7.61288C20.1655 7.69694 20.3048 7.6947 20.391 7.60851L23.7385 4.26103C23.828 4.17151 23.8256 4.02653 23.7346 3.93848C21.2147 1.50073 17.7824 0 13.9995 0C13.7156 0 13.434 0.00946094 13.1543 0.0261406C16.6018 0.231492 19.7136 1.68361 22.0445 3.93848Z" fill="#E53935"/>
<path d="M24.269 23.5144C21.7124 26.2732 18.0572 28 13.9991 28C8.51803 28 3.77269 24.8502 1.47461 20.2614L5.81543 17.2867C7.11803 20.5279 10.2915 22.8169 13.9991 22.8169C16.3259 22.8169 18.442 21.9155 20.0172 20.4428L24.269 23.5144Z" fill="#4CAF50"/>
<path d="M5.81713 17.2868L4.53711 18.1639C6.02379 20.9335 8.94733 22.8169 12.3107 22.8169C12.5951 22.8169 12.8762 22.8029 13.1538 22.7766C9.81516 22.4584 7.01927 20.2781 5.81713 17.2868Z" fill="#43A047"/>
<path d="M13.9992 28C18.0572 28 21.7124 26.2732 24.2691 23.5144L23.2277 22.762C20.8271 25.7496 17.2259 27.7315 13.1562 27.9745C13.4352 27.9911 13.7161 28 13.9992 28Z" fill="#43A047"/>
<path d="M5.18312 14C5.18312 15.1617 5.40788 16.271 5.81634 17.2868L1.47547 20.2614C0.531289 18.3774 0 16.2507 0 14C0 11.5465 0.630984 9.24054 1.73972 7.23547L5.99156 10.3076C5.47269 11.4304 5.18312 12.6817 5.18312 14Z" fill="#FFC107"/>
<path d="M4.53556 18.1639L5.81558 17.2868C5.40711 16.271 5.18235 15.1617 5.18235 14C5.18235 12.6817 5.47192 11.4304 5.99079 10.3076L4.76333 9.42075C3.96626 10.7368 3.50366 12.2811 3.4924 13.9389C3.48201 15.4676 3.86083 16.907 4.53556 18.1639Z" fill="#FFB300"/>
</g>
</g>
<defs>
<clipPath id="clip0_1323_12987">
<rect width="28" height="28" fill="white"/>
</clipPath>
<clipPath id="clip1_1323_12987">
<rect width="28" height="28" fill="white"/>
</clipPath>
</defs>
</svg>
