<svg width="24" height="24" viewBox="0 0 24 24" fill="none" xmlns="http://www.w3.org/2000/svg">
<path d="M16.75 2H7.25C6.83579 2 6.5 2.33579 6.5 2.75C6.5 3.16421 6.83579 3.5 7.25 3.5L16.75 3.5C17.1642 3.5 17.5 3.16421 17.5 2.75C17.5 2.33579 17.1642 2 16.75 2Z" fill="#151948"/>
<path d="M12 9.5C9.23858 9.5 7 11.7386 7 14.5C7 17.2614 9.23858 19.5 12 19.5C14.7614 19.5 17 17.2614 17 14.5C17 11.7386 14.7614 9.5 12 9.5ZM15.5 14.5C15.5 16.433 13.933 18 12 18C10.067 18 8.5 16.433 8.5 14.5C8.5 12.567 10.067 11 12 11C13.933 11 15.5 12.567 15.5 14.5Z" fill="#151948"/>
<path d="M1 9.25C1 8.55964 1.55964 8 2.25 8H21.75C22.4404 8 23 8.55965 23 9.25V19.75C23 20.4404 22.4404 21 21.75 21H2.25C1.55964 21 1 20.4404 1 19.75V9.25ZM5.00179 9.5C4.83602 10.9107 3.83125 12.0648 2.5 12.4498V16.7489C3.76818 17.1157 4.74008 18.1804 4.97263 19.5H12H18.8379C19.1358 18.1813 20.1781 17.1448 21.5 16.8554V12.669C20.0073 12.3422 18.871 11.0627 18.7607 9.5H12H5.00179Z" fill="#151948"/>
<path d="M20.25 5H3.75C3.33579 5 3 5.33579 3 5.75C3 6.16422 3.33579 6.5 3.75 6.5L20.25 6.5C20.6642 6.5 21 6.16421 21 5.75C21 5.33579 20.6642 5 20.25 5Z" fill="#151948"/>
<rect x="21" y="5" width="1.6" height="18" rx="0.8" transform="rotate(90 21 5)" fill="#2E3BE3"/>
<rect x="18" y="2" width="1.6" height="12" rx="0.8" transform="rotate(90 18 2)" fill="#2E3BE3"/>
</svg>
