<svg width="24" height="24" viewBox="0 0 24 24" fill="none" xmlns="http://www.w3.org/2000/svg">
<path fill-rule="evenodd" clip-rule="evenodd" d="M7.58579 2.58579C7.96086 2.21071 8.46957 2 9 2H15C15.5304 2 16.0391 2.21071 16.4142 2.58579C16.7893 2.96086 17 3.46957 17 4V6H20C20.5304 6 21.0391 6.21071 21.4142 6.58579C21.7893 6.96086 22 7.46957 22 8V20C22 20.5304 21.7893 21.0391 21.4142 21.4142C21.0391 21.7893 20.5304 22 20 22H4C3.46957 22 2.96086 21.7893 2.58579 21.4142C2.21071 21.0391 2 20.5304 2 20V8C2 7.46957 2.21071 6.96086 2.58579 6.58579C2.96086 6.21071 3.46957 6 4 6H7V4C7 3.46957 7.21071 2.96086 7.58579 2.58579ZM9 6H15V4H9V6ZM4 8V20H20V8H4Z" fill="#151948"/>
<path fill-rule="evenodd" clip-rule="evenodd" d="M3.99805 6L3.99969 6L20.0013 6C20.3238 6.00053 20.6413 6.07902 20.9269 6.22876C21.2124 6.3785 21.4575 6.59507 21.6413 6.86C21.8394 7.14552 21.8751 7.51339 21.7355 7.83163L19.9184 11.975C19.9179 11.9761 19.9174 11.9773 19.9169 11.9784C19.5336 12.8682 18.9 13.6275 18.0931 14.1639C17.2852 14.701 16.3385 14.9915 15.3684 15L15.3597 15L12.9997 15C12.4474 15 11.9997 14.5523 11.9997 14C11.9997 13.4477 12.4474 13 12.9997 13H15.355C15.9357 12.9942 16.5022 12.8199 16.9858 12.4984C17.4706 12.1761 17.8511 11.7198 18.081 11.185L18.0839 11.1784L19.4778 8H4.52161L5.91841 11.185C6.14832 11.7198 6.52881 12.1761 7.01355 12.4984C7.49717 12.8199 8.0637 12.9942 8.64437 13H10.9997C11.552 13 11.9997 13.4477 11.9997 14C11.9997 14.5523 11.552 15 10.9997 15H8.63099C7.66088 14.9916 6.71416 14.701 5.90626 14.1639C5.09943 13.6275 4.46584 12.8682 4.08251 11.9785L2.26389 7.83163C2.12433 7.51339 2.15997 7.14552 2.35805 6.86C2.54184 6.59507 2.78696 6.3785 3.07252 6.22876C3.35808 6.07901 3.67561 6.00053 3.99805 6Z" fill="#2E3BE3"/>
<path fill-rule="evenodd" clip-rule="evenodd" d="M10 13C10 12.4477 10.4477 12 11 12H13C13.5523 12 14 12.4477 14 13V15C14 15.5523 13.5523 16 13 16H11C10.4477 16 10 15.5523 10 15V13Z" fill="#151948"/>
</svg>
