<svg width="16" height="16" viewBox="0 0 16 16" fill="none" xmlns="http://www.w3.org/2000/svg">
<g clip-path="url(#clip0_1468_15901)">
<path d="M7.99307 15.6414C12.2134 15.6414 15.6346 12.2202 15.6346 7.99991C15.6346 3.77962 12.2134 0.358398 7.99307 0.358398C3.77278 0.358398 0.351562 3.77962 0.351562 7.99991C0.351562 12.2202 3.77278 15.6414 7.99307 15.6414Z" fill="#4767D9"/>
<path d="M12.5592 8.61529V11.7657H10.7326V8.82643C10.7326 8.0884 10.4689 7.5844 9.80759 7.5844C9.3029 7.5844 9.00309 7.92372 8.87068 8.25227C8.8226 8.36969 8.8102 8.53274 8.8102 8.69743V11.7656H6.98353C6.98353 11.7656 7.00805 6.78739 6.98353 6.27208H8.81034V7.05056C8.80666 7.05669 8.80149 7.06269 8.79822 7.06855H8.81034V7.05056C9.05308 6.67706 9.48598 6.14309 10.4565 6.14309C11.6582 6.14309 12.5592 6.92824 12.5592 8.61529ZM5.07268 3.62402C4.44785 3.62402 4.03906 4.03417 4.03906 4.57305C4.03906 5.10048 4.436 5.52248 5.0487 5.52248H5.06055C5.69764 5.52248 6.09376 5.10048 6.09376 4.57305C6.08164 4.03417 5.69764 3.62402 5.07268 3.62402ZM4.14763 11.7657H5.97362V6.27208H4.14763V11.7657Z" fill="#F1F2F2"/>
</g>
<defs>
<clipPath id="clip0_1468_15901">
<rect width="15.283" height="15.283" fill="white" transform="translate(0.351562 0.359375)"/>
</clipPath>
</defs>
</svg>
