<svg width="20" height="20" viewBox="0 0 20 20" fill="none" xmlns="http://www.w3.org/2000/svg">
<path fill-rule="evenodd" clip-rule="evenodd" d="M4.61549 2.39648C5.2013 1.93937 5.92305 1.6911 6.66609 1.6911C7.40914 1.6911 8.13089 1.93937 8.7167 2.39648C9.1963 2.77071 9.56227 3.26736 9.77833 3.83065C10.2925 4.12391 10.7314 4.53601 11.0571 5.0347C11.455 5.64386 11.6666 6.35578 11.6661 7.08334C11.6666 7.81089 11.455 8.52282 11.0571 9.13197C10.7314 9.63067 10.2925 10.0428 9.77833 10.336C9.56227 10.8993 9.1963 11.396 8.7167 11.7702C8.13089 12.2273 7.40914 12.4756 6.66609 12.4756C5.92305 12.4756 5.2013 12.2273 4.61549 11.7702C4.13618 11.3962 3.77036 10.8999 3.55424 10.337C3.03913 10.0445 2.59908 9.63286 2.27232 9.13426C1.87292 8.52481 1.66016 7.812 1.66016 7.08334C1.66016 6.35467 1.87292 5.64186 2.27232 5.03241C2.59908 4.53381 3.03913 4.12214 3.55424 3.82964C3.77036 3.26676 4.13618 2.77049 4.61549 2.39648ZM11.6661 7.08334C11.6661 7.08359 11.6661 7.08383 11.6661 7.08408L10.8328 7.08334L11.6661 7.0826C11.6661 7.08284 11.6661 7.08309 11.6661 7.08334ZM6.66609 3.35777C6.29457 3.35777 5.9337 3.4819 5.64079 3.71046C5.34789 3.93901 5.13975 4.25888 5.04943 4.61926C4.98656 4.87011 4.8108 5.07755 4.57368 5.18076C4.20317 5.34204 3.8878 5.60799 3.66631 5.94597C3.44481 6.28395 3.32682 6.67925 3.32682 7.08334C3.32682 7.48743 3.44481 7.88273 3.66631 8.22071C3.8878 8.55869 4.20317 8.82464 4.57368 8.98592C4.8108 9.08913 4.98656 9.29657 5.04943 9.54742C5.13975 9.9078 5.34789 10.2277 5.64079 10.4562C5.9337 10.6848 6.29457 10.8089 6.66609 10.8089C7.03762 10.8089 7.39849 10.6848 7.6914 10.4562C7.9843 10.2277 8.19244 9.9078 8.28276 9.54742C8.34547 9.2972 8.52052 9.09014 8.75681 8.98666C9.12653 8.82475 9.441 8.55853 9.66171 8.2206C9.88242 7.88267 9.99979 7.4877 9.99943 7.08408V7.0826C9.99979 6.67898 9.88242 6.28401 9.66171 5.94608C9.441 5.60815 9.12653 5.34193 8.75681 5.18002C8.52052 5.07654 8.34547 4.86947 8.28276 4.61926C8.19244 4.25888 7.9843 3.93901 7.6914 3.71046C7.39849 3.4819 7.03762 3.35777 6.66609 3.35777Z" fill="#151948"/>
<path fill-rule="evenodd" clip-rule="evenodd" d="M6.66732 6.66667C7.12756 6.66667 7.50065 7.03977 7.50065 7.50001V17.5C7.50065 17.9602 7.12756 18.3333 6.66732 18.3333C6.20708 18.3333 5.83398 17.9602 5.83398 17.5V7.50001C5.83398 7.03977 6.20708 6.66667 6.66732 6.66667Z" fill="#2E3BE3"/>
<path fill-rule="evenodd" clip-rule="evenodd" d="M15.8333 11.6667C16.2936 11.6667 16.6667 12.0398 16.6667 12.5V17.5C16.6667 17.9602 16.2936 18.3333 15.8333 18.3333C15.3731 18.3333 15 17.9602 15 17.5V12.5C15 12.0398 15.3731 11.6667 15.8333 11.6667Z" fill="#2E3BE3"/>
<path fill-rule="evenodd" clip-rule="evenodd" d="M1.66602 17.5C1.66602 17.0398 2.03911 16.6667 2.49935 16.6667H17.4993C17.9596 16.6667 18.3327 17.0398 18.3327 17.5C18.3327 17.9602 17.9596 18.3333 17.4993 18.3333H2.49935C2.03911 18.3333 1.66602 17.9602 1.66602 17.5Z" fill="#151948"/>
<path fill-rule="evenodd" clip-rule="evenodd" d="M16.6673 8.33333C16.6673 7.87309 16.2942 7.49999 15.834 7.49999C15.3737 7.49999 15.0007 7.87309 15.0007 8.33333V10.8333C15.0007 11.2936 15.3737 11.6667 15.834 11.6667C16.2942 11.6667 16.6673 11.2936 16.6673 10.8333V8.33333ZM15.834 5.83333C17.2147 5.83333 18.334 6.95262 18.334 8.33333V10.8333C18.334 12.214 17.2147 13.3333 15.834 13.3333C14.4533 13.3333 13.334 12.214 13.334 10.8333V8.33333C13.334 6.95262 14.4533 5.83333 15.834 5.83333Z" fill="#151948"/>
</svg>
