<svg width="20" height="20" viewBox="0 0 20 20" fill="none" xmlns="http://www.w3.org/2000/svg">
<path d="M13.3333 3.33333C13.3333 3.11232 13.2455 2.90036 13.0893 2.74408C12.933 2.5878 12.721 2.5 12.5 2.5H7.5C7.27899 2.5 7.06702 2.5878 6.91074 2.74408C6.75446 2.90036 6.66667 3.11232 6.66667 3.33333V5.83333H13.3333V3.33333ZM17.5 16.6667V6.66667C17.5 6.44565 17.4122 6.23369 17.2559 6.07741C17.0996 5.92113 16.8877 5.83333 16.6667 5.83333H3.33333C3.11232 5.83333 2.90036 5.92113 2.74408 6.07741C2.5878 6.23369 2.5 6.44565 2.5 6.66667V16.6667C2.5 16.8877 2.5878 17.0996 2.74408 17.2559C2.90036 17.4122 3.11232 17.5 3.33333 17.5H16.6667C16.8877 17.5 17.0996 17.4122 17.2559 17.2559C17.4122 17.0996 17.5 16.8877 17.5 16.6667Z" stroke="#151948" stroke-width="2" stroke-linecap="round" stroke-linejoin="round"/>
<path d="M9.16706 11.6667H7.20039C6.55364 11.661 5.9225 11.4674 5.3839 11.1093C4.8453 10.7512 4.42251 10.2442 4.16706 9.65L2.65039 6.19167C2.72697 6.08128 2.8291 5.99104 2.94809 5.92865C3.06707 5.86625 3.19937 5.83355 3.33372 5.83333H16.6671C16.8014 5.83355 16.9337 5.86625 17.0527 5.92865C17.1717 5.99104 17.2738 6.08128 17.3504 6.19167L15.8337 9.65C15.5783 10.2442 15.1555 10.7512 14.6169 11.1093C14.0783 11.4674 13.4471 11.661 12.8004 11.6667H10.8337" stroke="#2E3BE3" stroke-width="2" stroke-linecap="round" stroke-linejoin="round"/>
<path d="M10.8327 10.8333H9.16602V12.5H10.8327V10.8333Z" stroke="#151948" stroke-width="2" stroke-linecap="round" stroke-linejoin="round"/>
</svg>
