<svg width="24" height="24" viewBox="0 0 24 24" fill="none" xmlns="http://www.w3.org/2000/svg">
<path d="M9.00009 8C9.00009 6.34315 10.3432 5 12.0001 5C13.6569 5 15.0001 6.34315 15.0001 8C15.0001 9.65685 13.6569 11 12.0001 11C10.3432 11 9.00009 9.65685 9.00009 8Z" fill="white"/>
<path d="M12.0001 19C14.3788 19 16.4805 17.8135 17.7454 16C16.4805 14.1865 14.3788 13 12.0001 13C9.62135 13 7.51973 14.1865 6.25478 16C7.51973 17.8135 9.62135 19 12.0001 19Z" fill="white"/>
<path d="M22 12C22 17.5228 17.5228 22 12 22C6.47715 22 2 17.5228 2 12C2 6.47715 6.47715 2 12 2C17.5228 2 22 6.47715 22 12ZM20.5 12C20.5 7.30558 16.6944 3.5 12 3.5C7.30558 3.5 3.5 7.30558 3.5 12C3.5 14.0748 4.24343 15.976 5.4784 17.4517C5.47839 17.4517 5.47841 17.4517 5.4784 17.4517C6.43611 18.5961 7.68935 19.4847 9.12087 20C10.02 20.3236 10.9894 20.5 12 20.5C16.6944 20.5 20.5 16.6944 20.5 12Z" fill="white"/>
</svg>
