<svg width="20" height="20" viewBox="0 0 20 20" fill="none" xmlns="http://www.w3.org/2000/svg">
<path fill-rule="evenodd" clip-rule="evenodd" d="M2.5 10C2.5 9.65482 2.77982 9.375 3.125 9.375L16.875 9.375C17.2202 9.375 17.5 9.65482 17.5 10C17.5 10.3452 17.2202 10.625 16.875 10.625L3.125 10.625C2.77982 10.625 2.5 10.3452 2.5 10Z" fill="#2E3BE3"/>
<path fill-rule="evenodd" clip-rule="evenodd" d="M10 2.5C10.3452 2.5 10.625 2.77982 10.625 3.125L10.625 16.875C10.625 17.2202 10.3452 17.5 10 17.5C9.65482 17.5 9.375 17.2202 9.375 16.875L9.375 3.125C9.375 2.77982 9.65482 2.5 10 2.5Z" fill="#2E3BE3"/>
</svg>
