<svg width="24" height="24" viewBox="0 0 24 24" fill="none" xmlns="http://www.w3.org/2000/svg">
<path d="M20.71 16.0898L15.8 20.9998H13V18.1998L17.91 13.2898C18.0969 13.1065 18.3482 13.0039 18.61 13.0039C18.8718 13.0039 19.1231 13.1065 19.31 13.2898L20.71 14.6898C20.8932 14.8767 20.9959 15.128 20.9959 15.3898C20.9959 15.6515 20.8932 15.9028 20.71 16.0898V16.0898Z" stroke="#2E3BE3" stroke-width="2" stroke-linecap="round" stroke-linejoin="round"/>
<path d="M17 9.27045C17.005 9.18052 17.005 9.09038 17 9.00045C16.9968 7.8332 16.6533 6.69221 16.0114 5.71728C15.3696 4.74235 14.4573 3.9758 13.3863 3.51156C12.3154 3.04732 11.1322 2.90555 9.98191 3.10361C8.83159 3.30167 7.76401 3.83097 6.90998 4.62665C6.05595 5.42233 5.45255 6.44984 5.17371 7.5833C4.89487 8.71676 4.9527 9.90694 5.34012 11.008C5.72753 12.1091 6.42771 13.0733 7.35486 13.7824C8.28201 14.4915 9.39587 14.9148 10.56 15.0004" stroke="#151948" stroke-width="2" stroke-linecap="round" stroke-linejoin="round"/>
<path d="M9 21C4.55 20.63 3 19 3 19V18C3.00351 16.9406 3.34339 15.9098 3.97065 15.0561C4.5979 14.2023 5.48009 13.5699 6.49 13.25" stroke="#151948" stroke-width="2" stroke-linecap="round" stroke-linejoin="round"/>
</svg>
