<svg width="108" height="109" viewBox="0 0 108 109" fill="none" xmlns="http://www.w3.org/2000/svg">
<path d="M37.8005 32.7C37.8005 23.6701 45.0535 16.35 54.0005 16.35C62.9475 16.35 70.2005 23.6701 70.2005 32.7C70.2005 41.7299 62.9475 49.05 54.0005 49.05C45.0535 49.05 37.8005 41.7299 37.8005 32.7Z" fill="#EDEDED"/>
<path d="M54.0005 92.65C66.8457 92.65 78.1945 86.1835 85.0252 76.3C78.1945 66.4165 66.8457 59.95 54.0005 59.95C41.1553 59.95 29.8065 66.4165 22.9758 76.3C29.8065 86.1835 41.1553 92.65 54.0005 92.65Z" fill="#EDEDED"/>
<path d="M108 54.5C108 84.5995 83.8234 109 54 109C24.1766 109 0 84.5995 0 54.5C0 24.4005 24.1766 0 54 0C83.8234 0 108 24.4005 108 54.5ZM99.9 54.5C99.9 28.9154 79.3499 8.175 54 8.175C28.6501 8.175 8.1 28.9154 8.1 54.5C8.1 65.8078 12.1145 76.169 18.7834 84.2118C18.7833 84.2119 18.7834 84.2116 18.7834 84.2118C23.955 90.449 30.7225 95.2918 38.4527 98.1C43.3079 99.8638 48.5428 100.825 54 100.825C79.3499 100.825 99.9 80.0846 99.9 54.5Z" fill="#EDEDED"/>
</svg>
