<svg width="20" height="20" viewBox="0 0 20 20" fill="none" xmlns="http://www.w3.org/2000/svg">
<path fill-rule="evenodd" clip-rule="evenodd" d="M15.9565 4.04354C16.1395 4.2266 16.1395 4.5234 15.9565 4.70646L4.70646 15.9565C4.5234 16.1395 4.2266 16.1395 4.04354 15.9565C3.86049 15.7734 3.86049 15.4766 4.04354 15.2935L15.2935 4.04354C15.4766 3.86049 15.7734 3.86049 15.9565 4.04354Z" fill="#0A0A0A"/>
<path fill-rule="evenodd" clip-rule="evenodd" d="M4.04354 4.04354C4.2266 3.86049 4.5234 3.86049 4.70646 4.04354L15.9565 15.2935C16.1395 15.4766 16.1395 15.7734 15.9565 15.9565C15.7734 16.1395 15.4766 16.1395 15.2935 15.9565L4.04354 4.70646C3.86049 4.5234 3.86049 4.2266 4.04354 4.04354Z" fill="#0A0A0A"/>
</svg>
