<svg width="16" height="16" viewBox="0 0 16 16" fill="none" xmlns="http://www.w3.org/2000/svg">
<path fill-rule="evenodd" clip-rule="evenodd" d="M8 6C8.27614 6 8.5 6.22386 8.5 6.5V9C8.5 9.27614 8.27614 9.5 8 9.5C7.72386 9.5 7.5 9.27614 7.5 9V6.5C7.5 6.22386 7.72386 6 8 6Z" fill="#D03375"/>
<path fill-rule="evenodd" clip-rule="evenodd" d="M7.25068 1.70143C7.47834 1.56941 7.73684 1.49988 8.00002 1.49988C8.26319 1.49988 8.52169 1.56941 8.74936 1.70143C8.97663 1.83323 9.16512 2.02263 9.29582 2.25053C9.29604 2.25091 9.29626 2.2513 9.29648 2.25169L14.7955 11.75C14.927 11.9777 14.9963 12.2359 14.9965 12.4987C14.9967 12.7616 14.9279 13.0199 14.7969 13.2477C14.6658 13.4756 14.4772 13.6651 14.2499 13.7971C14.0226 13.9291 13.7646 13.9991 13.5018 14L13.5 14H2.50002L2.49826 14C2.2354 13.9991 1.9774 13.9291 1.75011 13.7971C1.52282 13.6651 1.33421 13.4756 1.20318 13.2477C1.07215 13.0199 1.00331 12.7616 1.00354 12.4987C1.00377 12.2359 1.07308 11.9777 1.20451 11.75L6.70356 2.25169C6.70378 2.2513 6.704 2.25091 6.70422 2.25053C6.83491 2.02263 7.0234 1.83322 7.25068 1.70143ZM7.13752 2.50004L7.57023 2.75055L2.07053 12.25C2.07049 12.2501 2.07057 12.25 2.07053 12.25C2.02679 12.3259 2.00362 12.4121 2.00354 12.4996C2.00346 12.5872 2.02641 12.6733 2.07009 12.7493C2.11376 12.8252 2.17663 12.8884 2.2524 12.9324C2.32796 12.9763 2.41371 12.9996 2.5011 13H13.4989C13.5863 12.9996 13.6721 12.9763 13.7476 12.9324C13.8234 12.8884 13.8863 12.8252 13.9299 12.7493C13.9736 12.6733 13.9966 12.5872 13.9965 12.4996C13.9964 12.4121 13.9734 12.3261 13.9297 12.2503C13.9296 12.2502 13.9297 12.2504 13.9297 12.2503L8.42855 2.74839C8.38534 2.67289 8.32296 2.61014 8.24771 2.5665C8.17245 2.52286 8.08701 2.49988 8.00002 2.49988C7.91303 2.49988 7.82758 2.52286 7.75233 2.5665C7.67708 2.61014 7.61469 2.67288 7.57148 2.74838L7.13752 2.50004Z" fill="#D03375"/>
<path d="M8 12C8.41421 12 8.75 11.6642 8.75 11.25C8.75 10.8358 8.41421 10.5 8 10.5C7.58579 10.5 7.25 10.8358 7.25 11.25C7.25 11.6642 7.58579 12 8 12Z" fill="#D03375"/>
</svg>
