<svg width="20" height="20" viewBox="0 0 20 20" fill="none" xmlns="http://www.w3.org/2000/svg">
<path fill-rule="evenodd" clip-rule="evenodd" d="M11.0593 2.02135C11.3235 1.64479 11.8428 1.55355 12.2196 1.8175L16.3112 4.68417C16.6879 4.94808 16.7796 5.46726 16.516 5.84419L15.0244 7.97753C14.8684 8.20051 14.6135 8.33333 14.3414 8.33333H4.64974C4.33881 8.33333 4.05374 8.16023 3.91034 7.88435C3.76693 7.60846 3.78904 7.27568 3.96769 7.0212L6.89269 2.85453C7.15527 2.48049 7.67012 2.38771 8.04675 2.64656L9.78318 3.83998L11.0593 2.02135ZM8.82584 5.20437L7.78272 4.48745L6.25291 6.66667H7.79979L8.82584 5.20437ZM9.84237 6.66667L10.6803 5.48093C10.7062 5.44432 10.7289 5.40593 10.7483 5.36618L11.9453 3.66032L14.673 5.57145L13.9073 6.66667H9.84237Z" fill="#2E3BE3"/>
<path fill-rule="evenodd" clip-rule="evenodd" d="M1.66602 8.33333C1.66602 7.41286 2.41221 6.66666 3.33268 6.66666H16.666C17.5865 6.66666 18.3327 7.41286 18.3327 8.33333V16.6667C18.3327 17.5871 17.5865 18.3333 16.666 18.3333H3.33268C2.41221 18.3333 1.66602 17.5871 1.66602 16.6667V8.33333ZM16.666 8.33333H3.33268V16.6667H16.666V8.33333Z" fill="#151948"/>
<path fill-rule="evenodd" clip-rule="evenodd" d="M12.1542 10.4882C12.4667 10.1756 12.8907 10 13.3327 10H17.4993C17.9596 10 18.3327 10.3731 18.3327 10.8333V14.1667C18.3327 14.6269 17.9596 15 17.4993 15H13.3327C12.8907 15 12.4667 14.8244 12.1542 14.5118C11.8416 14.1993 11.666 13.7754 11.666 13.3333V11.6667C11.666 11.2246 11.8416 10.8007 12.1542 10.4882ZM16.666 11.6667L13.3327 11.6667L13.3327 13.3333H16.666V11.6667Z" fill="#2E3BE3"/>
</svg>
