<svg width="24" height="24" viewBox="0 0 24 24" fill="none" xmlns="http://www.w3.org/2000/svg">
<path d="M12 15C13.6569 15 15 13.6569 15 12C15 10.3431 13.6569 9 12 9C10.3431 9 9 10.3431 9 12C9 13.6569 10.3431 15 12 15Z" stroke="#2E3BE3" stroke-width="2" stroke-linecap="round" stroke-linejoin="round"/>
<path d="M20 10H19.41C19.2033 9.99918 19.0019 9.93431 18.8336 9.81433C18.6652 9.69434 18.5382 9.52514 18.47 9.33C18.381 9.1427 18.3525 8.93237 18.3883 8.72812C18.4241 8.52388 18.5226 8.33583 18.67 8.19L19.08 7.78C19.1737 7.68704 19.2481 7.57644 19.2989 7.45458C19.3497 7.33272 19.3758 7.20201 19.3758 7.07C19.3758 6.93799 19.3497 6.80728 19.2989 6.68542C19.2481 6.56356 19.1737 6.45296 19.08 6.36L17.66 4.93C17.567 4.83627 17.4564 4.76188 17.3346 4.71111C17.2127 4.66034 17.082 4.6342 16.95 4.6342C16.818 4.6342 16.6873 4.66034 16.5654 4.71111C16.4436 4.76188 16.333 4.83627 16.24 4.93L15.83 5.34C15.6842 5.48742 15.4961 5.58586 15.2919 5.62169C15.0876 5.65752 14.8773 5.62897 14.69 5.54C14.4895 5.47463 14.3148 5.34755 14.1909 5.17693C14.067 5.00631 14.0002 4.80088 14 4.59V4C14 3.73478 13.8946 3.48043 13.7071 3.29289C13.5196 3.10536 13.2652 3 13 3H11C10.7348 3 10.4804 3.10536 10.2929 3.29289C10.1054 3.48043 10 3.73478 10 4V4.59C9.99918 4.79672 9.93431 4.9981 9.81433 5.16643C9.69434 5.33477 9.52514 5.46178 9.33 5.53V5.53C9.1427 5.61897 8.93237 5.64752 8.72812 5.61169C8.52388 5.57586 8.33583 5.47742 8.19 5.33L7.78 4.92C7.68704 4.82627 7.57644 4.75188 7.45458 4.70111C7.33272 4.65034 7.20201 4.6242 7.07 4.6242C6.93799 4.6242 6.80728 4.65034 6.68542 4.70111C6.56356 4.75188 6.45296 4.82627 6.36 4.92L4.93 6.34C4.83627 6.43296 4.76188 6.54356 4.71111 6.66542C4.66034 6.78728 4.6342 6.91799 4.6342 7.05C4.6342 7.18201 4.66034 7.31272 4.71111 7.43458C4.76188 7.55644 4.83627 7.66704 4.93 7.76L5.34 8.17C5.48742 8.31583 5.58586 8.50388 5.62169 8.70813C5.65752 8.91237 5.62897 9.1227 5.54 9.31C5.47178 9.50514 5.34477 9.67434 5.17643 9.79433C5.0081 9.91431 4.80672 9.97918 4.6 9.98H4C3.73478 9.98 3.48043 10.0854 3.29289 10.2729C3.10536 10.4604 3 10.7148 3 10.98V12.98C3 13.2452 3.10536 13.4996 3.29289 13.6871C3.48043 13.8746 3.73478 13.98 4 13.98H4.59C4.79672 13.9808 4.9981 14.0457 5.16643 14.1657C5.33477 14.2857 5.46178 14.4549 5.53 14.65V14.65C5.61897 14.8373 5.64752 15.0476 5.61169 15.2519C5.57586 15.4561 5.47742 15.6442 5.33 15.79L4.92 16.2C4.82627 16.293 4.75188 16.4036 4.70111 16.5254C4.65034 16.6473 4.6242 16.778 4.6242 16.91C4.6242 17.042 4.65034 17.1727 4.70111 17.2946C4.75188 17.4164 4.82627 17.527 4.92 17.62L6.33 19.03C6.42296 19.1237 6.53356 19.1981 6.65542 19.2489C6.77728 19.2997 6.90799 19.3258 7.04 19.3258C7.17201 19.3258 7.30272 19.2997 7.42458 19.2489C7.54644 19.1981 7.65704 19.1237 7.75 19.03L8.16 18.62C8.30583 18.4726 8.49388 18.3741 8.69812 18.3383C8.90237 18.3025 9.1127 18.331 9.3 18.42C9.49514 18.4882 9.66434 18.6152 9.78433 18.7836C9.90431 18.9519 9.96918 19.1533 9.97 19.36V20C9.97 20.2652 10.0754 20.5196 10.2629 20.7071C10.4504 20.8946 10.7048 21 10.97 21H12.97C13.2352 21 13.4896 20.8946 13.6771 20.7071C13.8646 20.5196 13.97 20.2652 13.97 20V19.41C13.9708 19.2033 14.0357 19.0019 14.1557 18.8336C14.2757 18.6652 14.4449 18.5382 14.64 18.47C14.8273 18.381 15.0376 18.3525 15.2419 18.3883C15.4461 18.4241 15.6342 18.5226 15.78 18.67L16.19 19.08C16.283 19.1737 16.3936 19.2481 16.5154 19.2989C16.6373 19.3497 16.768 19.3758 16.9 19.3758C17.032 19.3758 17.1627 19.3497 17.2846 19.2989C17.4064 19.2481 17.517 19.1737 17.61 19.08L19.02 17.67C19.1137 17.577 19.1881 17.4664 19.2389 17.3446C19.2897 17.2227 19.3158 17.092 19.3158 16.96C19.3158 16.828 19.2897 16.6973 19.2389 16.5754C19.1881 16.4536 19.1137 16.343 19.02 16.25L18.61 15.84C18.4626 15.6942 18.3641 15.5061 18.3283 15.3019C18.2925 15.0976 18.321 14.8873 18.41 14.7V14.7C18.4782 14.5049 18.6052 14.3357 18.7736 14.2157C18.9419 14.0957 19.1433 14.0308 19.35 14.03H20C20.2652 14.03 20.5196 13.9246 20.7071 13.7371C20.8946 13.5496 21 13.2952 21 13.03V11C21 10.7348 20.8946 10.4804 20.7071 10.2929C20.5196 10.1054 20.2652 10 20 10Z" stroke="#151948" stroke-width="2" stroke-linecap="round" stroke-linejoin="round"/>
</svg>
