<svg width="24" height="24" viewBox="0 0 24 24" fill="none" xmlns="http://www.w3.org/2000/svg">
<path d="M8.91992 10.7497L15.051 7.69342M8.91992 13.241L15.051 16.3066L8.91992 13.241Z" stroke="#424242" stroke-width="1.85229" stroke-linecap="round" stroke-linejoin="round"/>
<path d="M6.43859 9.22157C6.98812 9.22157 7.5253 9.38452 7.98221 9.68982C8.43912 9.99512 8.79524 10.429 9.00554 10.9367C9.21583 11.4444 9.27085 12.0031 9.16365 12.542C9.05644 13.081 8.79182 13.5761 8.40325 13.9647C8.01468 14.3532 7.5196 14.6178 6.98064 14.7251C6.44168 14.8323 5.88303 14.7772 5.37533 14.5669C4.86764 14.3567 4.43371 14.0005 4.12841 13.5436C3.82311 13.0867 3.66016 12.5495 3.66016 12C3.66016 11.2631 3.95288 10.5564 4.47394 10.0354C4.995 9.51429 5.70171 9.22157 6.43859 9.22157V9.22157ZM14.7739 17.5569C14.7739 18.1064 14.9369 18.6436 15.2422 19.1005C15.5475 19.5574 15.9814 19.9135 16.4891 20.1238C16.9968 20.3341 17.5554 20.3891 18.0944 20.2819C18.6334 20.1747 19.1284 19.9101 19.517 19.5215C19.9056 19.133 20.1702 18.6379 20.2774 18.0989C20.3846 17.56 20.3296 17.0013 20.1193 16.4936C19.909 15.9859 19.5529 15.552 19.096 15.2467C18.6391 14.9414 18.1019 14.7784 17.5523 14.7784C16.8155 14.7784 16.1088 15.0712 15.5877 15.5922C15.0666 16.1133 14.7739 16.82 14.7739 17.5569ZM17.5523 9.22157C18.1019 9.22157 18.6391 9.05861 19.096 8.75331C19.5529 8.44802 19.909 8.01408 20.1193 7.50639C20.3296 6.9987 20.3846 6.44005 20.2774 5.90108C20.1702 5.36212 19.9056 4.86705 19.517 4.47848C19.1284 4.0899 18.6334 3.82528 18.0944 3.71808C17.5554 3.61087 16.9968 3.66589 16.4891 3.87619C15.9814 4.08648 15.5475 4.4426 15.2422 4.89951C14.9369 5.35642 14.7739 5.8936 14.7739 6.44313C14.7739 7.18001 15.0666 7.88672 15.5877 8.40778C16.1088 8.92884 16.8155 9.22157 17.5523 9.22157Z" stroke="#424242" stroke-width="1.85229" stroke-linecap="round" stroke-linejoin="round"/>
</svg>
