<svg width="26" height="26" viewBox="0 0 26 26" fill="none" xmlns="http://www.w3.org/2000/svg">
<path d="M4.33283 15.1667L4.127 13C4.01091 11.7646 4.15396 10.5186 4.54699 9.34169C4.94003 8.16476 5.5744 7.08283 6.40953 6.16511C7.24465 5.2474 8.26213 4.5141 9.39689 4.01213C10.5316 3.51017 11.7587 3.25059 12.9995 3.25V3.25C14.2403 3.25059 15.4674 3.51017 16.6021 4.01213C17.7369 4.5141 18.7543 5.2474 19.5895 6.16511C20.4246 7.08283 21.059 8.16476 21.452 9.34169C21.845 10.5186 21.9881 11.7646 21.872 13L21.6662 15.1667" stroke="#2E3BE3" stroke-width="2" stroke-linecap="round" stroke-linejoin="round"/>
<path d="M18.4167 18.417V19.5003C18.4494 20.0383 18.2688 20.5675 17.9139 20.9731C17.5589 21.3787 17.0584 21.6281 16.5208 21.667H13" stroke="#2E3BE3" stroke-width="2" stroke-linecap="round" stroke-linejoin="round"/>
<path d="M4.33398 15.1663V14.083C4.33398 13.2211 4.67639 12.3944 5.28589 11.7849C5.89538 11.1754 6.72203 10.833 7.58398 10.833H8.66732C8.95464 10.833 9.23019 10.9471 9.43335 11.1503C9.63651 11.3535 9.75065 11.629 9.75065 11.9163V17.333C9.75065 17.6203 9.63651 17.8959 9.43335 18.099C9.23019 18.3022 8.95464 18.4163 8.66732 18.4163H7.58398C6.72203 18.4163 5.89538 18.0739 5.28589 17.4644C4.67639 16.8549 4.33398 16.0283 4.33398 15.1663V15.1663ZM21.6673 15.1663V14.083C21.6673 13.2211 21.3249 12.3944 20.7154 11.7849C20.1059 11.1754 19.2793 10.833 18.4173 10.833H17.334C17.0467 10.833 16.7711 10.9471 16.568 11.1503C16.3648 11.3535 16.2507 11.629 16.2507 11.9163V17.333C16.2507 17.6203 16.3648 17.8959 16.568 18.099C16.7711 18.3022 17.0467 18.4163 17.334 18.4163H18.4173C19.2793 18.4163 20.1059 18.0739 20.7154 17.4644C21.3249 16.8549 21.6673 16.0283 21.6673 15.1663V15.1663Z" stroke="#151948" stroke-width="2" stroke-linecap="round" stroke-linejoin="round"/>
</svg>
