<svg width="78" height="78" viewBox="0 0 78 78" fill="none" xmlns="http://www.w3.org/2000/svg">
<path fill-rule="evenodd" clip-rule="evenodd" d="M39 14.625C25.5381 14.625 14.625 25.5381 14.625 39C14.625 52.4619 25.5381 63.375 39 63.375C52.4619 63.375 63.375 52.4619 63.375 39C63.375 25.5381 52.4619 14.625 39 14.625ZM9.75 39C9.75 22.8457 22.8457 9.75 39 9.75C55.1543 9.75 68.25 22.8457 68.25 39C68.25 55.1543 55.1543 68.25 39 68.25C22.8457 68.25 9.75 55.1543 9.75 39Z" fill="#616161"/>
<path fill-rule="evenodd" clip-rule="evenodd" d="M52.7892 25.2108C53.7411 26.1627 53.7411 27.7061 52.7892 28.658L40.7236 40.7236C39.7717 41.6755 38.2283 41.6755 37.2764 40.7236C36.3245 39.7717 36.3245 38.2283 37.2764 37.2764L49.3421 25.2108C50.294 24.2589 51.8373 24.2589 52.7892 25.2108Z" fill="#616161"/>
<path fill-rule="evenodd" clip-rule="evenodd" d="M29.25 2.4375C29.25 1.09131 30.3413 0 31.6875 0H46.3125C47.6587 0 48.75 1.09131 48.75 2.4375C48.75 3.78369 47.6587 4.875 46.3125 4.875H31.6875C30.3413 4.875 29.25 3.78369 29.25 2.4375Z" fill="#616161"/>
</svg>
