<svg width="17" height="17" viewBox="0 0 17 17" fill="none" xmlns="http://www.w3.org/2000/svg">
<path fill-rule="evenodd" clip-rule="evenodd" d="M2.99479 10.3294C3.36298 10.3294 3.66146 10.6279 3.66146 10.9961L3.66146 13.6628C3.66146 13.8396 3.7317 14.0091 3.85672 14.1342C3.98174 14.2592 4.15131 14.3294 4.32812 14.3294L13.6615 14.3294C13.8383 14.3294 14.0078 14.2592 14.1329 14.1342C14.2579 14.0091 14.3281 13.8396 14.3281 13.6628V10.9961C14.3281 10.6279 14.6266 10.3294 14.9948 10.3294C15.363 10.3294 15.6615 10.6279 15.6615 10.9961V13.6628C15.6615 14.1932 15.4507 14.7019 15.0757 15.077C14.7006 15.452 14.1919 15.6628 13.6615 15.6628L4.32812 15.6628C3.79769 15.6628 3.28898 15.452 2.91391 15.077C2.53884 14.7019 2.32813 14.1932 2.32813 13.6628L2.32812 10.9961C2.32812 10.6279 2.6266 10.3294 2.99479 10.3294Z" fill="#151948"/>
<path fill-rule="evenodd" clip-rule="evenodd" d="M5.18989 7.19136C5.45024 6.93101 5.87235 6.93101 6.1327 7.19136L8.99463 10.0533L11.8566 7.19136C12.1169 6.93101 12.539 6.93101 12.7994 7.19136C13.0597 7.45171 13.0597 7.87382 12.7994 8.13416L9.46603 11.4675C9.20568 11.7278 8.78357 11.7278 8.52322 11.4675L5.18989 8.13416C4.92954 7.87382 4.92954 7.45171 5.18989 7.19136Z" fill="#2E3BE3"/>
<path fill-rule="evenodd" clip-rule="evenodd" d="M8.99479 2.32943C9.36298 2.32943 9.66146 2.62791 9.66146 2.9961L9.66146 10.9961C9.66146 11.3643 9.36298 11.6628 8.99479 11.6628C8.6266 11.6628 8.32813 11.3643 8.32813 10.9961L8.32812 2.9961C8.32812 2.62791 8.6266 2.32943 8.99479 2.32943Z" fill="#2E3BE3"/>
</svg>
